{
  "scene": 0,
  "scenes": [
    {
      "nodes": [
        0,
        1,
        2,
        3
      ],
      "name": "0"
    },
    {
      "name": "1",
      "nodes": []
    },
    {
      "name": "2",
      "nodes": []
    },
    {
      "name": "3",
      "nodes": []
    },
    {
      "name": "4",
      "nodes": []
    },
    {
      "name": "5",
      "nodes": []
    }
  ],
  "asset": {
    "version": "2.0",
    "generator": "https://github.com/mikedh/trimesh"
  },
  "accessors": [
    {
      "componentType": 5125,
      "type": "SCALAR",
      "bufferView": 0,
      "count": 6,
      "max": [
        5
      ],
      "min": [
        0
      ]
    },
    {
      "componentType": 5126,
      "type": "VEC3",
      "byteOffset": 0,
      "bufferView": 1,
      "count": 6,
      "max": [
        0.07268838584423065,
        0.8481651544570923,
        -0.8739210963249207
      ],
      "min": [
        -0.02614760771393776,
        0.848164439201355,
        -1.4082865715026855
      ]
    },
    {
      "componentType": 5126,
      "count": 6,
      "type": "VEC3",
      "byteOffset": 0,
      "bufferView": 2,
      "max": [
        0.0,
        1.0,
        -1.3380358723225072e-06
      ],
      "min": [
        0.0,
        1.0,
        -1.3380358723225072e-06
      ]
    },
    {
      "componentType": 5125,
      "type": "SCALAR",
      "bufferView": 3,
      "count": 108,
      "max": [
        107
      ],
      "min": [
        0
      ]
    },
    {
      "componentType": 5126,
      "type": "VEC3",
      "byteOffset": 0,
      "bufferView": 4,
      "count": 108,
      "max": [
        0.07740786671638489,
        0.8481651544570923,
        0.8739215731620789
      ],
      "min": [
        -0.030867088586091995,
        -0.8481650352478027,
        -1.4082865715026855
      ]
    },
    {
      "componentType": 5126,
      "count": 108,
      "type": "VEC3",
      "byteOffset": 0,
      "bufferView": 5,
      "max": [
        0.9995867609977722,
        0.7176023721694946,
        0.6964530348777771
      ],
      "min": [
        -0.9999875426292419,
        -1.0,
        -0.8739320635795593
      ]
    },
    {
      "componentType": 5125,
      "type": "SCALAR",
      "bufferView": 6,
      "count": 66,
      "max": [
        65
      ],
      "min": [
        0
      ]
    },
    {
      "componentType": 5126,
      "type": "VEC3",
      "byteOffset": 0,
      "bufferView": 7,
      "count": 66,
      "max": [
        0.06961125135421753,
        0.8481651544570923,
        0.8739215731620789
      ],
      "min": [
        -0.030867088586091995,
        -0.8481650352478027,
        -1.4082865715026855
      ]
    },
    {
      "componentType": 5126,
      "count": 66,
      "type": "VEC3",
      "byteOffset": 0,
      "bufferView": 8,
      "max": [
        0.9987955689430237,
        0.1725957691669464,
        0.013457325287163258
      ],
      "min": [
        -0.9999507069587708,
        -0.422878235578537,
        -0.1270926594734192
      ]
    },
    {
      "componentType": 5125,
      "type": "SCALAR",
      "bufferView": 9,
      "count": 24,
      "max": [
        23
      ],
      "min": [
        0
      ]
    },
    {
      "componentType": 5126,
      "type": "VEC3",
      "byteOffset": 0,
      "bufferView": 10,
      "count": 24,
      "max": [
        0.07740786671638489,
        -0.11382314562797546,
        0.36653509736061096
      ],
      "min": [
        0.023270390927791595,
        -0.8481650352478027,
        -0.776050865650177
      ]
    },
    {
      "componentType": 5126,
      "count": 24,
      "type": "VEC3",
      "byteOffset": 0,
      "bufferView": 11,
      "max": [
        0.9999507069587708,
        0.2844906747341156,
        0.07772991806268692
      ],
      "min": [
        0.7038346529006958,
        -0.7009845972061157,
        -0.11505354195833206
      ]
    }
  ],
  "meshes": [
    {
      "name": "0_#08650c",
      "extras": {},
      "primitives": [
        {
          "attributes": {
            "POSITION": 1,
            "NORMAL": 2
          },
          "indices": 0,
          "mode": 4,
          "material": 0
        }
      ]
    },
    {
      "name": "1_#424c42",
      "extras": {},
      "primitives": [
        {
          "attributes": {
            "POSITION": 4,
            "NORMAL": 5
          },
          "indices": 3,
          "mode": 4,
          "material": 1
        }
      ]
    },
    {
      "name": "2_#60744c",
      "extras": {},
      "primitives": [
        {
          "attributes": {
            "POSITION": 7,
            "NORMAL": 8
          },
          "indices": 6,
          "mode": 4,
          "material": 2
        }
      ]
    },
    {
      "name": "3_#ac8e56",
      "extras": {},
      "primitives": [
        {
          "attributes": {
            "POSITION": 10,
            "NORMAL": 11
          },
          "indices": 9,
          "mode": 4,
          "material": 3
        }
      ]
    }
  ],
  "materials": [
    {
      "name": "#08650c",
      "pbrMetallicRoughness": {
        "baseColorFactor": [
          0.03137254901960784,
          0.396078431372549,
          0.047058823529411764,
          1.0
        ]
      }
    },
    {
      "name": "#424c42",
      "pbrMetallicRoughness": {
        "baseColorFactor": [
          0.25882352941176473,
          0.2980392156862745,
          0.25882352941176473,
          1.0
        ]
      }
    },
    {
      "name": "#60744c",
      "pbrMetallicRoughness": {
        "baseColorFactor": [
          0.3764705882352941,
          0.4549019607843137,
          0.2980392156862745,
          1.0
        ]
      }
    },
    {
      "name": "#ac8e56",
      "pbrMetallicRoughness": {
        "baseColorFactor": [
          0.6745098039215687,
          0.5568627450980392,
          0.33725490196078434,
          1.0
        ]
      }
    }
  ],
  "nodes": [
    {
      "name": "0_0_#08650c",
      "mesh": 0
    },
    {
      "name": "0_1_#424c42",
      "mesh": 1
    },
    {
      "name": "0_2_#60744c",
      "mesh": 2
    },
    {
      "name": "0_3_#ac8e56",
      "mesh": 3
    }
  ],
  "buffers": [
    {
      "uri": "cold_war_planes_su_22m4_gdr_surf_rudder_buffer_0.bin",
      "byteLength": 24
    },
    {
      "uri": "cold_war_planes_su_22m4_gdr_surf_rudder_buffer_1.bin",
      "byteLength": 72
    },
    {
      "uri": "cold_war_planes_su_22m4_gdr_surf_rudder_buffer_2.bin",
      "byteLength": 72
    },
    {
      "uri": "cold_war_planes_su_22m4_gdr_surf_rudder_buffer_3.bin",
      "byteLength": 432
    },
    {
      "uri": "cold_war_planes_su_22m4_gdr_surf_rudder_buffer_4.bin",
      "byteLength": 1296
    },
    {
      "uri": "cold_war_planes_su_22m4_gdr_surf_rudder_buffer_5.bin",
      "byteLength": 1296
    },
    {
      "uri": "cold_war_planes_su_22m4_gdr_surf_rudder_buffer_6.bin",
      "byteLength": 264
    },
    {
      "uri": "cold_war_planes_su_22m4_gdr_surf_rudder_buffer_7.bin",
      "byteLength": 792
    },
    {
      "uri": "cold_war_planes_su_22m4_gdr_surf_rudder_buffer_8.bin",
      "byteLength": 792
    },
    {
      "uri": "cold_war_planes_su_22m4_gdr_surf_rudder_buffer_9.bin",
      "byteLength": 96
    },
    {
      "uri": "cold_war_planes_su_22m4_gdr_surf_rudder_buffer_10.bin",
      "byteLength": 288
    },
    {
      "uri": "cold_war_planes_su_22m4_gdr_surf_rudder_buffer_11.bin",
      "byteLength": 288
    }
  ],
  "bufferViews": [
    {
      "buffer": 0,
      "byteOffset": 0,
      "byteLength": 24
    },
    {
      "buffer": 1,
      "byteOffset": 0,
      "byteLength": 72
    },
    {
      "buffer": 2,
      "byteOffset": 0,
      "byteLength": 72
    },
    {
      "buffer": 3,
      "byteOffset": 0,
      "byteLength": 432
    },
    {
      "buffer": 4,
      "byteOffset": 0,
      "byteLength": 1296
    },
    {
      "buffer": 5,
      "byteOffset": 0,
      "byteLength": 1296
    },
    {
      "buffer": 6,
      "byteOffset": 0,
      "byteLength": 264
    },
    {
      "buffer": 7,
      "byteOffset": 0,
      "byteLength": 792
    },
    {
      "buffer": 8,
      "byteOffset": 0,
      "byteLength": 792
    },
    {
      "buffer": 9,
      "byteOffset": 0,
      "byteLength": 96
    },
    {
      "buffer": 10,
      "byteOffset": 0,
      "byteLength": 288
    },
    {
      "buffer": 11,
      "byteOffset": 0,
      "byteLength": 288
    }
  ]
}