{
  "scene": 0,
  "scenes": [
    {
      "nodes": [
        0,
        1,
        2,
        3,
        4
      ],
      "name": "0"
    },
    {
      "name": "1",
      "nodes": []
    },
    {
      "name": "2",
      "nodes": []
    },
    {
      "name": "3",
      "nodes": []
    },
    {
      "name": "4",
      "nodes": []
    },
    {
      "name": "5",
      "nodes": []
    }
  ],
  "asset": {
    "version": "2.0",
    "generator": "https://github.com/mikedh/trimesh"
  },
  "accessors": [
    {
      "componentType": 5125,
      "type": "SCALAR",
      "bufferView": 0,
      "count": 33,
      "max": [
        32
      ],
      "min": [
        0
      ]
    },
    {
      "componentType": 5126,
      "type": "VEC3",
      "byteOffset": 0,
      "bufferView": 1,
      "count": 33,
      "max": [
        1.533004879951477,
        0.011310327798128128,
        0.6504511833190918
      ],
      "min": [
        -0.020937230437994003,
        -0.18814006447792053,
        -1.9939641952514648
      ]
    },
    {
      "componentType": 5126,
      "count": 33,
      "type": "VEC3",
      "byteOffset": 0,
      "bufferView": 2,
      "max": [
        0.08364829421043396,
        0.9963591694831848,
        0.03348414599895477
      ],
      "min": [
        -0.08191801607608795,
        -0.9960764050483704,
        -0.04619294032454491
      ]
    },
    {
      "componentType": 5125,
      "type": "SCALAR",
      "bufferView": 3,
      "count": 9,
      "max": [
        8
      ],
      "min": [
        0
      ]
    },
    {
      "componentType": 5126,
      "type": "VEC3",
      "byteOffset": 0,
      "bufferView": 4,
      "count": 9,
      "max": [
        0.43225544691085815,
        0.04942433163523674,
        1.3717833757400513
      ],
      "min": [
        -0.001977622974663973,
        -0.006034005433320999,
        0.11259087175130844
      ]
    },
    {
      "componentType": 5126,
      "count": 9,
      "type": "VEC3",
      "byteOffset": 0,
      "bufferView": 5,
      "max": [
        0.10205412656068802,
        0.9959902763366699,
        -0.018184173852205276
      ],
      "min": [
        0.08253491669893265,
        0.9946126341819763,
        -0.034515656530857086
      ]
    },
    {
      "componentType": 5125,
      "type": "SCALAR",
      "bufferView": 6,
      "count": 45,
      "max": [
        44
      ],
      "min": [
        0
      ]
    },
    {
      "componentType": 5126,
      "type": "VEC3",
      "byteOffset": 0,
      "bufferView": 7,
      "count": 45,
      "max": [
        2.201162815093994,
        -0.08318878710269928,
        -0.09584283083677292
      ],
      "min": [
        1.051224946975708,
        -0.23025737702846527,
        -2.1970534324645996
      ]
    },
    {
      "componentType": 5126,
      "count": 45,
      "type": "VEC3",
      "byteOffset": 0,
      "bufferView": 8,
      "max": [
        0.09006752818822861,
        0.9965564608573914,
        -0.028221139684319496
      ],
      "min": [
        0.07679963111877441,
        0.9955357313156128,
        -0.03827998787164688
      ]
    },
    {
      "componentType": 5125,
      "type": "SCALAR",
      "bufferView": 9,
      "count": 15,
      "max": [
        14
      ],
      "min": [
        0
      ]
    },
    {
      "componentType": 5126,
      "type": "VEC3",
      "byteOffset": 0,
      "bufferView": 10,
      "count": 15,
      "max": [
        2.017918825149536,
        -0.0014920643297955394,
        0.866889476776123
      ],
      "min": [
        0.4322553873062134,
        -0.20368754863739014,
        -1.2613896131515503
      ]
    },
    {
      "componentType": 5126,
      "count": 15,
      "type": "VEC3",
      "byteOffset": 0,
      "bufferView": 11,
      "max": [
        0.09884055703878403,
        0.9959221482276917,
        -0.020877545699477196
      ],
      "min": [
        0.08377379924058914,
        0.9948842525482178,
        -0.03348107635974884
      ]
    },
    {
      "componentType": 5125,
      "type": "SCALAR",
      "bufferView": 12,
      "count": 78,
      "max": [
        77
      ],
      "min": [
        0
      ]
    },
    {
      "componentType": 5126,
      "type": "VEC3",
      "byteOffset": 0,
      "bufferView": 13,
      "count": 78,
      "max": [
        2.201162815093994,
        0.04942433163523674,
        1.3717833757400513
      ],
      "min": [
        -0.020937230437994003,
        -0.23025737702846527,
        -2.1970534324645996
      ]
    },
    {
      "componentType": 5126,
      "count": 78,
      "type": "VEC3",
      "byteOffset": 0,
      "bufferView": 14,
      "max": [
        -0.05891018733382225,
        0.08784013986587524,
        0.051376208662986755
      ],
      "min": [
        -0.9997546672821045,
        -0.9969403743743896,
        -0.15116596221923828
      ]
    }
  ],
  "meshes": [
    {
      "name": "0_#42593d",
      "extras": {},
      "primitives": [
        {
          "attributes": {
            "POSITION": 1,
            "NORMAL": 2
          },
          "indices": 0,
          "mode": 4,
          "material": 0
        }
      ]
    },
    {
      "name": "1_#5f5249",
      "extras": {},
      "primitives": [
        {
          "attributes": {
            "POSITION": 4,
            "NORMAL": 5
          },
          "indices": 3,
          "mode": 4,
          "material": 1
        }
      ]
    },
    {
      "name": "2_#799670",
      "extras": {},
      "primitives": [
        {
          "attributes": {
            "POSITION": 7,
            "NORMAL": 8
          },
          "indices": 6,
          "mode": 4,
          "material": 2
        }
      ]
    },
    {
      "name": "3_#999a99",
      "extras": {},
      "primitives": [
        {
          "attributes": {
            "POSITION": 10,
            "NORMAL": 11
          },
          "indices": 9,
          "mode": 4,
          "material": 3
        }
      ]
    },
    {
      "name": "4_#dbdfde",
      "extras": {},
      "primitives": [
        {
          "attributes": {
            "POSITION": 13,
            "NORMAL": 14
          },
          "indices": 12,
          "mode": 4,
          "material": 4
        }
      ]
    }
  ],
  "materials": [
    {
      "name": "#42593d",
      "pbrMetallicRoughness": {
        "baseColorFactor": [
          0.25882352941176473,
          0.34901960784313724,
          0.23921568627450981,
          1.0
        ]
      }
    },
    {
      "name": "#5f5249",
      "pbrMetallicRoughness": {
        "baseColorFactor": [
          0.37254901960784315,
          0.3215686274509804,
          0.28627450980392155,
          1.0
        ]
      }
    },
    {
      "name": "#799670",
      "pbrMetallicRoughness": {
        "baseColorFactor": [
          0.4745098039215686,
          0.5882352941176471,
          0.4392156862745098,
          1.0
        ]
      }
    },
    {
      "name": "#999a99",
      "pbrMetallicRoughness": {
        "baseColorFactor": [
          0.6,
          0.6039215686274509,
          0.6,
          1.0
        ]
      }
    },
    {
      "name": "#dbdfde",
      "pbrMetallicRoughness": {
        "baseColorFactor": [
          0.8588235294117647,
          0.8745098039215686,
          0.8705882352941177,
          1.0
        ]
      }
    }
  ],
  "nodes": [
    {
      "name": "0_0_#42593d",
      "mesh": 0
    },
    {
      "name": "0_1_#5f5249",
      "mesh": 1
    },
    {
      "name": "0_2_#799670",
      "mesh": 2
    },
    {
      "name": "0_3_#999a99",
      "mesh": 3
    },
    {
      "name": "0_4_#dbdfde",
      "mesh": 4
    }
  ],
  "buffers": [
    {
      "uri": "cold_war_planes_mig_29a_gdr_surf_elevatorLeft_buffer_0.bin",
      "byteLength": 132
    },
    {
      "uri": "cold_war_planes_mig_29a_gdr_surf_elevatorLeft_buffer_1.bin",
      "byteLength": 396
    },
    {
      "uri": "cold_war_planes_mig_29a_gdr_surf_elevatorLeft_buffer_2.bin",
      "byteLength": 396
    },
    {
      "uri": "cold_war_planes_mig_29a_gdr_surf_elevatorLeft_buffer_3.bin",
      "byteLength": 36
    },
    {
      "uri": "cold_war_planes_mig_29a_gdr_surf_elevatorLeft_buffer_4.bin",
      "byteLength": 108
    },
    {
      "uri": "cold_war_planes_mig_29a_gdr_surf_elevatorLeft_buffer_5.bin",
      "byteLength": 108
    },
    {
      "uri": "cold_war_planes_mig_29a_gdr_surf_elevatorLeft_buffer_6.bin",
      "byteLength": 180
    },
    {
      "uri": "cold_war_planes_mig_29a_gdr_surf_elevatorLeft_buffer_7.bin",
      "byteLength": 540
    },
    {
      "uri": "cold_war_planes_mig_29a_gdr_surf_elevatorLeft_buffer_8.bin",
      "byteLength": 540
    },
    {
      "uri": "cold_war_planes_mig_29a_gdr_surf_elevatorLeft_buffer_9.bin",
      "byteLength": 60
    },
    {
      "uri": "cold_war_planes_mig_29a_gdr_surf_elevatorLeft_buffer_10.bin",
      "byteLength": 180
    },
    {
      "uri": "cold_war_planes_mig_29a_gdr_surf_elevatorLeft_buffer_11.bin",
      "byteLength": 180
    },
    {
      "uri": "cold_war_planes_mig_29a_gdr_surf_elevatorLeft_buffer_12.bin",
      "byteLength": 312
    },
    {
      "uri": "cold_war_planes_mig_29a_gdr_surf_elevatorLeft_buffer_13.bin",
      "byteLength": 936
    },
    {
      "uri": "cold_war_planes_mig_29a_gdr_surf_elevatorLeft_buffer_14.bin",
      "byteLength": 936
    }
  ],
  "bufferViews": [
    {
      "buffer": 0,
      "byteOffset": 0,
      "byteLength": 132
    },
    {
      "buffer": 1,
      "byteOffset": 0,
      "byteLength": 396
    },
    {
      "buffer": 2,
      "byteOffset": 0,
      "byteLength": 396
    },
    {
      "buffer": 3,
      "byteOffset": 0,
      "byteLength": 36
    },
    {
      "buffer": 4,
      "byteOffset": 0,
      "byteLength": 108
    },
    {
      "buffer": 5,
      "byteOffset": 0,
      "byteLength": 108
    },
    {
      "buffer": 6,
      "byteOffset": 0,
      "byteLength": 180
    },
    {
      "buffer": 7,
      "byteOffset": 0,
      "byteLength": 540
    },
    {
      "buffer": 8,
      "byteOffset": 0,
      "byteLength": 540
    },
    {
      "buffer": 9,
      "byteOffset": 0,
      "byteLength": 60
    },
    {
      "buffer": 10,
      "byteOffset": 0,
      "byteLength": 180
    },
    {
      "buffer": 11,
      "byteOffset": 0,
      "byteLength": 180
    },
    {
      "buffer": 12,
      "byteOffset": 0,
      "byteLength": 312
    },
    {
      "buffer": 13,
      "byteOffset": 0,
      "byteLength": 936
    },
    {
      "buffer": 14,
      "byteOffset": 0,
      "byteLength": 936
    }
  ]
}