{
  "scene": 0,
  "scenes": [
    {
      "nodes": [
        0,
        1,
        2
      ],
      "name": "0"
    },
    {
      "name": "1",
      "nodes": []
    },
    {
      "name": "2",
      "nodes": []
    },
    {
      "name": "3",
      "nodes": []
    },
    {
      "name": "4",
      "nodes": []
    },
    {
      "name": "5",
      "nodes": []
    }
  ],
  "asset": {
    "version": "2.0",
    "generator": "https://github.com/mikedh/trimesh"
  },
  "accessors": [
    {
      "componentType": 5125,
      "type": "SCALAR",
      "bufferView": 0,
      "count": 48,
      "max": [
        47
      ],
      "min": [
        0
      ]
    },
    {
      "componentType": 5126,
      "type": "VEC3",
      "byteOffset": 0,
      "bufferView": 1,
      "count": 48,
      "max": [
        1.2392231225967407,
        0.06476259231567383,
        0.77524733543396
      ],
      "min": [
        -1.2392210960388184,
        -0.16057218611240387,
        -0.497403085231781
      ]
    },
    {
      "componentType": 5126,
      "count": 48,
      "type": "VEC3",
      "byteOffset": 0,
      "bufferView": 2,
      "max": [
        1.0,
        0.9878166317939758,
        0.9117372632026672
      ],
      "min": [
        -0.4228118062019348,
        -1.3221287531450798e-07,
        -0.9295502305030823
      ]
    },
    {
      "componentType": 5125,
      "type": "SCALAR",
      "bufferView": 3,
      "count": 36,
      "max": [
        35
      ],
      "min": [
        0
      ]
    },
    {
      "componentType": 5126,
      "type": "VEC3",
      "byteOffset": 0,
      "bufferView": 4,
      "count": 36,
      "max": [
        1.2392231225967407,
        0.06476259231567383,
        0.9022822380065918
      ],
      "min": [
        -1.3494153022766113,
        -0.16057218611240387,
        -0.497403085231781
      ]
    },
    {
      "componentType": 5126,
      "count": 36,
      "type": "VEC3",
      "byteOffset": 0,
      "bufferView": 5,
      "max": [
        1.0,
        0.9959898591041565,
        0.9117372035980225
      ],
      "min": [
        -0.8971553444862366,
        -0.013336091302335262,
        -0.44171589612960815
      ]
    },
    {
      "componentType": 5125,
      "type": "SCALAR",
      "bufferView": 6,
      "count": 24,
      "max": [
        23
      ],
      "min": [
        0
      ]
    },
    {
      "componentType": 5126,
      "type": "VEC3",
      "byteOffset": 0,
      "bufferView": 7,
      "count": 24,
      "max": [
        1.2392231225967407,
        -0.0728394091129303,
        0.9022822380065918
      ],
      "min": [
        -1.3494153022766113,
        -0.16057218611240387,
        -0.497403085231781
      ]
    },
    {
      "componentType": 5126,
      "count": 24,
      "type": "VEC3",
      "byteOffset": 0,
      "bufferView": 8,
      "max": [
        0.018858501687645912,
        1.0,
        0.06897997111082077
      ],
      "min": [
        0.0,
        -0.999378502368927,
        0.0
      ]
    }
  ],
  "meshes": [
    {
      "name": "0_#4c5b4f",
      "extras": {},
      "primitives": [
        {
          "attributes": {
            "POSITION": 1,
            "NORMAL": 2
          },
          "indices": 0,
          "mode": 4,
          "material": 0
        }
      ]
    },
    {
      "name": "1_#876541",
      "extras": {},
      "primitives": [
        {
          "attributes": {
            "POSITION": 4,
            "NORMAL": 5
          },
          "indices": 3,
          "mode": 4,
          "material": 1
        }
      ]
    },
    {
      "name": "2_#dbeff7",
      "extras": {},
      "primitives": [
        {
          "attributes": {
            "POSITION": 7,
            "NORMAL": 8
          },
          "indices": 6,
          "mode": 4,
          "material": 2
        }
      ]
    }
  ],
  "materials": [
    {
      "name": "#4c5b4f",
      "pbrMetallicRoughness": {
        "baseColorFactor": [
          0.2980392156862745,
          0.3568627450980392,
          0.30980392156862746,
          1.0
        ]
      }
    },
    {
      "name": "#876541",
      "pbrMetallicRoughness": {
        "baseColorFactor": [
          0.5294117647058824,
          0.396078431372549,
          0.2549019607843137,
          1.0
        ]
      }
    },
    {
      "name": "#dbeff7",
      "pbrMetallicRoughness": {
        "baseColorFactor": [
          0.8588235294117647,
          0.9372549019607843,
          0.9686274509803922,
          1.0
        ]
      }
    }
  ],
  "nodes": [
    {
      "name": "0_0_#4c5b4f",
      "mesh": 0
    },
    {
      "name": "0_1_#876541",
      "mesh": 1
    },
    {
      "name": "0_2_#dbeff7",
      "mesh": 2
    }
  ],
  "buffers": [
    {
      "uri": "cold_war_planes_su_25_vvs_surf_slatRight_buffer_0.bin",
      "byteLength": 192
    },
    {
      "uri": "cold_war_planes_su_25_vvs_surf_slatRight_buffer_1.bin",
      "byteLength": 576
    },
    {
      "uri": "cold_war_planes_su_25_vvs_surf_slatRight_buffer_2.bin",
      "byteLength": 576
    },
    {
      "uri": "cold_war_planes_su_25_vvs_surf_slatRight_buffer_3.bin",
      "byteLength": 144
    },
    {
      "uri": "cold_war_planes_su_25_vvs_surf_slatRight_buffer_4.bin",
      "byteLength": 432
    },
    {
      "uri": "cold_war_planes_su_25_vvs_surf_slatRight_buffer_5.bin",
      "byteLength": 432
    },
    {
      "uri": "cold_war_planes_su_25_vvs_surf_slatRight_buffer_6.bin",
      "byteLength": 96
    },
    {
      "uri": "cold_war_planes_su_25_vvs_surf_slatRight_buffer_7.bin",
      "byteLength": 288
    },
    {
      "uri": "cold_war_planes_su_25_vvs_surf_slatRight_buffer_8.bin",
      "byteLength": 288
    }
  ],
  "bufferViews": [
    {
      "buffer": 0,
      "byteOffset": 0,
      "byteLength": 192
    },
    {
      "buffer": 1,
      "byteOffset": 0,
      "byteLength": 576
    },
    {
      "buffer": 2,
      "byteOffset": 0,
      "byteLength": 576
    },
    {
      "buffer": 3,
      "byteOffset": 0,
      "byteLength": 144
    },
    {
      "buffer": 4,
      "byteOffset": 0,
      "byteLength": 432
    },
    {
      "buffer": 5,
      "byteOffset": 0,
      "byteLength": 432
    },
    {
      "buffer": 6,
      "byteOffset": 0,
      "byteLength": 96
    },
    {
      "buffer": 7,
      "byteOffset": 0,
      "byteLength": 288
    },
    {
      "buffer": 8,
      "byteOffset": 0,
      "byteLength": 288
    }
  ]
}