{
  "scene": 0,
  "scenes": [
    {
      "nodes": [
        0
      ],
      "name": "0"
    },
    {
      "name": "1",
      "nodes": []
    },
    {
      "name": "2",
      "nodes": []
    },
    {
      "name": "3",
      "nodes": []
    },
    {
      "name": "4",
      "nodes": []
    },
    {
      "name": "5",
      "nodes": []
    }
  ],
  "asset": {
    "version": "2.0",
    "generator": "https://github.com/mikedh/trimesh"
  },
  "accessors": [
    {
      "componentType": 5125,
      "type": "SCALAR",
      "bufferView": 0,
      "count": 162951,
      "max": [
        162950
      ],
      "min": [
        0
      ]
    },
    {
      "componentType": 5126,
      "type": "VEC3",
      "byteOffset": 0,
      "bufferView": 1,
      "count": 162951,
      "max": [
        8.790085792541504,
        0.0,
        8.091919898986816
      ],
      "min": [
        -8.790085792541504,
        0.0,
        -8.177714347839355
      ]
    },
    {
      "componentType": 5126,
      "count": 162951,
      "type": "VEC3",
      "byteOffset": 0,
      "bufferView": 2,
      "max": [
        0.0,
        1.0,
        0.0
      ],
      "min": [
        0.0,
        1.0,
        0.0
      ]
    }
  ],
  "meshes": [
    {
      "name": "0_VEHICLE_PLANE_GREY",
      "extras": {},
      "primitives": [
        {
          "attributes": {
            "POSITION": 1,
            "NORMAL": 2
          },
          "indices": 0,
          "mode": 4,
          "material": 0
        }
      ]
    }
  ],
  "materials": [
    {
      "name": "VEHICLE_PLANE_GREY",
      "pbrMetallicRoughness": {
        "baseColorFactor": [
          1.0,
          1.0,
          1.0,
          1.0
        ]
      }
    }
  ],
  "nodes": [
    {
      "name": "0_0_VEHICLE_PLANE_GREY",
      "mesh": 0
    }
  ],
  "buffers": [
    {
      "uri": "cold_war_planes_a_10a_511th_shadow_buffer_0.bin",
      "byteLength": 651804
    },
    {
      "uri": "cold_war_planes_a_10a_511th_shadow_buffer_1.bin",
      "byteLength": 1955412
    },
    {
      "uri": "cold_war_planes_a_10a_511th_shadow_buffer_2.bin",
      "byteLength": 1955412
    }
  ],
  "bufferViews": [
    {
      "buffer": 0,
      "byteOffset": 0,
      "byteLength": 651804
    },
    {
      "buffer": 1,
      "byteOffset": 0,
      "byteLength": 1955412
    },
    {
      "buffer": 2,
      "byteOffset": 0,
      "byteLength": 1955412
    }
  ]
}