{
  "scene": 0,
  "scenes": [
    {
      "nodes": [
        0,
        1,
        2
      ],
      "name": "0"
    },
    {
      "name": "1",
      "nodes": []
    },
    {
      "name": "2",
      "nodes": []
    },
    {
      "name": "3",
      "nodes": []
    },
    {
      "name": "4",
      "nodes": []
    },
    {
      "name": "5",
      "nodes": []
    }
  ],
  "asset": {
    "version": "2.0",
    "generator": "https://github.com/mikedh/trimesh"
  },
  "accessors": [
    {
      "componentType": 5125,
      "type": "SCALAR",
      "bufferView": 0,
      "count": 12,
      "max": [
        11
      ],
      "min": [
        0
      ]
    },
    {
      "componentType": 5126,
      "type": "VEC3",
      "byteOffset": 0,
      "bufferView": 1,
      "count": 12,
      "max": [
        1.560288906097412,
        -0.021158531308174133,
        0.06324449926614761
      ],
      "min": [
        0.32868683338165283,
        -0.21023045480251312,
        -1.3248714208602905
      ]
    },
    {
      "componentType": 5126,
      "count": 12,
      "type": "VEC3",
      "byteOffset": 0,
      "bufferView": 2,
      "max": [
        1.0,
        0.9603193402290344,
        0.1843770295381546
      ],
      "min": [
        0.21431028842926025,
        -1.5701706601589649e-09,
        1.5203605130409414e-07
      ]
    },
    {
      "componentType": 5125,
      "type": "SCALAR",
      "bufferView": 3,
      "count": 30,
      "max": [
        29
      ],
      "min": [
        0
      ]
    },
    {
      "componentType": 5126,
      "type": "VEC3",
      "byteOffset": 0,
      "bufferView": 4,
      "count": 30,
      "max": [
        1.560288906097412,
        0.10044119507074356,
        1.882845401763916
      ],
      "min": [
        -1.5608155727386475,
        -0.21023045480251312,
        -1.3248714208602905
      ]
    },
    {
      "componentType": 5126,
      "count": 30,
      "type": "VEC3",
      "byteOffset": 0,
      "bufferView": 5,
      "max": [
        0.0859137624502182,
        0.019644416868686676,
        0.15166139602661133
      ],
      "min": [
        -0.6463123559951782,
        -0.9893930554389954,
        -0.763266921043396
      ]
    },
    {
      "componentType": 5125,
      "type": "SCALAR",
      "bufferView": 6,
      "count": 18,
      "max": [
        17
      ],
      "min": [
        0
      ]
    },
    {
      "componentType": 5126,
      "type": "VEC3",
      "byteOffset": 0,
      "bufferView": 7,
      "count": 18,
      "max": [
        0.4049255847930908,
        0.10044119507074356,
        1.882845401763916
      ],
      "min": [
        -1.5608155727386475,
        -0.10213521867990494,
        -0.2784985899925232
      ]
    },
    {
      "componentType": 5126,
      "count": 18,
      "type": "VEC3",
      "byteOffset": 0,
      "bufferView": 8,
      "max": [
        0.215182825922966,
        0.9615681171417236,
        0.1810525506734848
      ],
      "min": [
        -0.9999954700469971,
        0.0030133980326354504,
        4.108094435650855e-05
      ]
    }
  ],
  "meshes": [
    {
      "name": "0_#b5c8c2",
      "extras": {},
      "primitives": [
        {
          "attributes": {
            "POSITION": 1,
            "NORMAL": 2
          },
          "indices": 0,
          "mode": 4,
          "material": 0
        }
      ]
    },
    {
      "name": "1_#dbdfde",
      "extras": {},
      "primitives": [
        {
          "attributes": {
            "POSITION": 4,
            "NORMAL": 5
          },
          "indices": 3,
          "mode": 4,
          "material": 1
        }
      ]
    },
    {
      "name": "2_#e3e7e7",
      "extras": {},
      "primitives": [
        {
          "attributes": {
            "POSITION": 7,
            "NORMAL": 8
          },
          "indices": 6,
          "mode": 4,
          "material": 2
        }
      ]
    }
  ],
  "materials": [
    {
      "name": "#b5c8c2",
      "pbrMetallicRoughness": {
        "baseColorFactor": [
          0.7098039215686275,
          0.7843137254901961,
          0.7607843137254902,
          1.0
        ]
      }
    },
    {
      "name": "#dbdfde",
      "pbrMetallicRoughness": {
        "baseColorFactor": [
          0.8588235294117647,
          0.8745098039215686,
          0.8705882352941177,
          1.0
        ]
      }
    },
    {
      "name": "#e3e7e7",
      "pbrMetallicRoughness": {
        "baseColorFactor": [
          0.8901960784313725,
          0.9058823529411765,
          0.9058823529411765,
          1.0
        ]
      }
    }
  ],
  "nodes": [
    {
      "name": "0_0_#b5c8c2",
      "mesh": 0
    },
    {
      "name": "0_1_#dbdfde",
      "mesh": 1
    },
    {
      "name": "0_2_#e3e7e7",
      "mesh": 2
    }
  ],
  "buffers": [
    {
      "uri": "cold_war_planes_mig_29a_vvs_surf_slatLeft_buffer_0.bin",
      "byteLength": 48
    },
    {
      "uri": "cold_war_planes_mig_29a_vvs_surf_slatLeft_buffer_1.bin",
      "byteLength": 144
    },
    {
      "uri": "cold_war_planes_mig_29a_vvs_surf_slatLeft_buffer_2.bin",
      "byteLength": 144
    },
    {
      "uri": "cold_war_planes_mig_29a_vvs_surf_slatLeft_buffer_3.bin",
      "byteLength": 120
    },
    {
      "uri": "cold_war_planes_mig_29a_vvs_surf_slatLeft_buffer_4.bin",
      "byteLength": 360
    },
    {
      "uri": "cold_war_planes_mig_29a_vvs_surf_slatLeft_buffer_5.bin",
      "byteLength": 360
    },
    {
      "uri": "cold_war_planes_mig_29a_vvs_surf_slatLeft_buffer_6.bin",
      "byteLength": 72
    },
    {
      "uri": "cold_war_planes_mig_29a_vvs_surf_slatLeft_buffer_7.bin",
      "byteLength": 216
    },
    {
      "uri": "cold_war_planes_mig_29a_vvs_surf_slatLeft_buffer_8.bin",
      "byteLength": 216
    }
  ],
  "bufferViews": [
    {
      "buffer": 0,
      "byteOffset": 0,
      "byteLength": 48
    },
    {
      "buffer": 1,
      "byteOffset": 0,
      "byteLength": 144
    },
    {
      "buffer": 2,
      "byteOffset": 0,
      "byteLength": 144
    },
    {
      "buffer": 3,
      "byteOffset": 0,
      "byteLength": 120
    },
    {
      "buffer": 4,
      "byteOffset": 0,
      "byteLength": 360
    },
    {
      "buffer": 5,
      "byteOffset": 0,
      "byteLength": 360
    },
    {
      "buffer": 6,
      "byteOffset": 0,
      "byteLength": 72
    },
    {
      "buffer": 7,
      "byteOffset": 0,
      "byteLength": 216
    },
    {
      "buffer": 8,
      "byteOffset": 0,
      "byteLength": 216
    }
  ]
}