{
  "scene": 0,
  "scenes": [
    {
      "nodes": [
        0,
        1,
        2,
        3,
        4,
        5,
        6,
        7,
        8,
        9,
        10,
        11,
        12,
        13,
        14,
        15,
        16,
        17,
        18,
        19,
        20,
        21
      ],
      "name": "0"
    },
    {
      "name": "1",
      "nodes": []
    },
    {
      "name": "2",
      "nodes": []
    },
    {
      "name": "3",
      "nodes": []
    },
    {
      "name": "4",
      "nodes": []
    },
    {
      "name": "5",
      "nodes": []
    }
  ],
  "asset": {
    "version": "2.0",
    "generator": "https://github.com/mikedh/trimesh"
  },
  "accessors": [
    {
      "componentType": 5125,
      "type": "SCALAR",
      "bufferView": 0,
      "count": 6498,
      "max": [
        6497
      ],
      "min": [
        0
      ]
    },
    {
      "componentType": 5126,
      "type": "VEC3",
      "byteOffset": 0,
      "bufferView": 1,
      "count": 6498,
      "max": [
        7.160837650299072,
        0.7808050513267517,
        7.289974689483643
      ],
      "min": [
        -7.160837650299072,
        -1.6403573751449585,
        -6.818007469177246
      ]
    },
    {
      "componentType": 5126,
      "count": 6498,
      "type": "VEC3",
      "byteOffset": 0,
      "bufferView": 2,
      "max": [
        1.0,
        1.0,
        1.0
      ],
      "min": [
        -1.0,
        -1.0,
        -1.0
      ]
    },
    {
      "componentType": 5125,
      "type": "SCALAR",
      "bufferView": 3,
      "count": 138,
      "max": [
        137
      ],
      "min": [
        0
      ]
    },
    {
      "componentType": 5126,
      "type": "VEC3",
      "byteOffset": 0,
      "bufferView": 4,
      "count": 138,
      "max": [
        0.04471997916698456,
        0.17331570386886597,
        4.098856449127197
      ],
      "min": [
        -0.0312550850212574,
        0.027595574036240578,
        4.050732135772705
      ]
    },
    {
      "componentType": 5126,
      "count": 138,
      "type": "VEC3",
      "byteOffset": 0,
      "bufferView": 5,
      "max": [
        0.9546182751655579,
        0.9999465942382812,
        0.998748242855072
      ],
      "min": [
        -0.9612447023391724,
        -0.7551422715187073,
        -0.9393443465232849
      ]
    },
    {
      "componentType": 5125,
      "type": "SCALAR",
      "bufferView": 6,
      "count": 96,
      "max": [
        95
      ],
      "min": [
        0
      ]
    },
    {
      "componentType": 5126,
      "type": "VEC3",
      "byteOffset": 0,
      "bufferView": 7,
      "count": 96,
      "max": [
        0.03597244992852211,
        0.17216168344020844,
        4.126624584197998
      ],
      "min": [
        -0.016226952895522118,
        -0.06029412895441055,
        4.056018829345703
      ]
    },
    {
      "componentType": 5126,
      "count": 96,
      "type": "VEC3",
      "byteOffset": 0,
      "bufferView": 8,
      "max": [
        0.782634973526001,
        0.9999467134475708,
        0.8922104239463806
      ],
      "min": [
        -0.7825897336006165,
        -0.9999465942382812,
        -0.9189503192901611
      ]
    },
    {
      "componentType": 5125,
      "type": "SCALAR",
      "bufferView": 9,
      "count": 486,
      "max": [
        485
      ],
      "min": [
        0
      ]
    },
    {
      "componentType": 5126,
      "type": "VEC3",
      "byteOffset": 0,
      "bufferView": 10,
      "count": 486,
      "max": [
        0.060967374593019485,
        0.1964375525712967,
        4.132786273956299
      ],
      "min": [
        -0.03727282956242561,
        -0.11003641039133072,
        4.05536413192749
      ]
    },
    {
      "componentType": 5126,
      "count": 486,
      "type": "VEC3",
      "byteOffset": 0,
      "bufferView": 11,
      "max": [
        0.9877880811691284,
        0.9999465942382812,
        0.9609626531600952
      ],
      "min": [
        -0.9979168772697449,
        -1.0,
        -0.9502898454666138
      ]
    },
    {
      "componentType": 5125,
      "type": "SCALAR",
      "bufferView": 12,
      "count": 30660,
      "max": [
        30659
      ],
      "min": [
        0
      ]
    },
    {
      "componentType": 5126,
      "type": "VEC3",
      "byteOffset": 0,
      "bufferView": 13,
      "count": 30660,
      "max": [
        3.944066047668457,
        2.903839111328125,
        4.3126678466796875
      ],
      "min": [
        -3.9440701007843018,
        -1.8401650190353394,
        -7.04863166809082
      ]
    },
    {
      "componentType": 5126,
      "count": 30660,
      "type": "VEC3",
      "byteOffset": 0,
      "bufferView": 14,
      "max": [
        1.0,
        1.0,
        1.0
      ],
      "min": [
        -1.0,
        -1.0,
        -1.0
      ]
    },
    {
      "componentType": 5125,
      "type": "SCALAR",
      "bufferView": 15,
      "count": 36,
      "max": [
        35
      ],
      "min": [
        0
      ]
    },
    {
      "componentType": 5126,
      "type": "VEC3",
      "byteOffset": 0,
      "bufferView": 16,
      "count": 36,
      "max": [
        0.03587200492620468,
        0.18970072269439697,
        4.071474075317383
      ],
      "min": [
        0.025007495656609535,
        0.17889535427093506,
        4.066077709197998
      ]
    },
    {
      "componentType": 5126,
      "count": 36,
      "type": "VEC3",
      "byteOffset": 0,
      "bufferView": 17,
      "max": [
        0.7052786946296692,
        0.7549900412559509,
        0.9393071532249451
      ],
      "min": [
        -0.7053037881851196,
        -0.7549833655357361,
        -0.9393071532249451
      ]
    },
    {
      "componentType": 5125,
      "type": "SCALAR",
      "bufferView": 18,
      "count": 3036,
      "max": [
        3035
      ],
      "min": [
        0
      ]
    },
    {
      "componentType": 5126,
      "type": "VEC3",
      "byteOffset": 0,
      "bufferView": 19,
      "count": 3036,
      "max": [
        1.3270868062973022,
        0.3612409830093384,
        4.307860851287842
      ],
      "min": [
        -1.3270868062973022,
        -1.449684739112854,
        -0.4163115620613098
      ]
    },
    {
      "componentType": 5126,
      "count": 3036,
      "type": "VEC3",
      "byteOffset": 0,
      "bufferView": 20,
      "max": [
        1.0,
        1.0,
        1.0
      ],
      "min": [
        -1.0,
        -1.0,
        -1.0
      ]
    },
    {
      "componentType": 5125,
      "type": "SCALAR",
      "bufferView": 21,
      "count": 132,
      "max": [
        131
      ],
      "min": [
        0
      ]
    },
    {
      "componentType": 5126,
      "type": "VEC3",
      "byteOffset": 0,
      "bufferView": 22,
      "count": 132,
      "max": [
        1.2328245639801025,
        -0.15670980513095856,
        -3.0778310298919678
      ],
      "min": [
        -1.2328245639801025,
        -0.8465758562088013,
        -3.7930779457092285
      ]
    },
    {
      "componentType": 5126,
      "count": 132,
      "type": "VEC3",
      "byteOffset": 0,
      "bufferView": 23,
      "max": [
        0.9226558208465576,
        0.909554660320282,
        0.061111319810152054
      ],
      "min": [
        -0.9226558208465576,
        -0.9220663905143738,
        -0.9925810098648071
      ]
    },
    {
      "componentType": 5125,
      "type": "SCALAR",
      "bufferView": 24,
      "count": 6480,
      "max": [
        6479
      ],
      "min": [
        0
      ]
    },
    {
      "componentType": 5126,
      "type": "VEC3",
      "byteOffset": 0,
      "bufferView": 25,
      "count": 6480,
      "max": [
        7.155836582183838,
        2.935961961746216,
        7.972711563110352
      ],
      "min": [
        -7.155836582183838,
        -0.5806915760040283,
        -7.17746639251709
      ]
    },
    {
      "componentType": 5126,
      "count": 6480,
      "type": "VEC3",
      "byteOffset": 0,
      "bufferView": 26,
      "max": [
        1.0,
        1.0,
        1.0
      ],
      "min": [
        -1.0,
        -1.0,
        -1.0
      ]
    },
    {
      "componentType": 5125,
      "type": "SCALAR",
      "bufferView": 27,
      "count": 1914,
      "max": [
        1913
      ],
      "min": [
        0
      ]
    },
    {
      "componentType": 5126,
      "type": "VEC3",
      "byteOffset": 0,
      "bufferView": 28,
      "count": 1914,
      "max": [
        6.1795334815979,
        2.5689799785614014,
        7.567006587982178
      ],
      "min": [
        -6.179533004760742,
        -1.047014594078064,
        -6.862042427062988
      ]
    },
    {
      "componentType": 5126,
      "count": 1914,
      "type": "VEC3",
      "byteOffset": 0,
      "bufferView": 29,
      "max": [
        1.0,
        1.0,
        1.0
      ],
      "min": [
        -1.0,
        -1.0,
        -1.0
      ]
    },
    {
      "componentType": 5125,
      "type": "SCALAR",
      "bufferView": 30,
      "count": 825,
      "max": [
        824
      ],
      "min": [
        0
      ]
    },
    {
      "componentType": 5126,
      "type": "VEC3",
      "byteOffset": 0,
      "bufferView": 31,
      "count": 825,
      "max": [
        4.929042816162109,
        0.6283235549926758,
        4.550674915313721
      ],
      "min": [
        -7.160837173461914,
        -0.15071704983711243,
        -2.3854191303253174
      ]
    },
    {
      "componentType": 5126,
      "count": 825,
      "type": "VEC3",
      "byteOffset": 0,
      "bufferView": 32,
      "max": [
        1.0,
        0.9999807476997375,
        1.0
      ],
      "min": [
        -1.0,
        -1.0,
        -1.0
      ]
    },
    {
      "componentType": 5125,
      "type": "SCALAR",
      "bufferView": 33,
      "count": 1764,
      "max": [
        1763
      ],
      "min": [
        0
      ]
    },
    {
      "componentType": 5126,
      "type": "VEC3",
      "byteOffset": 0,
      "bufferView": 34,
      "count": 1764,
      "max": [
        7.160837650299072,
        2.4129011631011963,
        4.55895471572876
      ],
      "min": [
        -5.898566246032715,
        -0.42341944575309753,
        -6.005814552307129
      ]
    },
    {
      "componentType": 5126,
      "count": 1764,
      "type": "VEC3",
      "byteOffset": 0,
      "bufferView": 35,
      "max": [
        1.0,
        1.0,
        1.0
      ],
      "min": [
        -1.0,
        -1.0,
        -1.0
      ]
    },
    {
      "componentType": 5125,
      "type": "SCALAR",
      "bufferView": 36,
      "count": 1473,
      "max": [
        1472
      ],
      "min": [
        0
      ]
    },
    {
      "componentType": 5126,
      "type": "VEC3",
      "byteOffset": 0,
      "bufferView": 37,
      "count": 1473,
      "max": [
        7.097935676574707,
        3.546682119369507,
        5.939792156219482
      ],
      "min": [
        -7.097935676574707,
        -1.9306412935256958,
        -7.345050811767578
      ]
    },
    {
      "componentType": 5126,
      "count": 1473,
      "type": "VEC3",
      "byteOffset": 0,
      "bufferView": 38,
      "max": [
        1.0,
        1.0,
        1.0
      ],
      "min": [
        -1.0,
        -0.9941344261169434,
        -1.0
      ]
    },
    {
      "componentType": 5125,
      "type": "SCALAR",
      "bufferView": 39,
      "count": 15984,
      "max": [
        15983
      ],
      "min": [
        0
      ]
    },
    {
      "componentType": 5126,
      "type": "VEC3",
      "byteOffset": 0,
      "bufferView": 40,
      "count": 15984,
      "max": [
        7.072230339050293,
        0.6361712217330933,
        6.170100688934326
      ],
      "min": [
        -7.072230339050293,
        -2.0,
        -3.87758469581604
      ]
    },
    {
      "componentType": 5126,
      "count": 15984,
      "type": "VEC3",
      "byteOffset": 0,
      "bufferView": 41,
      "max": [
        1.0,
        1.0,
        1.0
      ],
      "min": [
        -1.0,
        -1.0,
        -1.0
      ]
    },
    {
      "componentType": 5125,
      "type": "SCALAR",
      "bufferView": 42,
      "count": 7992,
      "max": [
        7991
      ],
      "min": [
        0
      ]
    },
    {
      "componentType": 5126,
      "type": "VEC3",
      "byteOffset": 0,
      "bufferView": 43,
      "count": 7992,
      "max": [
        7.182427883148193,
        2.7576093673706055,
        6.800774574279785
      ],
      "min": [
        -7.182427883148193,
        -0.796992838382721,
        -6.809545516967773
      ]
    },
    {
      "componentType": 5126,
      "count": 7992,
      "type": "VEC3",
      "byteOffset": 0,
      "bufferView": 44,
      "max": [
        1.0,
        1.0,
        1.0
      ],
      "min": [
        -1.0,
        -1.0,
        -1.0
      ]
    },
    {
      "componentType": 5125,
      "type": "SCALAR",
      "bufferView": 45,
      "count": 819,
      "max": [
        818
      ],
      "min": [
        0
      ]
    },
    {
      "componentType": 5126,
      "type": "VEC3",
      "byteOffset": 0,
      "bufferView": 46,
      "count": 819,
      "max": [
        6.110377788543701,
        2.4886178970336914,
        4.689025402069092
      ],
      "min": [
        -6.110377311706543,
        -0.6739714741706848,
        -6.2382683753967285
      ]
    },
    {
      "componentType": 5126,
      "count": 819,
      "type": "VEC3",
      "byteOffset": 0,
      "bufferView": 47,
      "max": [
        0.9999836087226868,
        1.0,
        0.9306682348251343
      ],
      "min": [
        -1.0,
        -0.9997966289520264,
        -0.3287418484687805
      ]
    },
    {
      "componentType": 5125,
      "type": "SCALAR",
      "bufferView": 48,
      "count": 8841,
      "max": [
        8840
      ],
      "min": [
        0
      ]
    },
    {
      "componentType": 5126,
      "type": "VEC3",
      "byteOffset": 0,
      "bufferView": 49,
      "count": 8841,
      "max": [
        7.058919906616211,
        0.43646183609962463,
        8.195015907287598
      ],
      "min": [
        -7.0589213371276855,
        -1.4497302770614624,
        -3.7930781841278076
      ]
    },
    {
      "componentType": 5126,
      "count": 8841,
      "type": "VEC3",
      "byteOffset": 0,
      "bufferView": 50,
      "max": [
        1.0,
        1.0,
        1.0
      ],
      "min": [
        -1.0,
        -1.0,
        -1.0
      ]
    },
    {
      "componentType": 5125,
      "type": "SCALAR",
      "bufferView": 51,
      "count": 1470,
      "max": [
        1469
      ],
      "min": [
        0
      ]
    },
    {
      "componentType": 5126,
      "type": "VEC3",
      "byteOffset": 0,
      "bufferView": 52,
      "count": 1470,
      "max": [
        0.5210200548171997,
        0.9463198184967041,
        5.12744665145874
      ],
      "min": [
        -0.5210238099098206,
        0.1772424876689911,
        3.400423526763916
      ]
    },
    {
      "componentType": 5126,
      "count": 1470,
      "type": "VEC3",
      "byteOffset": 0,
      "bufferView": 53,
      "max": [
        0.9999990463256836,
        1.0,
        0.9997786283493042
      ],
      "min": [
        -0.9999990463256836,
        -1.0,
        -1.0
      ]
    },
    {
      "componentType": 5125,
      "type": "SCALAR",
      "bufferView": 54,
      "count": 10695,
      "max": [
        10694
      ],
      "min": [
        0
      ]
    },
    {
      "componentType": 5126,
      "type": "VEC3",
      "byteOffset": 0,
      "bufferView": 55,
      "count": 10695,
      "max": [
        6.995545387268066,
        0.4800838530063629,
        7.271766185760498
      ],
      "min": [
        -6.995547294616699,
        -0.9075959920883179,
        -3.782480001449585
      ]
    },
    {
      "componentType": 5126,
      "count": 10695,
      "type": "VEC3",
      "byteOffset": 0,
      "bufferView": 56,
      "max": [
        1.0,
        1.0,
        1.0
      ],
      "min": [
        -1.0,
        -1.0,
        -1.0
      ]
    },
    {
      "componentType": 5125,
      "type": "SCALAR",
      "bufferView": 57,
      "count": 2178,
      "max": [
        2177
      ],
      "min": [
        0
      ]
    },
    {
      "componentType": 5126,
      "type": "VEC3",
      "byteOffset": 0,
      "bufferView": 58,
      "count": 2178,
      "max": [
        0.5143997669219971,
        0.3833675980567932,
        5.235869407653809
      ],
      "min": [
        -0.5143997669219971,
        -0.3645685017108917,
        3.2489824295043945
      ]
    },
    {
      "componentType": 5126,
      "count": 2178,
      "type": "VEC3",
      "byteOffset": 0,
      "bufferView": 59,
      "max": [
        1.0,
        1.0,
        1.0
      ],
      "min": [
        -1.0,
        -1.0,
        -1.0
      ]
    },
    {
      "componentType": 5125,
      "type": "SCALAR",
      "bufferView": 60,
      "count": 3426,
      "max": [
        3425
      ],
      "min": [
        0
      ]
    },
    {
      "componentType": 5126,
      "type": "VEC3",
      "byteOffset": 0,
      "bufferView": 61,
      "count": 3426,
      "max": [
        0.5210200548171997,
        0.9237710237503052,
        5.265504360198975
      ],
      "min": [
        -0.5210238099098206,
        -0.3497570753097534,
        3.388427972793579
      ]
    },
    {
      "componentType": 5126,
      "count": 3426,
      "type": "VEC3",
      "byteOffset": 0,
      "bufferView": 62,
      "max": [
        1.0,
        1.0,
        0.9999999403953552
      ],
      "min": [
        -1.0,
        -1.0,
        -1.0
      ]
    },
    {
      "componentType": 5125,
      "type": "SCALAR",
      "bufferView": 63,
      "count": 13554,
      "max": [
        13553
      ],
      "min": [
        0
      ]
    },
    {
      "componentType": 5126,
      "type": "VEC3",
      "byteOffset": 0,
      "bufferView": 64,
      "count": 13554,
      "max": [
        0.47872501611709595,
        0.3833675980567932,
        4.311990737915039
      ],
      "min": [
        -0.5022116303443909,
        -0.072479248046875,
        3.5564961433410645
      ]
    },
    {
      "componentType": 5126,
      "count": 13554,
      "type": "VEC3",
      "byteOffset": 0,
      "bufferView": 65,
      "max": [
        1.0,
        1.0,
        1.0
      ],
      "min": [
        -1.0,
        -1.0,
        -1.0
      ]
    }
  ],
  "meshes": [
    {
      "name": "0_#98aeb5",
      "extras": {},
      "primitives": [
        {
          "attributes": {
            "POSITION": 1,
            "NORMAL": 2
          },
          "indices": 0,
          "mode": 4,
          "material": 0
        }
      ]
    },
    {
      "name": "1_#121212",
      "extras": {},
      "primitives": [
        {
          "attributes": {
            "POSITION": 4,
            "NORMAL": 5
          },
          "indices": 3,
          "mode": 4,
          "material": 1
        }
      ]
    },
    {
      "name": "2_#2b2b29",
      "extras": {},
      "primitives": [
        {
          "attributes": {
            "POSITION": 7,
            "NORMAL": 8
          },
          "indices": 6,
          "mode": 4,
          "material": 2
        }
      ]
    },
    {
      "name": "3_#4f7886",
      "extras": {},
      "primitives": [
        {
          "attributes": {
            "POSITION": 10,
            "NORMAL": 11
          },
          "indices": 9,
          "mode": 4,
          "material": 3
        }
      ]
    },
    {
      "name": "4_#c6c7c6",
      "extras": {},
      "primitives": [
        {
          "attributes": {
            "POSITION": 13,
            "NORMAL": 14
          },
          "indices": 12,
          "mode": 4,
          "material": 4
        }
      ]
    },
    {
      "name": "5_#ff0102",
      "extras": {},
      "primitives": [
        {
          "attributes": {
            "POSITION": 16,
            "NORMAL": 17
          },
          "indices": 15,
          "mode": 4,
          "material": 5
        }
      ]
    },
    {
      "name": "6_#b2b2b2",
      "extras": {},
      "primitives": [
        {
          "attributes": {
            "POSITION": 19,
            "NORMAL": 20
          },
          "indices": 18,
          "mode": 4,
          "material": 6
        }
      ]
    },
    {
      "name": "7_FX_FIRE",
      "extras": {},
      "primitives": [
        {
          "attributes": {
            "POSITION": 22,
            "NORMAL": 23
          },
          "indices": 21,
          "mode": 4,
          "material": 7
        }
      ]
    },
    {
      "name": "8_#4c5b4f",
      "extras": {},
      "primitives": [
        {
          "attributes": {
            "POSITION": 25,
            "NORMAL": 26
          },
          "indices": 24,
          "mode": 4,
          "material": 8
        }
      ]
    },
    {
      "name": "9_#a2a3a2",
      "extras": {},
      "primitives": [
        {
          "attributes": {
            "POSITION": 28,
            "NORMAL": 29
          },
          "indices": 27,
          "mode": 4,
          "material": 9
        }
      ]
    },
    {
      "name": "10_#ac9373",
      "extras": {},
      "primitives": [
        {
          "attributes": {
            "POSITION": 31,
            "NORMAL": 32
          },
          "indices": 30,
          "mode": 4,
          "material": 10
        }
      ]
    },
    {
      "name": "11_#876541",
      "extras": {},
      "primitives": [
        {
          "attributes": {
            "POSITION": 34,
            "NORMAL": 35
          },
          "indices": 33,
          "mode": 4,
          "material": 11
        }
      ]
    },
    {
      "name": "12_#08650c",
      "extras": {},
      "primitives": [
        {
          "attributes": {
            "POSITION": 37,
            "NORMAL": 38
          },
          "indices": 36,
          "mode": 4,
          "material": 12
        }
      ]
    },
    {
      "name": "13_#1e1e1d",
      "extras": {},
      "primitives": [
        {
          "attributes": {
            "POSITION": 40,
            "NORMAL": 41
          },
          "indices": 39,
          "mode": 4,
          "material": 13
        }
      ]
    },
    {
      "name": "14_#282828",
      "extras": {},
      "primitives": [
        {
          "attributes": {
            "POSITION": 43,
            "NORMAL": 44
          },
          "indices": 42,
          "mode": 4,
          "material": 14
        }
      ]
    },
    {
      "name": "15_#737e6d",
      "extras": {},
      "primitives": [
        {
          "attributes": {
            "POSITION": 46,
            "NORMAL": 47
          },
          "indices": 45,
          "mode": 4,
          "material": 15
        }
      ]
    },
    {
      "name": "16_#868686",
      "extras": {},
      "primitives": [
        {
          "attributes": {
            "POSITION": 49,
            "NORMAL": 50
          },
          "indices": 48,
          "mode": 4,
          "material": 16
        }
      ]
    },
    {
      "name": "17_GLASS",
      "extras": {},
      "primitives": [
        {
          "attributes": {
            "POSITION": 52,
            "NORMAL": 53
          },
          "indices": 51,
          "mode": 4,
          "material": 17
        }
      ]
    },
    {
      "name": "18_#3e3e3c",
      "extras": {},
      "primitives": [
        {
          "attributes": {
            "POSITION": 55,
            "NORMAL": 56
          },
          "indices": 54,
          "mode": 4,
          "material": 18
        }
      ]
    },
    {
      "name": "19_#6e9aa4",
      "extras": {},
      "primitives": [
        {
          "attributes": {
            "POSITION": 58,
            "NORMAL": 59
          },
          "indices": 57,
          "mode": 4,
          "material": 19
        }
      ]
    },
    {
      "name": "20_#87bec9",
      "extras": {},
      "primitives": [
        {
          "attributes": {
            "POSITION": 61,
            "NORMAL": 62
          },
          "indices": 60,
          "mode": 4,
          "material": 20
        }
      ]
    },
    {
      "name": "21_#eaebea",
      "extras": {},
      "primitives": [
        {
          "attributes": {
            "POSITION": 64,
            "NORMAL": 65
          },
          "indices": 63,
          "mode": 4,
          "material": 21
        }
      ]
    }
  ],
  "materials": [
    {
      "name": "#98aeb5",
      "pbrMetallicRoughness": {
        "baseColorFactor": [
          0.596078431372549,
          0.6823529411764706,
          0.7098039215686275,
          1.0
        ]
      }
    },
    {
      "name": "#121212",
      "pbrMetallicRoughness": {
        "baseColorFactor": [
          0.07058823529411765,
          0.07058823529411765,
          0.07058823529411765,
          1.0
        ]
      }
    },
    {
      "name": "#2b2b29",
      "pbrMetallicRoughness": {
        "baseColorFactor": [
          0.16862745098039217,
          0.16862745098039217,
          0.1607843137254902,
          1.0
        ]
      }
    },
    {
      "name": "#4f7886",
      "pbrMetallicRoughness": {
        "baseColorFactor": [
          0.30980392156862746,
          0.47058823529411764,
          0.5254901960784314,
          1.0
        ]
      }
    },
    {
      "name": "#c6c7c6",
      "pbrMetallicRoughness": {
        "baseColorFactor": [
          0.7764705882352941,
          0.7803921568627451,
          0.7764705882352941,
          1.0
        ]
      }
    },
    {
      "name": "#ff0102",
      "pbrMetallicRoughness": {
        "baseColorFactor": [
          1.0,
          0.00392156862745098,
          0.00784313725490196,
          1.0
        ]
      }
    },
    {
      "name": "#b2b2b2",
      "pbrMetallicRoughness": {
        "baseColorFactor": [
          0.6980392156862745,
          0.6980392156862745,
          0.6980392156862745,
          1.0
        ]
      }
    },
    {
      "name": "FX_FIRE",
      "pbrMetallicRoughness": {
        "baseColorFactor": [
          1.0,
          1.0,
          1.0,
          1.0
        ]
      }
    },
    {
      "name": "#4c5b4f",
      "pbrMetallicRoughness": {
        "baseColorFactor": [
          0.2980392156862745,
          0.3568627450980392,
          0.30980392156862746,
          1.0
        ]
      }
    },
    {
      "name": "#a2a3a2",
      "pbrMetallicRoughness": {
        "baseColorFactor": [
          0.6352941176470588,
          0.6392156862745098,
          0.6352941176470588,
          1.0
        ]
      }
    },
    {
      "name": "#ac9373",
      "pbrMetallicRoughness": {
        "baseColorFactor": [
          0.6745098039215687,
          0.5764705882352941,
          0.45098039215686275,
          1.0
        ]
      }
    },
    {
      "name": "#876541",
      "pbrMetallicRoughness": {
        "baseColorFactor": [
          0.5294117647058824,
          0.396078431372549,
          0.2549019607843137,
          1.0
        ]
      }
    },
    {
      "name": "#08650c",
      "pbrMetallicRoughness": {
        "baseColorFactor": [
          0.03137254901960784,
          0.396078431372549,
          0.047058823529411764,
          1.0
        ]
      }
    },
    {
      "name": "#1e1e1d",
      "pbrMetallicRoughness": {
        "baseColorFactor": [
          0.11764705882352941,
          0.11764705882352941,
          0.11372549019607843,
          1.0
        ]
      }
    },
    {
      "name": "#282828",
      "pbrMetallicRoughness": {
        "baseColorFactor": [
          0.1568627450980392,
          0.1568627450980392,
          0.1568627450980392,
          1.0
        ]
      }
    },
    {
      "name": "#737e6d",
      "pbrMetallicRoughness": {
        "baseColorFactor": [
          0.45098039215686275,
          0.49411764705882355,
          0.42745098039215684,
          1.0
        ]
      }
    },
    {
      "name": "#868686",
      "pbrMetallicRoughness": {
        "baseColorFactor": [
          0.5254901960784314,
          0.5254901960784314,
          0.5254901960784314,
          1.0
        ]
      }
    },
    {
      "name": "GLASS",
      "pbrMetallicRoughness": {
        "baseColorFactor": [
          1.0,
          1.0,
          1.0,
          1.0
        ]
      }
    },
    {
      "name": "#3e3e3c",
      "pbrMetallicRoughness": {
        "baseColorFactor": [
          0.24313725490196078,
          0.24313725490196078,
          0.23529411764705882,
          1.0
        ]
      }
    },
    {
      "name": "#6e9aa4",
      "pbrMetallicRoughness": {
        "baseColorFactor": [
          0.43137254901960786,
          0.6039215686274509,
          0.6431372549019608,
          1.0
        ]
      }
    },
    {
      "name": "#87bec9",
      "pbrMetallicRoughness": {
        "baseColorFactor": [
          0.5294117647058824,
          0.7450980392156863,
          0.788235294117647,
          1.0
        ]
      }
    },
    {
      "name": "#eaebea",
      "pbrMetallicRoughness": {
        "baseColorFactor": [
          0.9176470588235294,
          0.9215686274509803,
          0.9176470588235294,
          1.0
        ]
      }
    }
  ],
  "nodes": [
    {
      "name": "0_0_#98aeb5",
      "mesh": 0
    },
    {
      "name": "0_1_#121212",
      "mesh": 1
    },
    {
      "name": "0_2_#2b2b29",
      "mesh": 2
    },
    {
      "name": "0_3_#4f7886",
      "mesh": 3
    },
    {
      "name": "0_4_#c6c7c6",
      "mesh": 4
    },
    {
      "name": "0_5_#ff0102",
      "mesh": 5
    },
    {
      "name": "0_6_#b2b2b2",
      "mesh": 6
    },
    {
      "name": "0_7_FX_FIRE",
      "mesh": 7
    },
    {
      "name": "0_8_#4c5b4f",
      "mesh": 8
    },
    {
      "name": "0_9_#a2a3a2",
      "mesh": 9
    },
    {
      "name": "0_10_#ac9373",
      "mesh": 10
    },
    {
      "name": "0_11_#876541",
      "mesh": 11
    },
    {
      "name": "0_12_#08650c",
      "mesh": 12
    },
    {
      "name": "0_13_#1e1e1d",
      "mesh": 13
    },
    {
      "name": "0_14_#282828",
      "mesh": 14
    },
    {
      "name": "0_15_#737e6d",
      "mesh": 15
    },
    {
      "name": "0_16_#868686",
      "mesh": 16
    },
    {
      "name": "0_17_GLASS",
      "mesh": 17
    },
    {
      "name": "0_18_#3e3e3c",
      "mesh": 18
    },
    {
      "name": "0_19_#6e9aa4",
      "mesh": 19
    },
    {
      "name": "0_20_#87bec9",
      "mesh": 20
    },
    {
      "name": "0_21_#eaebea",
      "mesh": 21
    }
  ],
  "buffers": [
    {
      "uri": "cold_war_planes_su_25k_czaf_static_buffer_0.bin",
      "byteLength": 25992
    },
    {
      "uri": "cold_war_planes_su_25k_czaf_static_buffer_1.bin",
      "byteLength": 77976
    },
    {
      "uri": "cold_war_planes_su_25k_czaf_static_buffer_2.bin",
      "byteLength": 77976
    },
    {
      "uri": "cold_war_planes_su_25k_czaf_static_buffer_3.bin",
      "byteLength": 552
    },
    {
      "uri": "cold_war_planes_su_25k_czaf_static_buffer_4.bin",
      "byteLength": 1656
    },
    {
      "uri": "cold_war_planes_su_25k_czaf_static_buffer_5.bin",
      "byteLength": 1656
    },
    {
      "uri": "cold_war_planes_su_25k_czaf_static_buffer_6.bin",
      "byteLength": 384
    },
    {
      "uri": "cold_war_planes_su_25k_czaf_static_buffer_7.bin",
      "byteLength": 1152
    },
    {
      "uri": "cold_war_planes_su_25k_czaf_static_buffer_8.bin",
      "byteLength": 1152
    },
    {
      "uri": "cold_war_planes_su_25k_czaf_static_buffer_9.bin",
      "byteLength": 1944
    },
    {
      "uri": "cold_war_planes_su_25k_czaf_static_buffer_10.bin",
      "byteLength": 5832
    },
    {
      "uri": "cold_war_planes_su_25k_czaf_static_buffer_11.bin",
      "byteLength": 5832
    },
    {
      "uri": "cold_war_planes_su_25k_czaf_static_buffer_12.bin",
      "byteLength": 122640
    },
    {
      "uri": "cold_war_planes_su_25k_czaf_static_buffer_13.bin",
      "byteLength": 367920
    },
    {
      "uri": "cold_war_planes_su_25k_czaf_static_buffer_14.bin",
      "byteLength": 367920
    },
    {
      "uri": "cold_war_planes_su_25k_czaf_static_buffer_15.bin",
      "byteLength": 144
    },
    {
      "uri": "cold_war_planes_su_25k_czaf_static_buffer_16.bin",
      "byteLength": 432
    },
    {
      "uri": "cold_war_planes_su_25k_czaf_static_buffer_17.bin",
      "byteLength": 432
    },
    {
      "uri": "cold_war_planes_su_25k_czaf_static_buffer_18.bin",
      "byteLength": 12144
    },
    {
      "uri": "cold_war_planes_su_25k_czaf_static_buffer_19.bin",
      "byteLength": 36432
    },
    {
      "uri": "cold_war_planes_su_25k_czaf_static_buffer_20.bin",
      "byteLength": 36432
    },
    {
      "uri": "cold_war_planes_su_25k_czaf_static_buffer_21.bin",
      "byteLength": 528
    },
    {
      "uri": "cold_war_planes_su_25k_czaf_static_buffer_22.bin",
      "byteLength": 1584
    },
    {
      "uri": "cold_war_planes_su_25k_czaf_static_buffer_23.bin",
      "byteLength": 1584
    },
    {
      "uri": "cold_war_planes_su_25k_czaf_static_buffer_24.bin",
      "byteLength": 25920
    },
    {
      "uri": "cold_war_planes_su_25k_czaf_static_buffer_25.bin",
      "byteLength": 77760
    },
    {
      "uri": "cold_war_planes_su_25k_czaf_static_buffer_26.bin",
      "byteLength": 77760
    },
    {
      "uri": "cold_war_planes_su_25k_czaf_static_buffer_27.bin",
      "byteLength": 7656
    },
    {
      "uri": "cold_war_planes_su_25k_czaf_static_buffer_28.bin",
      "byteLength": 22968
    },
    {
      "uri": "cold_war_planes_su_25k_czaf_static_buffer_29.bin",
      "byteLength": 22968
    },
    {
      "uri": "cold_war_planes_su_25k_czaf_static_buffer_30.bin",
      "byteLength": 3300
    },
    {
      "uri": "cold_war_planes_su_25k_czaf_static_buffer_31.bin",
      "byteLength": 9900
    },
    {
      "uri": "cold_war_planes_su_25k_czaf_static_buffer_32.bin",
      "byteLength": 9900
    },
    {
      "uri": "cold_war_planes_su_25k_czaf_static_buffer_33.bin",
      "byteLength": 7056
    },
    {
      "uri": "cold_war_planes_su_25k_czaf_static_buffer_34.bin",
      "byteLength": 21168
    },
    {
      "uri": "cold_war_planes_su_25k_czaf_static_buffer_35.bin",
      "byteLength": 21168
    },
    {
      "uri": "cold_war_planes_su_25k_czaf_static_buffer_36.bin",
      "byteLength": 5892
    },
    {
      "uri": "cold_war_planes_su_25k_czaf_static_buffer_37.bin",
      "byteLength": 17676
    },
    {
      "uri": "cold_war_planes_su_25k_czaf_static_buffer_38.bin",
      "byteLength": 17676
    },
    {
      "uri": "cold_war_planes_su_25k_czaf_static_buffer_39.bin",
      "byteLength": 63936
    },
    {
      "uri": "cold_war_planes_su_25k_czaf_static_buffer_40.bin",
      "byteLength": 191808
    },
    {
      "uri": "cold_war_planes_su_25k_czaf_static_buffer_41.bin",
      "byteLength": 191808
    },
    {
      "uri": "cold_war_planes_su_25k_czaf_static_buffer_42.bin",
      "byteLength": 31968
    },
    {
      "uri": "cold_war_planes_su_25k_czaf_static_buffer_43.bin",
      "byteLength": 95904
    },
    {
      "uri": "cold_war_planes_su_25k_czaf_static_buffer_44.bin",
      "byteLength": 95904
    },
    {
      "uri": "cold_war_planes_su_25k_czaf_static_buffer_45.bin",
      "byteLength": 3276
    },
    {
      "uri": "cold_war_planes_su_25k_czaf_static_buffer_46.bin",
      "byteLength": 9828
    },
    {
      "uri": "cold_war_planes_su_25k_czaf_static_buffer_47.bin",
      "byteLength": 9828
    },
    {
      "uri": "cold_war_planes_su_25k_czaf_static_buffer_48.bin",
      "byteLength": 35364
    },
    {
      "uri": "cold_war_planes_su_25k_czaf_static_buffer_49.bin",
      "byteLength": 106092
    },
    {
      "uri": "cold_war_planes_su_25k_czaf_static_buffer_50.bin",
      "byteLength": 106092
    },
    {
      "uri": "cold_war_planes_su_25k_czaf_static_buffer_51.bin",
      "byteLength": 5880
    },
    {
      "uri": "cold_war_planes_su_25k_czaf_static_buffer_52.bin",
      "byteLength": 17640
    },
    {
      "uri": "cold_war_planes_su_25k_czaf_static_buffer_53.bin",
      "byteLength": 17640
    },
    {
      "uri": "cold_war_planes_su_25k_czaf_static_buffer_54.bin",
      "byteLength": 42780
    },
    {
      "uri": "cold_war_planes_su_25k_czaf_static_buffer_55.bin",
      "byteLength": 128340
    },
    {
      "uri": "cold_war_planes_su_25k_czaf_static_buffer_56.bin",
      "byteLength": 128340
    },
    {
      "uri": "cold_war_planes_su_25k_czaf_static_buffer_57.bin",
      "byteLength": 8712
    },
    {
      "uri": "cold_war_planes_su_25k_czaf_static_buffer_58.bin",
      "byteLength": 26136
    },
    {
      "uri": "cold_war_planes_su_25k_czaf_static_buffer_59.bin",
      "byteLength": 26136
    },
    {
      "uri": "cold_war_planes_su_25k_czaf_static_buffer_60.bin",
      "byteLength": 13704
    },
    {
      "uri": "cold_war_planes_su_25k_czaf_static_buffer_61.bin",
      "byteLength": 41112
    },
    {
      "uri": "cold_war_planes_su_25k_czaf_static_buffer_62.bin",
      "byteLength": 41112
    },
    {
      "uri": "cold_war_planes_su_25k_czaf_static_buffer_63.bin",
      "byteLength": 54216
    },
    {
      "uri": "cold_war_planes_su_25k_czaf_static_buffer_64.bin",
      "byteLength": 162648
    },
    {
      "uri": "cold_war_planes_su_25k_czaf_static_buffer_65.bin",
      "byteLength": 162648
    }
  ],
  "bufferViews": [
    {
      "buffer": 0,
      "byteOffset": 0,
      "byteLength": 25992
    },
    {
      "buffer": 1,
      "byteOffset": 0,
      "byteLength": 77976
    },
    {
      "buffer": 2,
      "byteOffset": 0,
      "byteLength": 77976
    },
    {
      "buffer": 3,
      "byteOffset": 0,
      "byteLength": 552
    },
    {
      "buffer": 4,
      "byteOffset": 0,
      "byteLength": 1656
    },
    {
      "buffer": 5,
      "byteOffset": 0,
      "byteLength": 1656
    },
    {
      "buffer": 6,
      "byteOffset": 0,
      "byteLength": 384
    },
    {
      "buffer": 7,
      "byteOffset": 0,
      "byteLength": 1152
    },
    {
      "buffer": 8,
      "byteOffset": 0,
      "byteLength": 1152
    },
    {
      "buffer": 9,
      "byteOffset": 0,
      "byteLength": 1944
    },
    {
      "buffer": 10,
      "byteOffset": 0,
      "byteLength": 5832
    },
    {
      "buffer": 11,
      "byteOffset": 0,
      "byteLength": 5832
    },
    {
      "buffer": 12,
      "byteOffset": 0,
      "byteLength": 122640
    },
    {
      "buffer": 13,
      "byteOffset": 0,
      "byteLength": 367920
    },
    {
      "buffer": 14,
      "byteOffset": 0,
      "byteLength": 367920
    },
    {
      "buffer": 15,
      "byteOffset": 0,
      "byteLength": 144
    },
    {
      "buffer": 16,
      "byteOffset": 0,
      "byteLength": 432
    },
    {
      "buffer": 17,
      "byteOffset": 0,
      "byteLength": 432
    },
    {
      "buffer": 18,
      "byteOffset": 0,
      "byteLength": 12144
    },
    {
      "buffer": 19,
      "byteOffset": 0,
      "byteLength": 36432
    },
    {
      "buffer": 20,
      "byteOffset": 0,
      "byteLength": 36432
    },
    {
      "buffer": 21,
      "byteOffset": 0,
      "byteLength": 528
    },
    {
      "buffer": 22,
      "byteOffset": 0,
      "byteLength": 1584
    },
    {
      "buffer": 23,
      "byteOffset": 0,
      "byteLength": 1584
    },
    {
      "buffer": 24,
      "byteOffset": 0,
      "byteLength": 25920
    },
    {
      "buffer": 25,
      "byteOffset": 0,
      "byteLength": 77760
    },
    {
      "buffer": 26,
      "byteOffset": 0,
      "byteLength": 77760
    },
    {
      "buffer": 27,
      "byteOffset": 0,
      "byteLength": 7656
    },
    {
      "buffer": 28,
      "byteOffset": 0,
      "byteLength": 22968
    },
    {
      "buffer": 29,
      "byteOffset": 0,
      "byteLength": 22968
    },
    {
      "buffer": 30,
      "byteOffset": 0,
      "byteLength": 3300
    },
    {
      "buffer": 31,
      "byteOffset": 0,
      "byteLength": 9900
    },
    {
      "buffer": 32,
      "byteOffset": 0,
      "byteLength": 9900
    },
    {
      "buffer": 33,
      "byteOffset": 0,
      "byteLength": 7056
    },
    {
      "buffer": 34,
      "byteOffset": 0,
      "byteLength": 21168
    },
    {
      "buffer": 35,
      "byteOffset": 0,
      "byteLength": 21168
    },
    {
      "buffer": 36,
      "byteOffset": 0,
      "byteLength": 5892
    },
    {
      "buffer": 37,
      "byteOffset": 0,
      "byteLength": 17676
    },
    {
      "buffer": 38,
      "byteOffset": 0,
      "byteLength": 17676
    },
    {
      "buffer": 39,
      "byteOffset": 0,
      "byteLength": 63936
    },
    {
      "buffer": 40,
      "byteOffset": 0,
      "byteLength": 191808
    },
    {
      "buffer": 41,
      "byteOffset": 0,
      "byteLength": 191808
    },
    {
      "buffer": 42,
      "byteOffset": 0,
      "byteLength": 31968
    },
    {
      "buffer": 43,
      "byteOffset": 0,
      "byteLength": 95904
    },
    {
      "buffer": 44,
      "byteOffset": 0,
      "byteLength": 95904
    },
    {
      "buffer": 45,
      "byteOffset": 0,
      "byteLength": 3276
    },
    {
      "buffer": 46,
      "byteOffset": 0,
      "byteLength": 9828
    },
    {
      "buffer": 47,
      "byteOffset": 0,
      "byteLength": 9828
    },
    {
      "buffer": 48,
      "byteOffset": 0,
      "byteLength": 35364
    },
    {
      "buffer": 49,
      "byteOffset": 0,
      "byteLength": 106092
    },
    {
      "buffer": 50,
      "byteOffset": 0,
      "byteLength": 106092
    },
    {
      "buffer": 51,
      "byteOffset": 0,
      "byteLength": 5880
    },
    {
      "buffer": 52,
      "byteOffset": 0,
      "byteLength": 17640
    },
    {
      "buffer": 53,
      "byteOffset": 0,
      "byteLength": 17640
    },
    {
      "buffer": 54,
      "byteOffset": 0,
      "byteLength": 42780
    },
    {
      "buffer": 55,
      "byteOffset": 0,
      "byteLength": 128340
    },
    {
      "buffer": 56,
      "byteOffset": 0,
      "byteLength": 128340
    },
    {
      "buffer": 57,
      "byteOffset": 0,
      "byteLength": 8712
    },
    {
      "buffer": 58,
      "byteOffset": 0,
      "byteLength": 26136
    },
    {
      "buffer": 59,
      "byteOffset": 0,
      "byteLength": 26136
    },
    {
      "buffer": 60,
      "byteOffset": 0,
      "byteLength": 13704
    },
    {
      "buffer": 61,
      "byteOffset": 0,
      "byteLength": 41112
    },
    {
      "buffer": 62,
      "byteOffset": 0,
      "byteLength": 41112
    },
    {
      "buffer": 63,
      "byteOffset": 0,
      "byteLength": 54216
    },
    {
      "buffer": 64,
      "byteOffset": 0,
      "byteLength": 162648
    },
    {
      "buffer": 65,
      "byteOffset": 0,
      "byteLength": 162648
    }
  ]
}