{
  "scene": 0,
  "scenes": [
    {
      "nodes": [
        0,
        1,
        2,
        3,
        4,
        5,
        6,
        7,
        8,
        9,
        10,
        11,
        12,
        13,
        14,
        15,
        16,
        17
      ],
      "name": "0"
    },
    {
      "name": "1",
      "nodes": []
    },
    {
      "name": "2",
      "nodes": []
    },
    {
      "name": "3",
      "nodes": []
    },
    {
      "name": "4",
      "nodes": []
    },
    {
      "name": "5",
      "nodes": []
    }
  ],
  "asset": {
    "version": "2.0",
    "generator": "https://github.com/mikedh/trimesh"
  },
  "accessors": [
    {
      "componentType": 5125,
      "type": "SCALAR",
      "bufferView": 0,
      "count": 8337,
      "max": [
        8336
      ],
      "min": [
        0
      ]
    },
    {
      "componentType": 5126,
      "type": "VEC3",
      "byteOffset": 0,
      "bufferView": 1,
      "count": 8337,
      "max": [
        2.9375650882720947,
        1.6312427520751953,
        4.004359722137451
      ],
      "min": [
        -2.9375648498535156,
        -1.9306412935256958,
        -5.368386745452881
      ]
    },
    {
      "componentType": 5126,
      "count": 8337,
      "type": "VEC3",
      "byteOffset": 0,
      "bufferView": 2,
      "max": [
        1.0,
        1.0,
        1.0
      ],
      "min": [
        -1.0,
        -1.0,
        -1.0
      ]
    },
    {
      "componentType": 5125,
      "type": "SCALAR",
      "bufferView": 3,
      "count": 1908,
      "max": [
        1907
      ],
      "min": [
        0
      ]
    },
    {
      "componentType": 5126,
      "type": "VEC3",
      "byteOffset": 0,
      "bufferView": 4,
      "count": 1908,
      "max": [
        3.6918206214904785,
        2.0160155296325684,
        6.986612319946289
      ],
      "min": [
        -3.6918208599090576,
        -0.593718409538269,
        -6.591742992401123
      ]
    },
    {
      "componentType": 5126,
      "count": 1908,
      "type": "VEC3",
      "byteOffset": 0,
      "bufferView": 5,
      "max": [
        1.0,
        1.0,
        1.0
      ],
      "min": [
        -1.0,
        -1.0,
        -1.0
      ]
    },
    {
      "componentType": 5125,
      "type": "SCALAR",
      "bufferView": 6,
      "count": 1620,
      "max": [
        1619
      ],
      "min": [
        0
      ]
    },
    {
      "componentType": 5126,
      "type": "VEC3",
      "byteOffset": 0,
      "bufferView": 7,
      "count": 1620,
      "max": [
        3.7641029357910156,
        2.0160155296325684,
        4.0640549659729
      ],
      "min": [
        -3.7641024589538574,
        -0.49124425649642944,
        -6.591742992401123
      ]
    },
    {
      "componentType": 5126,
      "count": 1620,
      "type": "VEC3",
      "byteOffset": 0,
      "bufferView": 8,
      "max": [
        1.0,
        1.0,
        1.0
      ],
      "min": [
        -1.0,
        -1.0,
        -1.0
      ]
    },
    {
      "componentType": 5125,
      "type": "SCALAR",
      "bufferView": 9,
      "count": 825,
      "max": [
        824
      ],
      "min": [
        0
      ]
    },
    {
      "componentType": 5126,
      "type": "VEC3",
      "byteOffset": 0,
      "bufferView": 10,
      "count": 825,
      "max": [
        2.637934684753418,
        1.7330468893051147,
        2.673776865005493
      ],
      "min": [
        -2.548657178878784,
        -0.5406887531280518,
        -6.379465579986572
      ]
    },
    {
      "componentType": 5126,
      "count": 825,
      "type": "VEC3",
      "byteOffset": 0,
      "bufferView": 11,
      "max": [
        1.0,
        0.9998486042022705,
        1.0
      ],
      "min": [
        -1.0,
        -0.8392534255981445,
        -1.0
      ]
    },
    {
      "componentType": 5125,
      "type": "SCALAR",
      "bufferView": 12,
      "count": 2025,
      "max": [
        2024
      ],
      "min": [
        0
      ]
    },
    {
      "componentType": 5126,
      "type": "VEC3",
      "byteOffset": 0,
      "bufferView": 13,
      "count": 2025,
      "max": [
        3.7641029357910156,
        0.39239999651908875,
        6.983366012573242
      ],
      "min": [
        -3.7641024589538574,
        -1.4851378202438354,
        -6.0767717361450195
      ]
    },
    {
      "componentType": 5126,
      "count": 2025,
      "type": "VEC3",
      "byteOffset": 0,
      "bufferView": 14,
      "max": [
        1.0,
        1.0,
        1.0
      ],
      "min": [
        -1.0,
        -1.0,
        -1.0
      ]
    },
    {
      "componentType": 5125,
      "type": "SCALAR",
      "bufferView": 15,
      "count": 18276,
      "max": [
        18275
      ],
      "min": [
        0
      ]
    },
    {
      "componentType": 5126,
      "type": "VEC3",
      "byteOffset": 0,
      "bufferView": 16,
      "count": 18276,
      "max": [
        3.5032894611358643,
        1.9001418352127075,
        4.967647552490234
      ],
      "min": [
        -3.5032894611358643,
        -2.0,
        -6.542079925537109
      ]
    },
    {
      "componentType": 5126,
      "count": 18276,
      "type": "VEC3",
      "byteOffset": 0,
      "bufferView": 17,
      "max": [
        1.0,
        1.0,
        1.0
      ],
      "min": [
        -1.0,
        -1.0,
        -1.0
      ]
    },
    {
      "componentType": 5125,
      "type": "SCALAR",
      "bufferView": 18,
      "count": 13671,
      "max": [
        13670
      ],
      "min": [
        0
      ]
    },
    {
      "componentType": 5126,
      "type": "VEC3",
      "byteOffset": 0,
      "bufferView": 19,
      "count": 13671,
      "max": [
        0.7622213363647461,
        2.2684032917022705,
        4.39594030380249
      ],
      "min": [
        -0.7622213363647461,
        -0.4670737087726593,
        -6.684071063995361
      ]
    },
    {
      "componentType": 5126,
      "count": 13671,
      "type": "VEC3",
      "byteOffset": 0,
      "bufferView": 20,
      "max": [
        1.0,
        1.0,
        1.0
      ],
      "min": [
        -1.0,
        -1.0,
        -1.0
      ]
    },
    {
      "componentType": 5125,
      "type": "SCALAR",
      "bufferView": 21,
      "count": 5022,
      "max": [
        5021
      ],
      "min": [
        0
      ]
    },
    {
      "componentType": 5126,
      "type": "VEC3",
      "byteOffset": 0,
      "bufferView": 22,
      "count": 5022,
      "max": [
        2.5214450359344482,
        1.6383758783340454,
        3.9922022819519043
      ],
      "min": [
        -2.7741172313690186,
        -0.5791211724281311,
        -5.4832763671875
      ]
    },
    {
      "componentType": 5126,
      "count": 5022,
      "type": "VEC3",
      "byteOffset": 0,
      "bufferView": 23,
      "max": [
        1.0,
        0.9999999403953552,
        1.0
      ],
      "min": [
        -1.0,
        -0.9999999403953552,
        -1.0
      ]
    },
    {
      "componentType": 5125,
      "type": "SCALAR",
      "bufferView": 24,
      "count": 2826,
      "max": [
        2825
      ],
      "min": [
        0
      ]
    },
    {
      "componentType": 5126,
      "type": "VEC3",
      "byteOffset": 0,
      "bufferView": 25,
      "count": 2826,
      "max": [
        2.612645149230957,
        1.9001415967941284,
        4.090656280517578
      ],
      "min": [
        -2.8653180599212646,
        -0.5791211724281311,
        -6.3524250984191895
      ]
    },
    {
      "componentType": 5126,
      "count": 2826,
      "type": "VEC3",
      "byteOffset": 0,
      "bufferView": 26,
      "max": [
        1.0,
        1.0,
        1.0
      ],
      "min": [
        -1.0,
        -1.0,
        -1.0
      ]
    },
    {
      "componentType": 5125,
      "type": "SCALAR",
      "bufferView": 27,
      "count": 7653,
      "max": [
        7652
      ],
      "min": [
        0
      ]
    },
    {
      "componentType": 5126,
      "type": "VEC3",
      "byteOffset": 0,
      "bufferView": 28,
      "count": 7653,
      "max": [
        0.6488362550735474,
        0.5257288813591003,
        8.180176734924316
      ],
      "min": [
        -0.6488362550735474,
        -0.5806939601898193,
        -6.497421741485596
      ]
    },
    {
      "componentType": 5126,
      "count": 7653,
      "type": "VEC3",
      "byteOffset": 0,
      "bufferView": 29,
      "max": [
        1.0,
        1.0,
        1.0
      ],
      "min": [
        -1.0,
        -1.0,
        -1.0
      ]
    },
    {
      "componentType": 5125,
      "type": "SCALAR",
      "bufferView": 30,
      "count": 162,
      "max": [
        161
      ],
      "min": [
        0
      ]
    },
    {
      "componentType": 5126,
      "type": "VEC3",
      "byteOffset": 0,
      "bufferView": 31,
      "count": 162,
      "max": [
        0.4834641218185425,
        0.56089186668396,
        4.0640549659729
      ],
      "min": [
        -0.4834641218185425,
        -0.5593785643577576,
        -6.442208766937256
      ]
    },
    {
      "componentType": 5126,
      "count": 162,
      "type": "VEC3",
      "byteOffset": 0,
      "bufferView": 32,
      "max": [
        1.0,
        0.9124134182929993,
        0.5000025629997253
      ],
      "min": [
        -0.9124133586883545,
        -0.9124134182929993,
        -0.9999992251396179
      ]
    },
    {
      "componentType": 5125,
      "type": "SCALAR",
      "bufferView": 33,
      "count": 165,
      "max": [
        164
      ],
      "min": [
        0
      ]
    },
    {
      "componentType": 5126,
      "type": "VEC3",
      "byteOffset": 0,
      "bufferView": 34,
      "count": 165,
      "max": [
        -0.04729254171252251,
        0.39944756031036377,
        4.0640549659729
      ],
      "min": [
        -0.29521140456199646,
        -0.08608365803956985,
        3.765188694000244
      ]
    },
    {
      "componentType": 5126,
      "count": 165,
      "type": "VEC3",
      "byteOffset": 0,
      "bufferView": 35,
      "max": [
        0.9965150952339172,
        0.9999999403953552,
        0.9047278165817261
      ],
      "min": [
        -1.0,
        -0.9999999403953552,
        -1.0
      ]
    },
    {
      "componentType": 5125,
      "type": "SCALAR",
      "bufferView": 36,
      "count": 10707,
      "max": [
        10706
      ],
      "min": [
        0
      ]
    },
    {
      "componentType": 5126,
      "type": "VEC3",
      "byteOffset": 0,
      "bufferView": 37,
      "count": 10707,
      "max": [
        0.6413170695304871,
        0.47090187668800354,
        4.470032215118408
      ],
      "min": [
        -0.6413170695304871,
        -0.5010746717453003,
        2.17682147026062
      ]
    },
    {
      "componentType": 5126,
      "count": 10707,
      "type": "VEC3",
      "byteOffset": 0,
      "bufferView": 38,
      "max": [
        1.0,
        1.0,
        1.0
      ],
      "min": [
        -1.0,
        -1.0,
        -1.0
      ]
    },
    {
      "componentType": 5125,
      "type": "SCALAR",
      "bufferView": 39,
      "count": 72,
      "max": [
        71
      ],
      "min": [
        0
      ]
    },
    {
      "componentType": 5126,
      "type": "VEC3",
      "byteOffset": 0,
      "bufferView": 40,
      "count": 72,
      "max": [
        0.36059463024139404,
        0.2897147536277771,
        4.470032215118408
      ],
      "min": [
        -0.36059463024139404,
        -0.28045418858528137,
        2.807979106903076
      ]
    },
    {
      "componentType": 5126,
      "count": 72,
      "type": "VEC3",
      "byteOffset": 0,
      "bufferView": 41,
      "max": [
        1.0,
        3.04672291735329e-17,
        7.622455768796499e-07
      ],
      "min": [
        -1.0,
        -1.0,
        -2.220446313948109e-16
      ]
    },
    {
      "componentType": 5125,
      "type": "SCALAR",
      "bufferView": 42,
      "count": 3,
      "max": [
        2
      ],
      "min": [
        0
      ]
    },
    {
      "componentType": 5126,
      "type": "VEC3",
      "byteOffset": 0,
      "bufferView": 43,
      "count": 3,
      "max": [
        0.05844449996948242,
        0.2960520386695862,
        4.0640549659729
      ],
      "min": [
        -0.05844449996948242,
        0.29466134309768677,
        4.061646461486816
      ]
    },
    {
      "componentType": 5126,
      "count": 3,
      "type": "VEC3",
      "byteOffset": 0,
      "bufferView": 44,
      "max": [
        0.0,
        -0.8660238981246948,
        0.5000025629997253
      ],
      "min": [
        0.0,
        -0.8660238981246948,
        0.5000025629997253
      ]
    },
    {
      "componentType": 5125,
      "type": "SCALAR",
      "bufferView": 45,
      "count": 60,
      "max": [
        59
      ],
      "min": [
        0
      ]
    },
    {
      "componentType": 5126,
      "type": "VEC3",
      "byteOffset": 0,
      "bufferView": 46,
      "count": 60,
      "max": [
        0.08363806456327438,
        0.5840290188789368,
        4.061646461486816
      ],
      "min": [
        -0.08363806456327438,
        0.29466134309768677,
        -6.48429536819458
      ]
    },
    {
      "componentType": 5126,
      "count": 60,
      "type": "VEC3",
      "byteOffset": 0,
      "bufferView": 47,
      "max": [
        1.0,
        0.8660262227058411,
        3.1185350985404484e-17
      ],
      "min": [
        -0.695750892162323,
        -0.7042070031166077,
        -0.49999862909317017
      ]
    },
    {
      "componentType": 5125,
      "type": "SCALAR",
      "bufferView": 48,
      "count": 66,
      "max": [
        65
      ],
      "min": [
        0
      ]
    },
    {
      "componentType": 5126,
      "type": "VEC3",
      "byteOffset": 0,
      "bufferView": 49,
      "count": 66,
      "max": [
        0.4380735158920288,
        0.36215898394584656,
        -5.107446193695068
      ],
      "min": [
        -0.4380735158920288,
        -0.5139880180358887,
        -6.335750579833984
      ]
    },
    {
      "componentType": 5126,
      "count": 66,
      "type": "VEC3",
      "byteOffset": 0,
      "bufferView": 50,
      "max": [
        0.9226648807525635,
        0.9226648807525635,
        -0.0512615405023098
      ],
      "min": [
        -0.922664999961853,
        -0.9226649403572083,
        -1.0
      ]
    },
    {
      "componentType": 5125,
      "type": "SCALAR",
      "bufferView": 51,
      "count": 192,
      "max": [
        191
      ],
      "min": [
        0
      ]
    },
    {
      "componentType": 5126,
      "type": "VEC3",
      "byteOffset": 0,
      "bufferView": 52,
      "count": 192,
      "max": [
        0.35427772998809814,
        0.6596416234970093,
        4.503601551055908
      ],
      "min": [
        -0.35427772998809814,
        0.1816316843032837,
        2.6104469299316406
      ]
    },
    {
      "componentType": 5126,
      "count": 192,
      "type": "VEC3",
      "byteOffset": 0,
      "bufferView": 53,
      "max": [
        0.9522094130516052,
        0.9679612517356873,
        0.486991286277771
      ],
      "min": [
        -0.9522094130516052,
        0.2587359547615051,
        -0.03441104665398598
      ]
    }
  ],
  "meshes": [
    {
      "name": "0_#c6c7c6",
      "extras": {},
      "primitives": [
        {
          "attributes": {
            "POSITION": 1,
            "NORMAL": 2
          },
          "indices": 0,
          "mode": 4,
          "material": 0
        }
      ]
    },
    {
      "name": "1_#2e3221",
      "extras": {},
      "primitives": [
        {
          "attributes": {
            "POSITION": 4,
            "NORMAL": 5
          },
          "indices": 3,
          "mode": 4,
          "material": 1
        }
      ]
    },
    {
      "name": "2_#526226",
      "extras": {},
      "primitives": [
        {
          "attributes": {
            "POSITION": 7,
            "NORMAL": 8
          },
          "indices": 6,
          "mode": 4,
          "material": 2
        }
      ]
    },
    {
      "name": "3_#b59679",
      "extras": {},
      "primitives": [
        {
          "attributes": {
            "POSITION": 10,
            "NORMAL": 11
          },
          "indices": 9,
          "mode": 4,
          "material": 3
        }
      ]
    },
    {
      "name": "4_#e9e5d6",
      "extras": {},
      "primitives": [
        {
          "attributes": {
            "POSITION": 13,
            "NORMAL": 14
          },
          "indices": 12,
          "mode": 4,
          "material": 4
        }
      ]
    },
    {
      "name": "5_#1e1e1d",
      "extras": {},
      "primitives": [
        {
          "attributes": {
            "POSITION": 16,
            "NORMAL": 17
          },
          "indices": 15,
          "mode": 4,
          "material": 5
        }
      ]
    },
    {
      "name": "6_#eaebea",
      "extras": {},
      "primitives": [
        {
          "attributes": {
            "POSITION": 19,
            "NORMAL": 20
          },
          "indices": 18,
          "mode": 4,
          "material": 6
        }
      ]
    },
    {
      "name": "7_#f9d313",
      "extras": {},
      "primitives": [
        {
          "attributes": {
            "POSITION": 22,
            "NORMAL": 23
          },
          "indices": 21,
          "mode": 4,
          "material": 7
        }
      ]
    },
    {
      "name": "8_#ff0102",
      "extras": {},
      "primitives": [
        {
          "attributes": {
            "POSITION": 25,
            "NORMAL": 26
          },
          "indices": 24,
          "mode": 4,
          "material": 8
        }
      ]
    },
    {
      "name": "9_#3e3e3c",
      "extras": {},
      "primitives": [
        {
          "attributes": {
            "POSITION": 28,
            "NORMAL": 29
          },
          "indices": 27,
          "mode": 4,
          "material": 9
        }
      ]
    },
    {
      "name": "10_#999a99",
      "extras": {},
      "primitives": [
        {
          "attributes": {
            "POSITION": 31,
            "NORMAL": 32
          },
          "indices": 30,
          "mode": 4,
          "material": 10
        }
      ]
    },
    {
      "name": "11_#08650c",
      "extras": {},
      "primitives": [
        {
          "attributes": {
            "POSITION": 34,
            "NORMAL": 35
          },
          "indices": 33,
          "mode": 4,
          "material": 11
        }
      ]
    },
    {
      "name": "12_#282828",
      "extras": {},
      "primitives": [
        {
          "attributes": {
            "POSITION": 37,
            "NORMAL": 38
          },
          "indices": 36,
          "mode": 4,
          "material": 12
        }
      ]
    },
    {
      "name": "13_#6e9aa4",
      "extras": {},
      "primitives": [
        {
          "attributes": {
            "POSITION": 40,
            "NORMAL": 41
          },
          "indices": 39,
          "mode": 4,
          "material": 13
        }
      ]
    },
    {
      "name": "14_#87bec9",
      "extras": {},
      "primitives": [
        {
          "attributes": {
            "POSITION": 43,
            "NORMAL": 44
          },
          "indices": 42,
          "mode": 4,
          "material": 14
        }
      ]
    },
    {
      "name": "15_#dbeff7",
      "extras": {},
      "primitives": [
        {
          "attributes": {
            "POSITION": 46,
            "NORMAL": 47
          },
          "indices": 45,
          "mode": 4,
          "material": 15
        }
      ]
    },
    {
      "name": "16_FX_FIRE",
      "extras": {},
      "primitives": [
        {
          "attributes": {
            "POSITION": 49,
            "NORMAL": 50
          },
          "indices": 48,
          "mode": 4,
          "material": 16
        }
      ]
    },
    {
      "name": "17_GLASS",
      "extras": {},
      "primitives": [
        {
          "attributes": {
            "POSITION": 52,
            "NORMAL": 53
          },
          "indices": 51,
          "mode": 4,
          "material": 17
        }
      ]
    }
  ],
  "materials": [
    {
      "name": "#c6c7c6",
      "pbrMetallicRoughness": {
        "baseColorFactor": [
          0.7764705882352941,
          0.7803921568627451,
          0.7764705882352941,
          1.0
        ]
      }
    },
    {
      "name": "#2e3221",
      "pbrMetallicRoughness": {
        "baseColorFactor": [
          0.1803921568627451,
          0.19607843137254902,
          0.12941176470588237,
          1.0
        ]
      }
    },
    {
      "name": "#526226",
      "pbrMetallicRoughness": {
        "baseColorFactor": [
          0.3215686274509804,
          0.3843137254901961,
          0.14901960784313725,
          1.0
        ]
      }
    },
    {
      "name": "#b59679",
      "pbrMetallicRoughness": {
        "baseColorFactor": [
          0.7098039215686275,
          0.5882352941176471,
          0.4745098039215686,
          1.0
        ]
      }
    },
    {
      "name": "#e9e5d6",
      "pbrMetallicRoughness": {
        "baseColorFactor": [
          0.9137254901960784,
          0.8980392156862745,
          0.8392156862745098,
          1.0
        ]
      }
    },
    {
      "name": "#1e1e1d",
      "pbrMetallicRoughness": {
        "baseColorFactor": [
          0.11764705882352941,
          0.11764705882352941,
          0.11372549019607843,
          1.0
        ]
      }
    },
    {
      "name": "#eaebea",
      "pbrMetallicRoughness": {
        "baseColorFactor": [
          0.9176470588235294,
          0.9215686274509803,
          0.9176470588235294,
          1.0
        ]
      }
    },
    {
      "name": "#f9d313",
      "pbrMetallicRoughness": {
        "baseColorFactor": [
          0.9764705882352941,
          0.8274509803921568,
          0.07450980392156863,
          1.0
        ]
      }
    },
    {
      "name": "#ff0102",
      "pbrMetallicRoughness": {
        "baseColorFactor": [
          1.0,
          0.00392156862745098,
          0.00784313725490196,
          1.0
        ]
      }
    },
    {
      "name": "#3e3e3c",
      "pbrMetallicRoughness": {
        "baseColorFactor": [
          0.24313725490196078,
          0.24313725490196078,
          0.23529411764705882,
          1.0
        ]
      }
    },
    {
      "name": "#999a99",
      "pbrMetallicRoughness": {
        "baseColorFactor": [
          0.6,
          0.6039215686274509,
          0.6,
          1.0
        ]
      }
    },
    {
      "name": "#08650c",
      "pbrMetallicRoughness": {
        "baseColorFactor": [
          0.03137254901960784,
          0.396078431372549,
          0.047058823529411764,
          1.0
        ]
      }
    },
    {
      "name": "#282828",
      "pbrMetallicRoughness": {
        "baseColorFactor": [
          0.1568627450980392,
          0.1568627450980392,
          0.1568627450980392,
          1.0
        ]
      }
    },
    {
      "name": "#6e9aa4",
      "pbrMetallicRoughness": {
        "baseColorFactor": [
          0.43137254901960786,
          0.6039215686274509,
          0.6431372549019608,
          1.0
        ]
      }
    },
    {
      "name": "#87bec9",
      "pbrMetallicRoughness": {
        "baseColorFactor": [
          0.5294117647058824,
          0.7450980392156863,
          0.788235294117647,
          1.0
        ]
      }
    },
    {
      "name": "#dbeff7",
      "pbrMetallicRoughness": {
        "baseColorFactor": [
          0.8588235294117647,
          0.9372549019607843,
          0.9686274509803922,
          1.0
        ]
      }
    },
    {
      "name": "FX_FIRE",
      "pbrMetallicRoughness": {
        "baseColorFactor": [
          1.0,
          1.0,
          1.0,
          1.0
        ]
      }
    },
    {
      "name": "GLASS",
      "pbrMetallicRoughness": {
        "baseColorFactor": [
          1.0,
          1.0,
          1.0,
          1.0
        ]
      }
    }
  ],
  "nodes": [
    {
      "name": "0_0_#c6c7c6",
      "mesh": 0
    },
    {
      "name": "0_1_#2e3221",
      "mesh": 1
    },
    {
      "name": "0_2_#526226",
      "mesh": 2
    },
    {
      "name": "0_3_#b59679",
      "mesh": 3
    },
    {
      "name": "0_4_#e9e5d6",
      "mesh": 4
    },
    {
      "name": "0_5_#1e1e1d",
      "mesh": 5
    },
    {
      "name": "0_6_#eaebea",
      "mesh": 6
    },
    {
      "name": "0_7_#f9d313",
      "mesh": 7
    },
    {
      "name": "0_8_#ff0102",
      "mesh": 8
    },
    {
      "name": "0_9_#3e3e3c",
      "mesh": 9
    },
    {
      "name": "0_10_#999a99",
      "mesh": 10
    },
    {
      "name": "0_11_#08650c",
      "mesh": 11
    },
    {
      "name": "0_12_#282828",
      "mesh": 12
    },
    {
      "name": "0_13_#6e9aa4",
      "mesh": 13
    },
    {
      "name": "0_14_#87bec9",
      "mesh": 14
    },
    {
      "name": "0_15_#dbeff7",
      "mesh": 15
    },
    {
      "name": "0_16_FX_FIRE",
      "mesh": 16
    },
    {
      "name": "0_17_GLASS",
      "mesh": 17
    }
  ],
  "buffers": [
    {
      "uri": "cold_war_planes_mirage_5ba_2nd_static_buffer_0.bin",
      "byteLength": 33348
    },
    {
      "uri": "cold_war_planes_mirage_5ba_2nd_static_buffer_1.bin",
      "byteLength": 100044
    },
    {
      "uri": "cold_war_planes_mirage_5ba_2nd_static_buffer_2.bin",
      "byteLength": 100044
    },
    {
      "uri": "cold_war_planes_mirage_5ba_2nd_static_buffer_3.bin",
      "byteLength": 7632
    },
    {
      "uri": "cold_war_planes_mirage_5ba_2nd_static_buffer_4.bin",
      "byteLength": 22896
    },
    {
      "uri": "cold_war_planes_mirage_5ba_2nd_static_buffer_5.bin",
      "byteLength": 22896
    },
    {
      "uri": "cold_war_planes_mirage_5ba_2nd_static_buffer_6.bin",
      "byteLength": 6480
    },
    {
      "uri": "cold_war_planes_mirage_5ba_2nd_static_buffer_7.bin",
      "byteLength": 19440
    },
    {
      "uri": "cold_war_planes_mirage_5ba_2nd_static_buffer_8.bin",
      "byteLength": 19440
    },
    {
      "uri": "cold_war_planes_mirage_5ba_2nd_static_buffer_9.bin",
      "byteLength": 3300
    },
    {
      "uri": "cold_war_planes_mirage_5ba_2nd_static_buffer_10.bin",
      "byteLength": 9900
    },
    {
      "uri": "cold_war_planes_mirage_5ba_2nd_static_buffer_11.bin",
      "byteLength": 9900
    },
    {
      "uri": "cold_war_planes_mirage_5ba_2nd_static_buffer_12.bin",
      "byteLength": 8100
    },
    {
      "uri": "cold_war_planes_mirage_5ba_2nd_static_buffer_13.bin",
      "byteLength": 24300
    },
    {
      "uri": "cold_war_planes_mirage_5ba_2nd_static_buffer_14.bin",
      "byteLength": 24300
    },
    {
      "uri": "cold_war_planes_mirage_5ba_2nd_static_buffer_15.bin",
      "byteLength": 73104
    },
    {
      "uri": "cold_war_planes_mirage_5ba_2nd_static_buffer_16.bin",
      "byteLength": 219312
    },
    {
      "uri": "cold_war_planes_mirage_5ba_2nd_static_buffer_17.bin",
      "byteLength": 219312
    },
    {
      "uri": "cold_war_planes_mirage_5ba_2nd_static_buffer_18.bin",
      "byteLength": 54684
    },
    {
      "uri": "cold_war_planes_mirage_5ba_2nd_static_buffer_19.bin",
      "byteLength": 164052
    },
    {
      "uri": "cold_war_planes_mirage_5ba_2nd_static_buffer_20.bin",
      "byteLength": 164052
    },
    {
      "uri": "cold_war_planes_mirage_5ba_2nd_static_buffer_21.bin",
      "byteLength": 20088
    },
    {
      "uri": "cold_war_planes_mirage_5ba_2nd_static_buffer_22.bin",
      "byteLength": 60264
    },
    {
      "uri": "cold_war_planes_mirage_5ba_2nd_static_buffer_23.bin",
      "byteLength": 60264
    },
    {
      "uri": "cold_war_planes_mirage_5ba_2nd_static_buffer_24.bin",
      "byteLength": 11304
    },
    {
      "uri": "cold_war_planes_mirage_5ba_2nd_static_buffer_25.bin",
      "byteLength": 33912
    },
    {
      "uri": "cold_war_planes_mirage_5ba_2nd_static_buffer_26.bin",
      "byteLength": 33912
    },
    {
      "uri": "cold_war_planes_mirage_5ba_2nd_static_buffer_27.bin",
      "byteLength": 30612
    },
    {
      "uri": "cold_war_planes_mirage_5ba_2nd_static_buffer_28.bin",
      "byteLength": 91836
    },
    {
      "uri": "cold_war_planes_mirage_5ba_2nd_static_buffer_29.bin",
      "byteLength": 91836
    },
    {
      "uri": "cold_war_planes_mirage_5ba_2nd_static_buffer_30.bin",
      "byteLength": 648
    },
    {
      "uri": "cold_war_planes_mirage_5ba_2nd_static_buffer_31.bin",
      "byteLength": 1944
    },
    {
      "uri": "cold_war_planes_mirage_5ba_2nd_static_buffer_32.bin",
      "byteLength": 1944
    },
    {
      "uri": "cold_war_planes_mirage_5ba_2nd_static_buffer_33.bin",
      "byteLength": 660
    },
    {
      "uri": "cold_war_planes_mirage_5ba_2nd_static_buffer_34.bin",
      "byteLength": 1980
    },
    {
      "uri": "cold_war_planes_mirage_5ba_2nd_static_buffer_35.bin",
      "byteLength": 1980
    },
    {
      "uri": "cold_war_planes_mirage_5ba_2nd_static_buffer_36.bin",
      "byteLength": 42828
    },
    {
      "uri": "cold_war_planes_mirage_5ba_2nd_static_buffer_37.bin",
      "byteLength": 128484
    },
    {
      "uri": "cold_war_planes_mirage_5ba_2nd_static_buffer_38.bin",
      "byteLength": 128484
    },
    {
      "uri": "cold_war_planes_mirage_5ba_2nd_static_buffer_39.bin",
      "byteLength": 288
    },
    {
      "uri": "cold_war_planes_mirage_5ba_2nd_static_buffer_40.bin",
      "byteLength": 864
    },
    {
      "uri": "cold_war_planes_mirage_5ba_2nd_static_buffer_41.bin",
      "byteLength": 864
    },
    {
      "uri": "cold_war_planes_mirage_5ba_2nd_static_buffer_42.bin",
      "byteLength": 12
    },
    {
      "uri": "cold_war_planes_mirage_5ba_2nd_static_buffer_43.bin",
      "byteLength": 36
    },
    {
      "uri": "cold_war_planes_mirage_5ba_2nd_static_buffer_44.bin",
      "byteLength": 36
    },
    {
      "uri": "cold_war_planes_mirage_5ba_2nd_static_buffer_45.bin",
      "byteLength": 240
    },
    {
      "uri": "cold_war_planes_mirage_5ba_2nd_static_buffer_46.bin",
      "byteLength": 720
    },
    {
      "uri": "cold_war_planes_mirage_5ba_2nd_static_buffer_47.bin",
      "byteLength": 720
    },
    {
      "uri": "cold_war_planes_mirage_5ba_2nd_static_buffer_48.bin",
      "byteLength": 264
    },
    {
      "uri": "cold_war_planes_mirage_5ba_2nd_static_buffer_49.bin",
      "byteLength": 792
    },
    {
      "uri": "cold_war_planes_mirage_5ba_2nd_static_buffer_50.bin",
      "byteLength": 792
    },
    {
      "uri": "cold_war_planes_mirage_5ba_2nd_static_buffer_51.bin",
      "byteLength": 768
    },
    {
      "uri": "cold_war_planes_mirage_5ba_2nd_static_buffer_52.bin",
      "byteLength": 2304
    },
    {
      "uri": "cold_war_planes_mirage_5ba_2nd_static_buffer_53.bin",
      "byteLength": 2304
    }
  ],
  "bufferViews": [
    {
      "buffer": 0,
      "byteOffset": 0,
      "byteLength": 33348
    },
    {
      "buffer": 1,
      "byteOffset": 0,
      "byteLength": 100044
    },
    {
      "buffer": 2,
      "byteOffset": 0,
      "byteLength": 100044
    },
    {
      "buffer": 3,
      "byteOffset": 0,
      "byteLength": 7632
    },
    {
      "buffer": 4,
      "byteOffset": 0,
      "byteLength": 22896
    },
    {
      "buffer": 5,
      "byteOffset": 0,
      "byteLength": 22896
    },
    {
      "buffer": 6,
      "byteOffset": 0,
      "byteLength": 6480
    },
    {
      "buffer": 7,
      "byteOffset": 0,
      "byteLength": 19440
    },
    {
      "buffer": 8,
      "byteOffset": 0,
      "byteLength": 19440
    },
    {
      "buffer": 9,
      "byteOffset": 0,
      "byteLength": 3300
    },
    {
      "buffer": 10,
      "byteOffset": 0,
      "byteLength": 9900
    },
    {
      "buffer": 11,
      "byteOffset": 0,
      "byteLength": 9900
    },
    {
      "buffer": 12,
      "byteOffset": 0,
      "byteLength": 8100
    },
    {
      "buffer": 13,
      "byteOffset": 0,
      "byteLength": 24300
    },
    {
      "buffer": 14,
      "byteOffset": 0,
      "byteLength": 24300
    },
    {
      "buffer": 15,
      "byteOffset": 0,
      "byteLength": 73104
    },
    {
      "buffer": 16,
      "byteOffset": 0,
      "byteLength": 219312
    },
    {
      "buffer": 17,
      "byteOffset": 0,
      "byteLength": 219312
    },
    {
      "buffer": 18,
      "byteOffset": 0,
      "byteLength": 54684
    },
    {
      "buffer": 19,
      "byteOffset": 0,
      "byteLength": 164052
    },
    {
      "buffer": 20,
      "byteOffset": 0,
      "byteLength": 164052
    },
    {
      "buffer": 21,
      "byteOffset": 0,
      "byteLength": 20088
    },
    {
      "buffer": 22,
      "byteOffset": 0,
      "byteLength": 60264
    },
    {
      "buffer": 23,
      "byteOffset": 0,
      "byteLength": 60264
    },
    {
      "buffer": 24,
      "byteOffset": 0,
      "byteLength": 11304
    },
    {
      "buffer": 25,
      "byteOffset": 0,
      "byteLength": 33912
    },
    {
      "buffer": 26,
      "byteOffset": 0,
      "byteLength": 33912
    },
    {
      "buffer": 27,
      "byteOffset": 0,
      "byteLength": 30612
    },
    {
      "buffer": 28,
      "byteOffset": 0,
      "byteLength": 91836
    },
    {
      "buffer": 29,
      "byteOffset": 0,
      "byteLength": 91836
    },
    {
      "buffer": 30,
      "byteOffset": 0,
      "byteLength": 648
    },
    {
      "buffer": 31,
      "byteOffset": 0,
      "byteLength": 1944
    },
    {
      "buffer": 32,
      "byteOffset": 0,
      "byteLength": 1944
    },
    {
      "buffer": 33,
      "byteOffset": 0,
      "byteLength": 660
    },
    {
      "buffer": 34,
      "byteOffset": 0,
      "byteLength": 1980
    },
    {
      "buffer": 35,
      "byteOffset": 0,
      "byteLength": 1980
    },
    {
      "buffer": 36,
      "byteOffset": 0,
      "byteLength": 42828
    },
    {
      "buffer": 37,
      "byteOffset": 0,
      "byteLength": 128484
    },
    {
      "buffer": 38,
      "byteOffset": 0,
      "byteLength": 128484
    },
    {
      "buffer": 39,
      "byteOffset": 0,
      "byteLength": 288
    },
    {
      "buffer": 40,
      "byteOffset": 0,
      "byteLength": 864
    },
    {
      "buffer": 41,
      "byteOffset": 0,
      "byteLength": 864
    },
    {
      "buffer": 42,
      "byteOffset": 0,
      "byteLength": 12
    },
    {
      "buffer": 43,
      "byteOffset": 0,
      "byteLength": 36
    },
    {
      "buffer": 44,
      "byteOffset": 0,
      "byteLength": 36
    },
    {
      "buffer": 45,
      "byteOffset": 0,
      "byteLength": 240
    },
    {
      "buffer": 46,
      "byteOffset": 0,
      "byteLength": 720
    },
    {
      "buffer": 47,
      "byteOffset": 0,
      "byteLength": 720
    },
    {
      "buffer": 48,
      "byteOffset": 0,
      "byteLength": 264
    },
    {
      "buffer": 49,
      "byteOffset": 0,
      "byteLength": 792
    },
    {
      "buffer": 50,
      "byteOffset": 0,
      "byteLength": 792
    },
    {
      "buffer": 51,
      "byteOffset": 0,
      "byteLength": 768
    },
    {
      "buffer": 52,
      "byteOffset": 0,
      "byteLength": 2304
    },
    {
      "buffer": 53,
      "byteOffset": 0,
      "byteLength": 2304
    }
  ]
}