{
  "scene": 0,
  "scenes": [
    {
      "nodes": [
        0,
        1,
        2,
        3
      ],
      "name": "0"
    },
    {
      "name": "1",
      "nodes": []
    },
    {
      "name": "2",
      "nodes": []
    },
    {
      "name": "3",
      "nodes": []
    },
    {
      "name": "4",
      "nodes": []
    },
    {
      "name": "5",
      "nodes": []
    }
  ],
  "asset": {
    "version": "2.0",
    "generator": "https://github.com/mikedh/trimesh"
  },
  "accessors": [
    {
      "componentType": 5125,
      "type": "SCALAR",
      "bufferView": 0,
      "count": 18,
      "max": [
        17
      ],
      "min": [
        0
      ]
    },
    {
      "componentType": 5126,
      "type": "VEC3",
      "byteOffset": 0,
      "bufferView": 1,
      "count": 18,
      "max": [
        0.5742478966712952,
        0.04613811895251274,
        0.1647701859474182
      ],
      "min": [
        -0.786829948425293,
        -0.04325404390692711,
        -0.3924657106399536
      ]
    },
    {
      "componentType": 5126,
      "count": 18,
      "type": "VEC3",
      "byteOffset": 0,
      "bufferView": 2,
      "max": [
        0.9865798354148865,
        0.9981151819229126,
        0.9462443590164185
      ],
      "min": [
        -0.323452889919281,
        -0.998157262802124,
        0.02905484102666378
      ]
    },
    {
      "componentType": 5125,
      "type": "SCALAR",
      "bufferView": 3,
      "count": 9,
      "max": [
        8
      ],
      "min": [
        0
      ]
    },
    {
      "componentType": 5126,
      "type": "VEC3",
      "byteOffset": 0,
      "bufferView": 4,
      "count": 9,
      "max": [
        0.5742478966712952,
        0.04613811895251274,
        0.1647701859474182
      ],
      "min": [
        -0.679985761642456,
        -0.015189694240689278,
        -0.5574470162391663
      ]
    },
    {
      "componentType": 5126,
      "count": 9,
      "type": "VEC3",
      "byteOffset": 0,
      "bufferView": 5,
      "max": [
        -0.0326046347618103,
        0.998157262802124,
        -0.051176346838474274
      ],
      "min": [
        -0.032876599580049515,
        0.9980354309082031,
        -0.05333268269896507
      ]
    },
    {
      "componentType": 5125,
      "type": "SCALAR",
      "bufferView": 6,
      "count": 12,
      "max": [
        11
      ],
      "min": [
        0
      ]
    },
    {
      "componentType": 5126,
      "type": "VEC3",
      "byteOffset": 0,
      "bufferView": 7,
      "count": 12,
      "max": [
        -0.2439976930618286,
        -0.012183979153633118,
        -0.1647699922323227
      ],
      "min": [
        -0.786829948425293,
        -0.05672898143529892,
        -0.6668973565101624
      ]
    },
    {
      "componentType": 5126,
      "count": 12,
      "type": "VEC3",
      "byteOffset": 0,
      "bufferView": 8,
      "max": [
        -0.03218294307589531,
        0.9981073141098022,
        0.9462443590164185
      ],
      "min": [
        -1.0,
        -6.028953066561371e-06,
        -0.053604546934366226
      ]
    },
    {
      "componentType": 5125,
      "type": "SCALAR",
      "bufferView": 9,
      "count": 15,
      "max": [
        14
      ],
      "min": [
        0
      ]
    },
    {
      "componentType": 5126,
      "type": "VEC3",
      "byteOffset": 0,
      "bufferView": 10,
      "count": 15,
      "max": [
        0.5742478966712952,
        0.020580606535077095,
        0.1647701859474182
      ],
      "min": [
        -0.786829948425293,
        -0.05672898143529892,
        -0.6668973565101624
      ]
    },
    {
      "componentType": 5126,
      "count": 15,
      "type": "VEC3",
      "byteOffset": 0,
      "bufferView": 11,
      "max": [
        0.05934223532676697,
        -0.9972395300865173,
        -0.02905355393886566
      ],
      "min": [
        0.05168486386537552,
        -0.9981151223182678,
        -0.044629570096731186
      ]
    }
  ],
  "meshes": [
    {
      "name": "0_#42593d",
      "extras": {},
      "primitives": [
        {
          "attributes": {
            "POSITION": 1,
            "NORMAL": 2
          },
          "indices": 0,
          "mode": 4,
          "material": 0
        }
      ]
    },
    {
      "name": "1_#5f5249",
      "extras": {},
      "primitives": [
        {
          "attributes": {
            "POSITION": 4,
            "NORMAL": 5
          },
          "indices": 3,
          "mode": 4,
          "material": 1
        }
      ]
    },
    {
      "name": "2_#799670",
      "extras": {},
      "primitives": [
        {
          "attributes": {
            "POSITION": 7,
            "NORMAL": 8
          },
          "indices": 6,
          "mode": 4,
          "material": 2
        }
      ]
    },
    {
      "name": "3_#dbdfde",
      "extras": {},
      "primitives": [
        {
          "attributes": {
            "POSITION": 10,
            "NORMAL": 11
          },
          "indices": 9,
          "mode": 4,
          "material": 3
        }
      ]
    }
  ],
  "materials": [
    {
      "name": "#42593d",
      "pbrMetallicRoughness": {
        "baseColorFactor": [
          0.25882352941176473,
          0.34901960784313724,
          0.23921568627450981,
          1.0
        ]
      }
    },
    {
      "name": "#5f5249",
      "pbrMetallicRoughness": {
        "baseColorFactor": [
          0.37254901960784315,
          0.3215686274509804,
          0.28627450980392155,
          1.0
        ]
      }
    },
    {
      "name": "#799670",
      "pbrMetallicRoughness": {
        "baseColorFactor": [
          0.4745098039215686,
          0.5882352941176471,
          0.4392156862745098,
          1.0
        ]
      }
    },
    {
      "name": "#dbdfde",
      "pbrMetallicRoughness": {
        "baseColorFactor": [
          0.8588235294117647,
          0.8745098039215686,
          0.8705882352941177,
          1.0
        ]
      }
    }
  ],
  "nodes": [
    {
      "name": "0_0_#42593d",
      "mesh": 0
    },
    {
      "name": "0_1_#5f5249",
      "mesh": 1
    },
    {
      "name": "0_2_#799670",
      "mesh": 2
    },
    {
      "name": "0_3_#dbdfde",
      "mesh": 3
    }
  ],
  "buffers": [
    {
      "uri": "cold_war_planes_mig_29a_gdr_surf_aileronRight_buffer_0.bin",
      "byteLength": 72
    },
    {
      "uri": "cold_war_planes_mig_29a_gdr_surf_aileronRight_buffer_1.bin",
      "byteLength": 216
    },
    {
      "uri": "cold_war_planes_mig_29a_gdr_surf_aileronRight_buffer_2.bin",
      "byteLength": 216
    },
    {
      "uri": "cold_war_planes_mig_29a_gdr_surf_aileronRight_buffer_3.bin",
      "byteLength": 36
    },
    {
      "uri": "cold_war_planes_mig_29a_gdr_surf_aileronRight_buffer_4.bin",
      "byteLength": 108
    },
    {
      "uri": "cold_war_planes_mig_29a_gdr_surf_aileronRight_buffer_5.bin",
      "byteLength": 108
    },
    {
      "uri": "cold_war_planes_mig_29a_gdr_surf_aileronRight_buffer_6.bin",
      "byteLength": 48
    },
    {
      "uri": "cold_war_planes_mig_29a_gdr_surf_aileronRight_buffer_7.bin",
      "byteLength": 144
    },
    {
      "uri": "cold_war_planes_mig_29a_gdr_surf_aileronRight_buffer_8.bin",
      "byteLength": 144
    },
    {
      "uri": "cold_war_planes_mig_29a_gdr_surf_aileronRight_buffer_9.bin",
      "byteLength": 60
    },
    {
      "uri": "cold_war_planes_mig_29a_gdr_surf_aileronRight_buffer_10.bin",
      "byteLength": 180
    },
    {
      "uri": "cold_war_planes_mig_29a_gdr_surf_aileronRight_buffer_11.bin",
      "byteLength": 180
    }
  ],
  "bufferViews": [
    {
      "buffer": 0,
      "byteOffset": 0,
      "byteLength": 72
    },
    {
      "buffer": 1,
      "byteOffset": 0,
      "byteLength": 216
    },
    {
      "buffer": 2,
      "byteOffset": 0,
      "byteLength": 216
    },
    {
      "buffer": 3,
      "byteOffset": 0,
      "byteLength": 36
    },
    {
      "buffer": 4,
      "byteOffset": 0,
      "byteLength": 108
    },
    {
      "buffer": 5,
      "byteOffset": 0,
      "byteLength": 108
    },
    {
      "buffer": 6,
      "byteOffset": 0,
      "byteLength": 48
    },
    {
      "buffer": 7,
      "byteOffset": 0,
      "byteLength": 144
    },
    {
      "buffer": 8,
      "byteOffset": 0,
      "byteLength": 144
    },
    {
      "buffer": 9,
      "byteOffset": 0,
      "byteLength": 60
    },
    {
      "buffer": 10,
      "byteOffset": 0,
      "byteLength": 180
    },
    {
      "buffer": 11,
      "byteOffset": 0,
      "byteLength": 180
    }
  ]
}