{
  "scene": 0,
  "scenes": [
    {
      "nodes": [
        0,
        1,
        2
      ],
      "name": "0"
    },
    {
      "name": "1",
      "nodes": []
    },
    {
      "name": "2",
      "nodes": []
    },
    {
      "name": "3",
      "nodes": []
    },
    {
      "name": "4",
      "nodes": []
    },
    {
      "name": "5",
      "nodes": []
    }
  ],
  "asset": {
    "version": "2.0",
    "generator": "https://github.com/mikedh/trimesh"
  },
  "accessors": [
    {
      "componentType": 5125,
      "type": "SCALAR",
      "bufferView": 0,
      "count": 18,
      "max": [
        17
      ],
      "min": [
        0
      ]
    },
    {
      "componentType": 5126,
      "type": "VEC3",
      "byteOffset": 0,
      "bufferView": 1,
      "count": 18,
      "max": [
        0.11262472718954086,
        0.06476248055696487,
        0.9022819399833679
      ],
      "min": [
        -1.2392224073410034,
        -0.10833984613418579,
        -0.045206036418676376
      ]
    },
    {
      "componentType": 5126,
      "count": 18,
      "type": "VEC3",
      "byteOffset": 0,
      "bufferView": 2,
      "max": [
        0.41357678174972534,
        0.984308123588562,
        0.9104692935943604
      ],
      "min": [
        -1.0,
        -3.6875863429486344e-07,
        2.476982081134338e-05
      ]
    },
    {
      "componentType": 5125,
      "type": "SCALAR",
      "bufferView": 3,
      "count": 27,
      "max": [
        26
      ],
      "min": [
        0
      ]
    },
    {
      "componentType": 5126,
      "type": "VEC3",
      "byteOffset": 0,
      "bufferView": 4,
      "count": 27,
      "max": [
        1.3494162559509277,
        0.06476248055696487,
        0.4974025785923004
      ],
      "min": [
        -1.2392224073410034,
        -0.1605720967054367,
        -0.49740341305732727
      ]
    },
    {
      "componentType": 5126,
      "count": 27,
      "type": "VEC3",
      "byteOffset": 0,
      "bufferView": 5,
      "max": [
        0.8971553444862366,
        0.995344877243042,
        0.9104692935943604
      ],
      "min": [
        -0.37249696254730225,
        -1.7911952454596758e-06,
        -0.9280334115028381
      ]
    },
    {
      "componentType": 5125,
      "type": "SCALAR",
      "bufferView": 6,
      "count": 9,
      "max": [
        8
      ],
      "min": [
        0
      ]
    },
    {
      "componentType": 5126,
      "type": "VEC3",
      "byteOffset": 0,
      "bufferView": 7,
      "count": 9,
      "max": [
        1.3494162559509277,
        -0.07283921539783478,
        0.9022819399833679
      ],
      "min": [
        -1.2392222881317139,
        -0.1605720967054367,
        -0.49740341305732727
      ]
    },
    {
      "componentType": 5126,
      "count": 9,
      "type": "VEC3",
      "byteOffset": 0,
      "bufferView": 8,
      "max": [
        -0.0018460077699273825,
        -0.9975713491439819,
        0.0696272924542427
      ],
      "min": [
        -0.012543329037725925,
        -0.9993483424186707,
        0.03384571895003319
      ]
    }
  ],
  "meshes": [
    {
      "name": "0_#39372e",
      "extras": {},
      "primitives": [
        {
          "attributes": {
            "POSITION": 1,
            "NORMAL": 2
          },
          "indices": 0,
          "mode": 4,
          "material": 0
        }
      ]
    },
    {
      "name": "1_#4c5b4f",
      "extras": {},
      "primitives": [
        {
          "attributes": {
            "POSITION": 4,
            "NORMAL": 5
          },
          "indices": 3,
          "mode": 4,
          "material": 1
        }
      ]
    },
    {
      "name": "2_#dbeff7",
      "extras": {},
      "primitives": [
        {
          "attributes": {
            "POSITION": 7,
            "NORMAL": 8
          },
          "indices": 6,
          "mode": 4,
          "material": 2
        }
      ]
    }
  ],
  "materials": [
    {
      "name": "#39372e",
      "pbrMetallicRoughness": {
        "baseColorFactor": [
          0.2235294117647059,
          0.21568627450980393,
          0.1803921568627451,
          1.0
        ]
      }
    },
    {
      "name": "#4c5b4f",
      "pbrMetallicRoughness": {
        "baseColorFactor": [
          0.2980392156862745,
          0.3568627450980392,
          0.30980392156862746,
          1.0
        ]
      }
    },
    {
      "name": "#dbeff7",
      "pbrMetallicRoughness": {
        "baseColorFactor": [
          0.8588235294117647,
          0.9372549019607843,
          0.9686274509803922,
          1.0
        ]
      }
    }
  ],
  "nodes": [
    {
      "name": "0_0_#39372e",
      "mesh": 0
    },
    {
      "name": "0_1_#4c5b4f",
      "mesh": 1
    },
    {
      "name": "0_2_#dbeff7",
      "mesh": 2
    }
  ],
  "buffers": [
    {
      "uri": "cold_war_planes_su_25_vvs_surf_slatLeft_buffer_0.bin",
      "byteLength": 72
    },
    {
      "uri": "cold_war_planes_su_25_vvs_surf_slatLeft_buffer_1.bin",
      "byteLength": 216
    },
    {
      "uri": "cold_war_planes_su_25_vvs_surf_slatLeft_buffer_2.bin",
      "byteLength": 216
    },
    {
      "uri": "cold_war_planes_su_25_vvs_surf_slatLeft_buffer_3.bin",
      "byteLength": 108
    },
    {
      "uri": "cold_war_planes_su_25_vvs_surf_slatLeft_buffer_4.bin",
      "byteLength": 324
    },
    {
      "uri": "cold_war_planes_su_25_vvs_surf_slatLeft_buffer_5.bin",
      "byteLength": 324
    },
    {
      "uri": "cold_war_planes_su_25_vvs_surf_slatLeft_buffer_6.bin",
      "byteLength": 36
    },
    {
      "uri": "cold_war_planes_su_25_vvs_surf_slatLeft_buffer_7.bin",
      "byteLength": 108
    },
    {
      "uri": "cold_war_planes_su_25_vvs_surf_slatLeft_buffer_8.bin",
      "byteLength": 108
    }
  ],
  "bufferViews": [
    {
      "buffer": 0,
      "byteOffset": 0,
      "byteLength": 72
    },
    {
      "buffer": 1,
      "byteOffset": 0,
      "byteLength": 216
    },
    {
      "buffer": 2,
      "byteOffset": 0,
      "byteLength": 216
    },
    {
      "buffer": 3,
      "byteOffset": 0,
      "byteLength": 108
    },
    {
      "buffer": 4,
      "byteOffset": 0,
      "byteLength": 324
    },
    {
      "buffer": 5,
      "byteOffset": 0,
      "byteLength": 324
    },
    {
      "buffer": 6,
      "byteOffset": 0,
      "byteLength": 36
    },
    {
      "buffer": 7,
      "byteOffset": 0,
      "byteLength": 108
    },
    {
      "buffer": 8,
      "byteOffset": 0,
      "byteLength": 108
    }
  ]
}