{
  "scene": 0,
  "scenes": [
    {
      "nodes": [
        0,
        1
      ],
      "name": "0"
    },
    {
      "name": "1",
      "nodes": []
    },
    {
      "name": "2",
      "nodes": []
    },
    {
      "name": "3",
      "nodes": []
    },
    {
      "name": "4",
      "nodes": []
    },
    {
      "name": "5",
      "nodes": []
    }
  ],
  "asset": {
    "version": "2.0",
    "generator": "https://github.com/mikedh/trimesh"
  },
  "accessors": [
    {
      "componentType": 5125,
      "type": "SCALAR",
      "bufferView": 0,
      "count": 24,
      "max": [
        23
      ],
      "min": [
        0
      ]
    },
    {
      "componentType": 5126,
      "type": "VEC3",
      "byteOffset": 0,
      "bufferView": 1,
      "count": 24,
      "max": [
        0.9402976632118225,
        -1.1175671232876994e-07,
        -1.2988277120484781e-10
      ],
      "min": [
        -0.8510851860046387,
        -0.02934088371694088,
        -0.3281579315662384
      ]
    },
    {
      "componentType": 5126,
      "count": 24,
      "type": "VEC3",
      "byteOffset": 0,
      "bufferView": 2,
      "max": [
        0.0015031005023047328,
        0.996147096157074,
        -0.0876976028084755
      ],
      "min": [
        -7.48901243241562e-08,
        0.9958030581474304,
        -0.091509610414505
      ]
    },
    {
      "componentType": 5125,
      "type": "SCALAR",
      "bufferView": 3,
      "count": 54,
      "max": [
        53
      ],
      "min": [
        0
      ]
    },
    {
      "componentType": 5126,
      "type": "VEC3",
      "byteOffset": 0,
      "bufferView": 4,
      "count": 54,
      "max": [
        0.9402976632118225,
        -1.1175671232876994e-07,
        -1.2988277120484781e-10
      ],
      "min": [
        -0.9461631178855896,
        -0.15015721321105957,
        -0.8622488975524902
      ]
    },
    {
      "componentType": 5126,
      "count": 54,
      "type": "VEC3",
      "byteOffset": 0,
      "bufferView": 5,
      "max": [
        1.0,
        0.9960986375808716,
        1.0
      ],
      "min": [
        -0.9999768733978271,
        -0.9982365965843201,
        -0.0951349064707756
      ]
    }
  ],
  "meshes": [
    {
      "name": "0_#a7b1b2",
      "extras": {},
      "primitives": [
        {
          "attributes": {
            "POSITION": 1,
            "NORMAL": 2
          },
          "indices": 0,
          "mode": 4,
          "material": 0
        }
      ]
    },
    {
      "name": "1_#b2b4b2",
      "extras": {},
      "primitives": [
        {
          "attributes": {
            "POSITION": 4,
            "NORMAL": 5
          },
          "indices": 3,
          "mode": 4,
          "material": 1
        }
      ]
    }
  ],
  "materials": [
    {
      "name": "#a7b1b2",
      "pbrMetallicRoughness": {
        "baseColorFactor": [
          0.6549019607843137,
          0.6941176470588235,
          0.6980392156862745,
          1.0
        ]
      }
    },
    {
      "name": "#b2b4b2",
      "pbrMetallicRoughness": {
        "baseColorFactor": [
          0.6980392156862745,
          0.7058823529411765,
          0.6980392156862745,
          1.0
        ]
      }
    }
  ],
  "nodes": [
    {
      "name": "0_0_#a7b1b2",
      "mesh": 0
    },
    {
      "name": "0_1_#b2b4b2",
      "mesh": 1
    }
  ],
  "buffers": [
    {
      "uri": "cold_war_planes_f_15c_32nd_surf_flapLeft_buffer_0.bin",
      "byteLength": 96
    },
    {
      "uri": "cold_war_planes_f_15c_32nd_surf_flapLeft_buffer_1.bin",
      "byteLength": 288
    },
    {
      "uri": "cold_war_planes_f_15c_32nd_surf_flapLeft_buffer_2.bin",
      "byteLength": 288
    },
    {
      "uri": "cold_war_planes_f_15c_32nd_surf_flapLeft_buffer_3.bin",
      "byteLength": 216
    },
    {
      "uri": "cold_war_planes_f_15c_32nd_surf_flapLeft_buffer_4.bin",
      "byteLength": 648
    },
    {
      "uri": "cold_war_planes_f_15c_32nd_surf_flapLeft_buffer_5.bin",
      "byteLength": 648
    }
  ],
  "bufferViews": [
    {
      "buffer": 0,
      "byteOffset": 0,
      "byteLength": 96
    },
    {
      "buffer": 1,
      "byteOffset": 0,
      "byteLength": 288
    },
    {
      "buffer": 2,
      "byteOffset": 0,
      "byteLength": 288
    },
    {
      "buffer": 3,
      "byteOffset": 0,
      "byteLength": 216
    },
    {
      "buffer": 4,
      "byteOffset": 0,
      "byteLength": 648
    },
    {
      "buffer": 5,
      "byteOffset": 0,
      "byteLength": 648
    }
  ]
}