{
  "scene": 0,
  "scenes": [
    {
      "nodes": [
        0,
        1,
        2
      ],
      "name": "0"
    },
    {
      "name": "1",
      "nodes": []
    },
    {
      "name": "2",
      "nodes": []
    },
    {
      "name": "3",
      "nodes": []
    },
    {
      "name": "4",
      "nodes": []
    },
    {
      "name": "5",
      "nodes": []
    }
  ],
  "asset": {
    "version": "2.0",
    "generator": "https://github.com/mikedh/trimesh"
  },
  "accessors": [
    {
      "componentType": 5125,
      "type": "SCALAR",
      "bufferView": 0,
      "count": 12,
      "max": [
        11
      ],
      "min": [
        0
      ]
    },
    {
      "componentType": 5126,
      "type": "VEC3",
      "byteOffset": 0,
      "bufferView": 1,
      "count": 12,
      "max": [
        -0.3240532875061035,
        -0.02086036279797554,
        0.057993799448013306
      ],
      "min": [
        -1.5602879524230957,
        -0.21023063361644745,
        -1.3248711824417114
      ]
    },
    {
      "componentType": 5126,
      "count": 12,
      "type": "VEC3",
      "byteOffset": 0,
      "bufferView": 2,
      "max": [
        -0.2143101990222931,
        0.9603193998336792,
        0.18437688052654266
      ],
      "min": [
        -1.0,
        -9.591824223775802e-09,
        8.25161876605307e-08
      ]
    },
    {
      "componentType": 5125,
      "type": "SCALAR",
      "bufferView": 3,
      "count": 30,
      "max": [
        29
      ],
      "min": [
        0
      ]
    },
    {
      "componentType": 5126,
      "type": "VEC3",
      "byteOffset": 0,
      "bufferView": 4,
      "count": 30,
      "max": [
        1.5608162879943848,
        0.10044130682945251,
        1.8828461170196533
      ],
      "min": [
        -1.5602879524230957,
        -0.21023063361644745,
        -1.3248711824417114
      ]
    },
    {
      "componentType": 5126,
      "count": 30,
      "type": "VEC3",
      "byteOffset": 0,
      "bufferView": 5,
      "max": [
        0.6464681029319763,
        0.0196536798030138,
        0.1516617387533188
      ],
      "min": [
        -0.0859139934182167,
        -0.9893930554389954,
        -0.7634280323982239
      ]
    },
    {
      "componentType": 5125,
      "type": "SCALAR",
      "bufferView": 6,
      "count": 18,
      "max": [
        17
      ],
      "min": [
        0
      ]
    },
    {
      "componentType": 5126,
      "type": "VEC3",
      "byteOffset": 0,
      "bufferView": 7,
      "count": 18,
      "max": [
        1.5608162879943848,
        0.10044130682945251,
        1.8828461170196533
      ],
      "min": [
        -0.4105968475341797,
        -0.10242503136396408,
        -0.2745727598667145
      ]
    },
    {
      "componentType": 5126,
      "count": 18,
      "type": "VEC3",
      "byteOffset": 0,
      "bufferView": 8,
      "max": [
        0.9999954700469971,
        0.9615681767463684,
        0.18119944632053375
      ],
      "min": [
        -0.2153039574623108,
        0.0030134061817079782,
        4.115003321203403e-05
      ]
    }
  ],
  "meshes": [
    {
      "name": "0_#b5c8c2",
      "extras": {},
      "primitives": [
        {
          "attributes": {
            "POSITION": 1,
            "NORMAL": 2
          },
          "indices": 0,
          "mode": 4,
          "material": 0
        }
      ]
    },
    {
      "name": "1_#dbdfde",
      "extras": {},
      "primitives": [
        {
          "attributes": {
            "POSITION": 4,
            "NORMAL": 5
          },
          "indices": 3,
          "mode": 4,
          "material": 1
        }
      ]
    },
    {
      "name": "2_#e3e7e7",
      "extras": {},
      "primitives": [
        {
          "attributes": {
            "POSITION": 7,
            "NORMAL": 8
          },
          "indices": 6,
          "mode": 4,
          "material": 2
        }
      ]
    }
  ],
  "materials": [
    {
      "name": "#b5c8c2",
      "pbrMetallicRoughness": {
        "baseColorFactor": [
          0.7098039215686275,
          0.7843137254901961,
          0.7607843137254902,
          1.0
        ]
      }
    },
    {
      "name": "#dbdfde",
      "pbrMetallicRoughness": {
        "baseColorFactor": [
          0.8588235294117647,
          0.8745098039215686,
          0.8705882352941177,
          1.0
        ]
      }
    },
    {
      "name": "#e3e7e7",
      "pbrMetallicRoughness": {
        "baseColorFactor": [
          0.8901960784313725,
          0.9058823529411765,
          0.9058823529411765,
          1.0
        ]
      }
    }
  ],
  "nodes": [
    {
      "name": "0_0_#b5c8c2",
      "mesh": 0
    },
    {
      "name": "0_1_#dbdfde",
      "mesh": 1
    },
    {
      "name": "0_2_#e3e7e7",
      "mesh": 2
    }
  ],
  "buffers": [
    {
      "uri": "cold_war_planes_mig_29a_vvs_surf_slatRight_buffer_0.bin",
      "byteLength": 48
    },
    {
      "uri": "cold_war_planes_mig_29a_vvs_surf_slatRight_buffer_1.bin",
      "byteLength": 144
    },
    {
      "uri": "cold_war_planes_mig_29a_vvs_surf_slatRight_buffer_2.bin",
      "byteLength": 144
    },
    {
      "uri": "cold_war_planes_mig_29a_vvs_surf_slatRight_buffer_3.bin",
      "byteLength": 120
    },
    {
      "uri": "cold_war_planes_mig_29a_vvs_surf_slatRight_buffer_4.bin",
      "byteLength": 360
    },
    {
      "uri": "cold_war_planes_mig_29a_vvs_surf_slatRight_buffer_5.bin",
      "byteLength": 360
    },
    {
      "uri": "cold_war_planes_mig_29a_vvs_surf_slatRight_buffer_6.bin",
      "byteLength": 72
    },
    {
      "uri": "cold_war_planes_mig_29a_vvs_surf_slatRight_buffer_7.bin",
      "byteLength": 216
    },
    {
      "uri": "cold_war_planes_mig_29a_vvs_surf_slatRight_buffer_8.bin",
      "byteLength": 216
    }
  ],
  "bufferViews": [
    {
      "buffer": 0,
      "byteOffset": 0,
      "byteLength": 48
    },
    {
      "buffer": 1,
      "byteOffset": 0,
      "byteLength": 144
    },
    {
      "buffer": 2,
      "byteOffset": 0,
      "byteLength": 144
    },
    {
      "buffer": 3,
      "byteOffset": 0,
      "byteLength": 120
    },
    {
      "buffer": 4,
      "byteOffset": 0,
      "byteLength": 360
    },
    {
      "buffer": 5,
      "byteOffset": 0,
      "byteLength": 360
    },
    {
      "buffer": 6,
      "byteOffset": 0,
      "byteLength": 72
    },
    {
      "buffer": 7,
      "byteOffset": 0,
      "byteLength": 216
    },
    {
      "buffer": 8,
      "byteOffset": 0,
      "byteLength": 216
    }
  ]
}