{
  "scene": 0,
  "scenes": [
    {
      "nodes": [
        0,
        1
      ],
      "name": "0"
    },
    {
      "name": "1",
      "nodes": []
    },
    {
      "name": "2",
      "nodes": []
    },
    {
      "name": "3",
      "nodes": []
    },
    {
      "name": "4",
      "nodes": []
    },
    {
      "name": "5",
      "nodes": []
    }
  ],
  "asset": {
    "version": "2.0",
    "generator": "https://github.com/mikedh/trimesh"
  },
  "accessors": [
    {
      "componentType": 5125,
      "type": "SCALAR",
      "bufferView": 0,
      "count": 42,
      "max": [
        41
      ],
      "min": [
        0
      ]
    },
    {
      "componentType": 5126,
      "type": "VEC3",
      "byteOffset": 0,
      "bufferView": 1,
      "count": 42,
      "max": [
        1.371127963066101,
        0.1132543534040451,
        0.2809413969516754
      ],
      "min": [
        -1.3711285591125488,
        -0.1132541373372078,
        -0.6652806997299194
      ]
    },
    {
      "componentType": 5126,
      "count": 42,
      "type": "VEC3",
      "byteOffset": 0,
      "bufferView": 2,
      "max": [
        1.0,
        0.9894677996635437,
        0.9869057536125183
      ],
      "min": [
        -1.0,
        -0.9078490734100342,
        -0.9994900226593018
      ]
    },
    {
      "componentType": 5125,
      "type": "SCALAR",
      "bufferView": 3,
      "count": 6,
      "max": [
        5
      ],
      "min": [
        0
      ]
    },
    {
      "componentType": 5126,
      "type": "VEC3",
      "byteOffset": 0,
      "bufferView": 4,
      "count": 6,
      "max": [
        1.3711278438568115,
        -0.0474352203309536,
        0.23100680112838745
      ],
      "min": [
        -1.3711285591125488,
        -0.1132541373372078,
        -0.6652806997299194
      ]
    },
    {
      "componentType": 5126,
      "count": 6,
      "type": "VEC3",
      "byteOffset": 0,
      "bufferView": 5,
      "max": [
        -0.0017119444673880935,
        -0.9976820349693298,
        -0.06621631234884262
      ],
      "min": [
        -0.002306656213477254,
        -0.9978026151657104,
        -0.06802701205015182
      ]
    }
  ],
  "meshes": [
    {
      "name": "0_#686c73",
      "extras": {},
      "primitives": [
        {
          "attributes": {
            "POSITION": 1,
            "NORMAL": 2
          },
          "indices": 0,
          "mode": 4,
          "material": 0
        }
      ]
    },
    {
      "name": "1_#c6c7c6",
      "extras": {},
      "primitives": [
        {
          "attributes": {
            "POSITION": 4,
            "NORMAL": 5
          },
          "indices": 3,
          "mode": 4,
          "material": 1
        }
      ]
    }
  ],
  "materials": [
    {
      "name": "#686c73",
      "pbrMetallicRoughness": {
        "baseColorFactor": [
          0.40784313725490196,
          0.4235294117647059,
          0.45098039215686275,
          1.0
        ]
      }
    },
    {
      "name": "#c6c7c6",
      "pbrMetallicRoughness": {
        "baseColorFactor": [
          0.7764705882352941,
          0.7803921568627451,
          0.7764705882352941,
          1.0
        ]
      }
    }
  ],
  "nodes": [
    {
      "name": "0_0_#686c73",
      "mesh": 0
    },
    {
      "name": "0_1_#c6c7c6",
      "mesh": 1
    }
  ],
  "buffers": [
    {
      "uri": "cold_war_planes_f_16a_10_rnlaf_surf_aileronRight_buffer_0.bin",
      "byteLength": 168
    },
    {
      "uri": "cold_war_planes_f_16a_10_rnlaf_surf_aileronRight_buffer_1.bin",
      "byteLength": 504
    },
    {
      "uri": "cold_war_planes_f_16a_10_rnlaf_surf_aileronRight_buffer_2.bin",
      "byteLength": 504
    },
    {
      "uri": "cold_war_planes_f_16a_10_rnlaf_surf_aileronRight_buffer_3.bin",
      "byteLength": 24
    },
    {
      "uri": "cold_war_planes_f_16a_10_rnlaf_surf_aileronRight_buffer_4.bin",
      "byteLength": 72
    },
    {
      "uri": "cold_war_planes_f_16a_10_rnlaf_surf_aileronRight_buffer_5.bin",
      "byteLength": 72
    }
  ],
  "bufferViews": [
    {
      "buffer": 0,
      "byteOffset": 0,
      "byteLength": 168
    },
    {
      "buffer": 1,
      "byteOffset": 0,
      "byteLength": 504
    },
    {
      "buffer": 2,
      "byteOffset": 0,
      "byteLength": 504
    },
    {
      "buffer": 3,
      "byteOffset": 0,
      "byteLength": 24
    },
    {
      "buffer": 4,
      "byteOffset": 0,
      "byteLength": 72
    },
    {
      "buffer": 5,
      "byteOffset": 0,
      "byteLength": 72
    }
  ]
}