{
  "scene": 0,
  "scenes": [
    {
      "nodes": [
        0,
        1
      ],
      "name": "0"
    },
    {
      "name": "1",
      "nodes": []
    },
    {
      "name": "2",
      "nodes": []
    },
    {
      "name": "3",
      "nodes": []
    },
    {
      "name": "4",
      "nodes": []
    },
    {
      "name": "5",
      "nodes": []
    }
  ],
  "asset": {
    "version": "2.0",
    "generator": "https://github.com/mikedh/trimesh"
  },
  "accessors": [
    {
      "componentType": 5125,
      "type": "SCALAR",
      "bufferView": 0,
      "count": 60,
      "max": [
        59
      ],
      "min": [
        0
      ]
    },
    {
      "componentType": 5126,
      "type": "VEC3",
      "byteOffset": 0,
      "bufferView": 1,
      "count": 60,
      "max": [
        1.884108304977417,
        0.041623469442129135,
        1.6474722623825073
      ],
      "min": [
        -1.4021557569503784,
        -0.1482703536748886,
        -1.4163106679916382
      ]
    },
    {
      "componentType": 5126,
      "count": 60,
      "type": "VEC3",
      "byteOffset": 0,
      "bufferView": 2,
      "max": [
        1.0,
        0.9918680191040039,
        0.7682353854179382
      ],
      "min": [
        -1.0,
        -0.0013312920928001404,
        -0.7993574142456055
      ]
    },
    {
      "componentType": 5125,
      "type": "SCALAR",
      "bufferView": 3,
      "count": 12,
      "max": [
        11
      ],
      "min": [
        0
      ]
    },
    {
      "componentType": 5126,
      "type": "VEC3",
      "byteOffset": 0,
      "bufferView": 4,
      "count": 12,
      "max": [
        1.884108304977417,
        -0.07144618034362793,
        1.6474722623825073
      ],
      "min": [
        -1.4021557569503784,
        -0.1482703536748886,
        -1.4162648916244507
      ]
    },
    {
      "componentType": 5126,
      "count": 12,
      "type": "VEC3",
      "byteOffset": 0,
      "bufferView": 5,
      "max": [
        0.11364510655403137,
        -0.9852997064590454,
        0.12755116820335388
      ],
      "min": [
        -0.0327448733150959,
        -0.9990314245223999,
        -0.029392708092927933
      ]
    }
  ],
  "meshes": [
    {
      "name": "0_#686c73",
      "extras": {},
      "primitives": [
        {
          "attributes": {
            "POSITION": 1,
            "NORMAL": 2
          },
          "indices": 0,
          "mode": 4,
          "material": 0
        }
      ]
    },
    {
      "name": "1_#c6c7c6",
      "extras": {},
      "primitives": [
        {
          "attributes": {
            "POSITION": 4,
            "NORMAL": 5
          },
          "indices": 3,
          "mode": 4,
          "material": 1
        }
      ]
    }
  ],
  "materials": [
    {
      "name": "#686c73",
      "pbrMetallicRoughness": {
        "baseColorFactor": [
          0.40784313725490196,
          0.4235294117647059,
          0.45098039215686275,
          1.0
        ]
      }
    },
    {
      "name": "#c6c7c6",
      "pbrMetallicRoughness": {
        "baseColorFactor": [
          0.7764705882352941,
          0.7803921568627451,
          0.7764705882352941,
          1.0
        ]
      }
    }
  ],
  "nodes": [
    {
      "name": "0_0_#686c73",
      "mesh": 0
    },
    {
      "name": "0_1_#c6c7c6",
      "mesh": 1
    }
  ],
  "buffers": [
    {
      "uri": "cold_war_planes_f_16a_10_rnlaf_surf_slatLeft_buffer_0.bin",
      "byteLength": 240
    },
    {
      "uri": "cold_war_planes_f_16a_10_rnlaf_surf_slatLeft_buffer_1.bin",
      "byteLength": 720
    },
    {
      "uri": "cold_war_planes_f_16a_10_rnlaf_surf_slatLeft_buffer_2.bin",
      "byteLength": 720
    },
    {
      "uri": "cold_war_planes_f_16a_10_rnlaf_surf_slatLeft_buffer_3.bin",
      "byteLength": 48
    },
    {
      "uri": "cold_war_planes_f_16a_10_rnlaf_surf_slatLeft_buffer_4.bin",
      "byteLength": 144
    },
    {
      "uri": "cold_war_planes_f_16a_10_rnlaf_surf_slatLeft_buffer_5.bin",
      "byteLength": 144
    }
  ],
  "bufferViews": [
    {
      "buffer": 0,
      "byteOffset": 0,
      "byteLength": 240
    },
    {
      "buffer": 1,
      "byteOffset": 0,
      "byteLength": 720
    },
    {
      "buffer": 2,
      "byteOffset": 0,
      "byteLength": 720
    },
    {
      "buffer": 3,
      "byteOffset": 0,
      "byteLength": 48
    },
    {
      "buffer": 4,
      "byteOffset": 0,
      "byteLength": 144
    },
    {
      "buffer": 5,
      "byteOffset": 0,
      "byteLength": 144
    }
  ]
}