{
  "scene": 0,
  "scenes": [
    {
      "nodes": [
        0,
        1
      ],
      "name": "0"
    },
    {
      "name": "1",
      "nodes": []
    },
    {
      "name": "2",
      "nodes": []
    },
    {
      "name": "3",
      "nodes": []
    },
    {
      "name": "4",
      "nodes": []
    },
    {
      "name": "5",
      "nodes": []
    }
  ],
  "asset": {
    "version": "2.0",
    "generator": "https://github.com/mikedh/trimesh"
  },
  "accessors": [
    {
      "componentType": 5125,
      "type": "SCALAR",
      "bufferView": 0,
      "count": 12,
      "max": [
        11
      ],
      "min": [
        0
      ]
    },
    {
      "componentType": 5126,
      "type": "VEC3",
      "byteOffset": 0,
      "bufferView": 1,
      "count": 12,
      "max": [
        0.8027244210243225,
        0.07094153761863708,
        0.0
      ],
      "min": [
        -0.8518127799034119,
        -0.07094087451696396,
        -0.36638930439949036
      ]
    },
    {
      "componentType": 5126,
      "count": 12,
      "type": "VEC3",
      "byteOffset": 0,
      "bufferView": 2,
      "max": [
        1.0,
        0.0012624416267499328,
        0.9998644590377808
      ],
      "min": [
        -0.9752351641654968,
        -0.07503004372119904,
        0.0
      ]
    },
    {
      "componentType": 5126,
      "type": "VEC3",
      "byteOffset": 0,
      "bufferView": 3,
      "count": 12,
      "max": [
        0.8027244210243225,
        0.07094153761863708,
        0.0
      ],
      "min": [
        -0.8518127799034119,
        -0.07094087451696396,
        -0.36638930439949036
      ]
    },
    {
      "componentType": 5126,
      "count": 12,
      "type": "VEC3",
      "byteOffset": 0,
      "bufferView": 4,
      "max": [
        0.02999687008559704,
        0.9974955916404724,
        -0.06414859741926193
      ],
      "min": [
        -0.002578476443886757,
        -0.9974892735481262,
        -0.20084142684936523
      ]
    }
  ],
  "meshes": [
    {
      "name": "0_#000000",
      "extras": {},
      "primitives": [
        {
          "attributes": {
            "POSITION": 1,
            "NORMAL": 2
          },
          "indices": 0,
          "mode": 4,
          "material": 0
        }
      ]
    },
    {
      "name": "1_#e2e5e7",
      "extras": {},
      "primitives": [
        {
          "attributes": {
            "POSITION": 3,
            "NORMAL": 4
          },
          "indices": 0,
          "mode": 4,
          "material": 1
        }
      ]
    }
  ],
  "materials": [
    {
      "name": "#000000",
      "pbrMetallicRoughness": {
        "baseColorFactor": [
          0.0,
          0.0,
          0.0,
          1.0
        ]
      }
    },
    {
      "name": "#e2e5e7",
      "pbrMetallicRoughness": {
        "baseColorFactor": [
          0.8862745098039215,
          0.8980392156862745,
          0.9058823529411765,
          1.0
        ]
      }
    }
  ],
  "nodes": [
    {
      "name": "0_0_#000000",
      "mesh": 0
    },
    {
      "name": "0_1_#e2e5e7",
      "mesh": 1
    }
  ],
  "buffers": [
    {
      "uri": "a4e_surf_elevatorLeft_buffer_0.bin",
      "byteLength": 48
    },
    {
      "uri": "a4e_surf_elevatorLeft_buffer_1.bin",
      "byteLength": 144
    },
    {
      "uri": "a4e_surf_elevatorLeft_buffer_2.bin",
      "byteLength": 144
    },
    {
      "uri": "a4e_surf_elevatorLeft_buffer_3.bin",
      "byteLength": 144
    },
    {
      "uri": "a4e_surf_elevatorLeft_buffer_4.bin",
      "byteLength": 144
    }
  ],
  "bufferViews": [
    {
      "buffer": 0,
      "byteOffset": 0,
      "byteLength": 48
    },
    {
      "buffer": 1,
      "byteOffset": 0,
      "byteLength": 144
    },
    {
      "buffer": 2,
      "byteOffset": 0,
      "byteLength": 144
    },
    {
      "buffer": 3,
      "byteOffset": 0,
      "byteLength": 144
    },
    {
      "buffer": 4,
      "byteOffset": 0,
      "byteLength": 144
    }
  ]
}