{
  "scene": 0,
  "scenes": [
    {
      "nodes": [
        1
      ],
      "name": "0"
    },
    {
      "name": "1",
      "nodes": []
    },
    {
      "name": "2",
      "nodes": []
    },
    {
      "name": "3",
      "nodes": []
    },
    {
      "name": "4",
      "nodes": []
    },
    {
      "name": "5",
      "nodes": []
    }
  ],
  "asset": {
    "version": "2.0",
    "generator": "https://github.com/mikedh/trimesh"
  },
  "accessors": [
    {
      "componentType": 5125,
      "type": "SCALAR",
      "bufferView": 0,
      "count": 72,
      "max": [
        71
      ],
      "min": [
        0
      ]
    },
    {
      "componentType": 5126,
      "type": "VEC3",
      "byteOffset": 0,
      "bufferView": 1,
      "count": 72,
      "max": [
        4.472920894622803,
        -2.5389652252197266,
        6.1009297370910645
      ],
      "min": [
        -4.472925186157227,
        -2.5389959812164307,
        -6.537631988525391
      ]
    },
    {
      "componentType": 5126,
      "count": 72,
      "type": "VEC3",
      "byteOffset": 0,
      "bufferView": 2,
      "max": [
        6.024827143846778e-06,
        1.0,
        1.1346728570060804e-05
      ],
      "min": [
        -8.291493941214867e-06,
        1.0,
        -3.161975882903789e-06
      ]
    }
  ],
  "meshes": [
    {
      "name": "VEHICLE_PLANE_GREY",
      "extras": {},
      "primitives": [
        {
          "attributes": {
            "POSITION": 1,
            "NORMAL": 2
          },
          "indices": 0,
          "mode": 4,
          "material": 0
        }
      ]
    }
  ],
  "nodes": [
    {
      "name": "world",
      "children": [
        1
      ]
    },
    {
      "name": "0_Shadow",
      "mesh": 0
    }
  ],
  "buffers": [
    {
      "uri": "a4e_shadow_buffer_0.bin",
      "byteLength": 288
    },
    {
      "uri": "a4e_shadow_buffer_1.bin",
      "byteLength": 864
    },
    {
      "uri": "a4e_shadow_buffer_2.bin",
      "byteLength": 864
    }
  ],
  "bufferViews": [
    {
      "buffer": 0,
      "byteOffset": 0,
      "byteLength": 288
    },
    {
      "buffer": 1,
      "byteOffset": 0,
      "byteLength": 864
    },
    {
      "buffer": 2,
      "byteOffset": 0,
      "byteLength": 864
    }
  ],
  "materials": [
    {
      "name": "VEHICLE_PLANE_GREY",
      "pbrMetallicRoughness": {
        "baseColorFactor": [
          1,
          1,
          1,
          1
        ]
      }
    }
  ]
}