{
  "scene": 0,
  "scenes": [
    {
      "nodes": [
        0,
        1,
        2
      ],
      "name": "0"
    },
    {
      "name": "1",
      "nodes": []
    },
    {
      "name": "2",
      "nodes": []
    },
    {
      "name": "3",
      "nodes": []
    },
    {
      "name": "4",
      "nodes": []
    },
    {
      "name": "5",
      "nodes": []
    }
  ],
  "asset": {
    "version": "2.0",
    "generator": "https://github.com/mikedh/trimesh"
  },
  "accessors": [
    {
      "componentType": 5125,
      "type": "SCALAR",
      "bufferView": 0,
      "count": 18,
      "max": [
        17
      ],
      "min": [
        0
      ]
    },
    {
      "componentType": 5126,
      "type": "VEC3",
      "byteOffset": 0,
      "bufferView": 1,
      "count": 18,
      "max": [
        1.050460696220398,
        0.07540798932313919,
        -0.003444886999204755
      ],
      "min": [
        -0.9578014612197876,
        -0.11727721989154816,
        -0.6514517664909363
      ]
    },
    {
      "componentType": 5126,
      "count": 18,
      "type": "VEC3",
      "byteOffset": 0,
      "bufferView": 2,
      "max": [
        0.09561586380004883,
        0.987903892993927,
        0.21071818470954895
      ],
      "min": [
        -0.00023655987752135843,
        0.9728594422340393,
        0.15098384022712708
      ]
    },
    {
      "componentType": 5125,
      "type": "SCALAR",
      "bufferView": 3,
      "count": 36,
      "max": [
        35
      ],
      "min": [
        0
      ]
    },
    {
      "componentType": 5126,
      "type": "VEC3",
      "byteOffset": 0,
      "bufferView": 4,
      "count": 36,
      "max": [
        1.0593451261520386,
        0.07364160567522049,
        0.0
      ],
      "min": [
        -0.9578014612197876,
        -0.196234792470932,
        -0.6514517664909363
      ]
    },
    {
      "componentType": 5126,
      "count": 36,
      "type": "VEC3",
      "byteOffset": 0,
      "bufferView": 5,
      "max": [
        0.9576300978660583,
        -0.23381830751895905,
        -0.15098384022712708
      ],
      "min": [
        -0.9571545720100403,
        -0.987903892993927,
        -0.4768497943878174
      ]
    },
    {
      "componentType": 5125,
      "type": "SCALAR",
      "bufferView": 6,
      "count": 162,
      "max": [
        161
      ],
      "min": [
        0
      ]
    },
    {
      "componentType": 5126,
      "type": "VEC3",
      "byteOffset": 0,
      "bufferView": 7,
      "count": 162,
      "max": [
        0.4276867210865021,
        0.05624115467071533,
        -0.12085101008415222
      ],
      "min": [
        -0.5203707218170166,
        -0.026822391897439957,
        -0.5439075827598572
      ]
    },
    {
      "componentType": 5126,
      "count": 162,
      "type": "VEC3",
      "byteOffset": 0,
      "bufferView": 8,
      "max": [
        0.017375705763697624,
        0.987682044506073,
        0.15553568303585052
      ],
      "min": [
        -0.017485741525888443,
        -0.9876834750175476,
        -0.1555357575416565
      ]
    }
  ],
  "meshes": [
    {
      "name": "0_#ce3023",
      "extras": {},
      "primitives": [
        {
          "attributes": {
            "POSITION": 1,
            "NORMAL": 2
          },
          "indices": 0,
          "mode": 4,
          "material": 0
        }
      ]
    },
    {
      "name": "1_#e2e5e7",
      "extras": {},
      "primitives": [
        {
          "attributes": {
            "POSITION": 4,
            "NORMAL": 5
          },
          "indices": 3,
          "mode": 4,
          "material": 1
        }
      ]
    },
    {
      "name": "2_#ffffff",
      "extras": {},
      "primitives": [
        {
          "attributes": {
            "POSITION": 7,
            "NORMAL": 8
          },
          "indices": 6,
          "mode": 4,
          "material": 2
        }
      ]
    }
  ],
  "materials": [
    {
      "name": "#ce3023",
      "pbrMetallicRoughness": {
        "baseColorFactor": [
          0.807843137254902,
          0.18823529411764706,
          0.13725490196078433,
          1.0
        ]
      }
    },
    {
      "name": "#e2e5e7",
      "pbrMetallicRoughness": {
        "baseColorFactor": [
          0.8862745098039215,
          0.8980392156862745,
          0.9058823529411765,
          1.0
        ]
      }
    },
    {
      "name": "#ffffff",
      "pbrMetallicRoughness": {
        "baseColorFactor": [
          1.0,
          1.0,
          1.0,
          1.0
        ]
      }
    }
  ],
  "nodes": [
    {
      "name": "0_0_#ce3023",
      "mesh": 0
    },
    {
      "name": "0_1_#e2e5e7",
      "mesh": 1
    },
    {
      "name": "0_2_#ffffff",
      "mesh": 2
    }
  ],
  "buffers": [
    {
      "uri": "a4e_surf_flapRight_buffer_0.bin",
      "byteLength": 72
    },
    {
      "uri": "a4e_surf_flapRight_buffer_1.bin",
      "byteLength": 216
    },
    {
      "uri": "a4e_surf_flapRight_buffer_2.bin",
      "byteLength": 216
    },
    {
      "uri": "a4e_surf_flapRight_buffer_3.bin",
      "byteLength": 144
    },
    {
      "uri": "a4e_surf_flapRight_buffer_4.bin",
      "byteLength": 432
    },
    {
      "uri": "a4e_surf_flapRight_buffer_5.bin",
      "byteLength": 432
    },
    {
      "uri": "a4e_surf_flapRight_buffer_6.bin",
      "byteLength": 648
    },
    {
      "uri": "a4e_surf_flapRight_buffer_7.bin",
      "byteLength": 1944
    },
    {
      "uri": "a4e_surf_flapRight_buffer_8.bin",
      "byteLength": 1944
    }
  ],
  "bufferViews": [
    {
      "buffer": 0,
      "byteOffset": 0,
      "byteLength": 72
    },
    {
      "buffer": 1,
      "byteOffset": 0,
      "byteLength": 216
    },
    {
      "buffer": 2,
      "byteOffset": 0,
      "byteLength": 216
    },
    {
      "buffer": 3,
      "byteOffset": 0,
      "byteLength": 144
    },
    {
      "buffer": 4,
      "byteOffset": 0,
      "byteLength": 432
    },
    {
      "buffer": 5,
      "byteOffset": 0,
      "byteLength": 432
    },
    {
      "buffer": 6,
      "byteOffset": 0,
      "byteLength": 648
    },
    {
      "buffer": 7,
      "byteOffset": 0,
      "byteLength": 1944
    },
    {
      "buffer": 8,
      "byteOffset": 0,
      "byteLength": 1944
    }
  ]
}