{
  "scene": 0,
  "scenes": [
    {
      "nodes": [
        0,
        1,
        2
      ],
      "name": "0"
    },
    {
      "name": "1",
      "nodes": []
    },
    {
      "name": "2",
      "nodes": []
    },
    {
      "name": "3",
      "nodes": []
    },
    {
      "name": "4",
      "nodes": []
    },
    {
      "name": "5",
      "nodes": []
    }
  ],
  "asset": {
    "version": "2.0",
    "generator": "https://github.com/mikedh/trimesh"
  },
  "accessors": [
    {
      "componentType": 5125,
      "type": "SCALAR",
      "bufferView": 0,
      "count": 12,
      "max": [
        11
      ],
      "min": [
        0
      ]
    },
    {
      "componentType": 5126,
      "type": "VEC3",
      "byteOffset": 0,
      "bufferView": 1,
      "count": 12,
      "max": [
        0.0716952458024025,
        0.8567459583282471,
        0.0
      ],
      "min": [
        -0.07880338281393051,
        -0.6455038785934448,
        -1.0228663682937622
      ]
    },
    {
      "componentType": 5126,
      "count": 12,
      "type": "VEC3",
      "byteOffset": 0,
      "bufferView": 2,
      "max": [
        9.76050432655029e-06,
        0.9999988079071045,
        0.9220895171165466
      ],
      "min": [
        0.0,
        -0.9999809265136719,
        0.0015470036305487156
      ]
    },
    {
      "componentType": 5125,
      "type": "SCALAR",
      "bufferView": 3,
      "count": 3,
      "max": [
        2
      ],
      "min": [
        0
      ]
    },
    {
      "componentType": 5126,
      "type": "VEC3",
      "byteOffset": 0,
      "bufferView": 4,
      "count": 3,
      "max": [
        0.0716952458024025,
        -0.6399325728416443,
        0.0
      ],
      "min": [
        -0.004181631375104189,
        -0.6455038785934448,
        -0.9023657441139221
      ]
    },
    {
      "componentType": 5126,
      "count": 3,
      "type": "VEC3",
      "byteOffset": 0,
      "bufferView": 5,
      "max": [
        9.390594641445205e-06,
        -0.9999809265136719,
        0.006173196714371443
      ],
      "min": [
        9.390594641445205e-06,
        -0.9999809265136719,
        0.006173196714371443
      ]
    },
    {
      "componentType": 5126,
      "type": "VEC3",
      "byteOffset": 0,
      "bufferView": 6,
      "count": 12,
      "max": [
        0.0716952458024025,
        0.8567459583282471,
        0.0
      ],
      "min": [
        -0.07880338281393051,
        -0.6455038785934448,
        -1.0228663682937622
      ]
    },
    {
      "componentType": 5126,
      "count": 12,
      "type": "VEC3",
      "byteOffset": 0,
      "bufferView": 7,
      "max": [
        0.9965033531188965,
        -0.008639110252261162,
        -0.08231748640537262
      ],
      "min": [
        -0.9965032935142517,
        -0.014314941130578518,
        -0.11288639158010483
      ]
    }
  ],
  "meshes": [
    {
      "name": "0_#000000",
      "extras": {},
      "primitives": [
        {
          "attributes": {
            "POSITION": 1,
            "NORMAL": 2
          },
          "indices": 0,
          "mode": 4,
          "material": 0
        }
      ]
    },
    {
      "name": "1_#cbcbcb",
      "extras": {},
      "primitives": [
        {
          "attributes": {
            "POSITION": 4,
            "NORMAL": 5
          },
          "indices": 3,
          "mode": 4,
          "material": 1
        }
      ]
    },
    {
      "name": "2_#e2e5e7",
      "extras": {},
      "primitives": [
        {
          "attributes": {
            "POSITION": 6,
            "NORMAL": 7
          },
          "indices": 0,
          "mode": 4,
          "material": 2
        }
      ]
    }
  ],
  "materials": [
    {
      "name": "#000000",
      "pbrMetallicRoughness": {
        "baseColorFactor": [
          0.0,
          0.0,
          0.0,
          1.0
        ]
      }
    },
    {
      "name": "#cbcbcb",
      "pbrMetallicRoughness": {
        "baseColorFactor": [
          0.796078431372549,
          0.796078431372549,
          0.796078431372549,
          1.0
        ]
      }
    },
    {
      "name": "#e2e5e7",
      "pbrMetallicRoughness": {
        "baseColorFactor": [
          0.8862745098039215,
          0.8980392156862745,
          0.9058823529411765,
          1.0
        ]
      }
    }
  ],
  "nodes": [
    {
      "name": "0_0_#000000",
      "mesh": 0
    },
    {
      "name": "0_1_#cbcbcb",
      "mesh": 1
    },
    {
      "name": "0_2_#e2e5e7",
      "mesh": 2
    }
  ],
  "buffers": [
    {
      "uri": "a4e_surf_rudder_buffer_0.bin",
      "byteLength": 48
    },
    {
      "uri": "a4e_surf_rudder_buffer_1.bin",
      "byteLength": 144
    },
    {
      "uri": "a4e_surf_rudder_buffer_2.bin",
      "byteLength": 144
    },
    {
      "uri": "a4e_surf_rudder_buffer_3.bin",
      "byteLength": 12
    },
    {
      "uri": "a4e_surf_rudder_buffer_4.bin",
      "byteLength": 36
    },
    {
      "uri": "a4e_surf_rudder_buffer_5.bin",
      "byteLength": 36
    },
    {
      "uri": "a4e_surf_rudder_buffer_6.bin",
      "byteLength": 144
    },
    {
      "uri": "a4e_surf_rudder_buffer_7.bin",
      "byteLength": 144
    }
  ],
  "bufferViews": [
    {
      "buffer": 0,
      "byteOffset": 0,
      "byteLength": 48
    },
    {
      "buffer": 1,
      "byteOffset": 0,
      "byteLength": 144
    },
    {
      "buffer": 2,
      "byteOffset": 0,
      "byteLength": 144
    },
    {
      "buffer": 3,
      "byteOffset": 0,
      "byteLength": 12
    },
    {
      "buffer": 4,
      "byteOffset": 0,
      "byteLength": 36
    },
    {
      "buffer": 5,
      "byteOffset": 0,
      "byteLength": 36
    },
    {
      "buffer": 6,
      "byteOffset": 0,
      "byteLength": 144
    },
    {
      "buffer": 7,
      "byteOffset": 0,
      "byteLength": 144
    }
  ]
}