{
  "scene": 0,
  "scenes": [
    {
      "nodes": [
        0,
        1
      ],
      "name": "0"
    },
    {
      "name": "1",
      "nodes": []
    },
    {
      "name": "2",
      "nodes": []
    },
    {
      "name": "3",
      "nodes": []
    },
    {
      "name": "4",
      "nodes": []
    },
    {
      "name": "5",
      "nodes": []
    }
  ],
  "asset": {
    "version": "2.0",
    "generator": "https://github.com/mikedh/trimesh"
  },
  "accessors": [
    {
      "componentType": 5125,
      "type": "SCALAR",
      "bufferView": 0,
      "count": 12,
      "max": [
        11
      ],
      "min": [
        0
      ]
    },
    {
      "componentType": 5126,
      "type": "VEC3",
      "byteOffset": 0,
      "bufferView": 1,
      "count": 12,
      "max": [
        0.984679639339447,
        0.07595603913068771,
        0.0
      ],
      "min": [
        -0.9981692433357239,
        -0.1320067048072815,
        -0.6206001043319702
      ]
    },
    {
      "componentType": 5126,
      "count": 12,
      "type": "VEC3",
      "byteOffset": 0,
      "bufferView": 2,
      "max": [
        0.9984822273254395,
        0.17581462860107422,
        0.9999985098838806
      ],
      "min": [
        -0.9835415482521057,
        -0.055021267384290695,
        0.002427675062790513
      ]
    },
    {
      "componentType": 5126,
      "type": "VEC3",
      "byteOffset": 0,
      "bufferView": 3,
      "count": 12,
      "max": [
        0.984679639339447,
        0.07595603913068771,
        0.0
      ],
      "min": [
        -0.9981692433357239,
        -0.1320067048072815,
        -0.6206001043319702
      ]
    },
    {
      "componentType": 5126,
      "count": 12,
      "type": "VEC3",
      "byteOffset": 0,
      "bufferView": 4,
      "max": [
        0.026622209697961807,
        0.9982277750968933,
        0.0038016231264919043
      ],
      "min": [
        -0.07710108160972595,
        -0.9996245503425598,
        -0.1751002073287964
      ]
    }
  ],
  "meshes": [
    {
      "name": "0_#000000",
      "extras": {},
      "primitives": [
        {
          "attributes": {
            "POSITION": 1,
            "NORMAL": 2
          },
          "indices": 0,
          "mode": 4,
          "material": 0
        }
      ]
    },
    {
      "name": "1_#e2e5e7",
      "extras": {},
      "primitives": [
        {
          "attributes": {
            "POSITION": 3,
            "NORMAL": 4
          },
          "indices": 0,
          "mode": 4,
          "material": 1
        }
      ]
    }
  ],
  "materials": [
    {
      "name": "#000000",
      "pbrMetallicRoughness": {
        "baseColorFactor": [
          0.0,
          0.0,
          0.0,
          1.0
        ]
      }
    },
    {
      "name": "#e2e5e7",
      "pbrMetallicRoughness": {
        "baseColorFactor": [
          0.8862745098039215,
          0.8980392156862745,
          0.9058823529411765,
          1.0
        ]
      }
    }
  ],
  "nodes": [
    {
      "name": "0_0_#000000",
      "mesh": 0
    },
    {
      "name": "0_1_#e2e5e7",
      "mesh": 1
    }
  ],
  "buffers": [
    {
      "uri": "a4e_surf_aileronRight_buffer_0.bin",
      "byteLength": 48
    },
    {
      "uri": "a4e_surf_aileronRight_buffer_1.bin",
      "byteLength": 144
    },
    {
      "uri": "a4e_surf_aileronRight_buffer_2.bin",
      "byteLength": 144
    },
    {
      "uri": "a4e_surf_aileronRight_buffer_3.bin",
      "byteLength": 144
    },
    {
      "uri": "a4e_surf_aileronRight_buffer_4.bin",
      "byteLength": 144
    }
  ],
  "bufferViews": [
    {
      "buffer": 0,
      "byteOffset": 0,
      "byteLength": 48
    },
    {
      "buffer": 1,
      "byteOffset": 0,
      "byteLength": 144
    },
    {
      "buffer": 2,
      "byteOffset": 0,
      "byteLength": 144
    },
    {
      "buffer": 3,
      "byteOffset": 0,
      "byteLength": 144
    },
    {
      "buffer": 4,
      "byteOffset": 0,
      "byteLength": 144
    }
  ]
}