{
  "scene": 0,
  "scenes": [
    {
      "nodes": [
        0,
        1
      ],
      "name": "0"
    },
    {
      "name": "1",
      "nodes": []
    },
    {
      "name": "2",
      "nodes": []
    },
    {
      "name": "3",
      "nodes": []
    },
    {
      "name": "4",
      "nodes": []
    },
    {
      "name": "5",
      "nodes": []
    }
  ],
  "asset": {
    "version": "2.0",
    "generator": "https://github.com/mikedh/trimesh"
  },
  "accessors": [
    {
      "componentType": 5125,
      "type": "SCALAR",
      "bufferView": 0,
      "count": 12,
      "max": [
        11
      ],
      "min": [
        0
      ]
    },
    {
      "componentType": 5126,
      "type": "VEC3",
      "byteOffset": 0,
      "bufferView": 1,
      "count": 12,
      "max": [
        0.8518128991127014,
        0.07094042748212814,
        0.0
      ],
      "min": [
        -0.8027243614196777,
        -0.0709419846534729,
        -0.36638975143432617
      ]
    },
    {
      "componentType": 5126,
      "count": 12,
      "type": "VEC3",
      "byteOffset": 0,
      "bufferView": 2,
      "max": [
        0.9752349257469177,
        0.0012624855153262615,
        0.9998644590377808
      ],
      "min": [
        -1.0,
        -0.07503125816583633,
        0.0
      ]
    },
    {
      "componentType": 5126,
      "type": "VEC3",
      "byteOffset": 0,
      "bufferView": 3,
      "count": 12,
      "max": [
        0.8518128991127014,
        0.07094042748212814,
        0.0
      ],
      "min": [
        -0.8027243614196777,
        -0.0709419846534729,
        -0.36638975143432617
      ]
    },
    {
      "componentType": 5126,
      "count": 12,
      "type": "VEC3",
      "byteOffset": 0,
      "bufferView": 4,
      "max": [
        0.002579519059509039,
        0.9974955320358276,
        -0.06414921581745148
      ],
      "min": [
        -0.02999838814139366,
        -0.997489333152771,
        -0.20084120333194733
      ]
    }
  ],
  "meshes": [
    {
      "name": "0_#000000",
      "extras": {},
      "primitives": [
        {
          "attributes": {
            "POSITION": 1,
            "NORMAL": 2
          },
          "indices": 0,
          "mode": 4,
          "material": 0
        }
      ]
    },
    {
      "name": "1_#e2e5e7",
      "extras": {},
      "primitives": [
        {
          "attributes": {
            "POSITION": 3,
            "NORMAL": 4
          },
          "indices": 0,
          "mode": 4,
          "material": 1
        }
      ]
    }
  ],
  "materials": [
    {
      "name": "#000000",
      "pbrMetallicRoughness": {
        "baseColorFactor": [
          0.0,
          0.0,
          0.0,
          1.0
        ]
      }
    },
    {
      "name": "#e2e5e7",
      "pbrMetallicRoughness": {
        "baseColorFactor": [
          0.8862745098039215,
          0.8980392156862745,
          0.9058823529411765,
          1.0
        ]
      }
    }
  ],
  "nodes": [
    {
      "name": "0_0_#000000",
      "mesh": 0
    },
    {
      "name": "0_1_#e2e5e7",
      "mesh": 1
    }
  ],
  "buffers": [
    {
      "uri": "a4e_surf_elevatorRight_buffer_0.bin",
      "byteLength": 48
    },
    {
      "uri": "a4e_surf_elevatorRight_buffer_1.bin",
      "byteLength": 144
    },
    {
      "uri": "a4e_surf_elevatorRight_buffer_2.bin",
      "byteLength": 144
    },
    {
      "uri": "a4e_surf_elevatorRight_buffer_3.bin",
      "byteLength": 144
    },
    {
      "uri": "a4e_surf_elevatorRight_buffer_4.bin",
      "byteLength": 144
    }
  ],
  "bufferViews": [
    {
      "buffer": 0,
      "byteOffset": 0,
      "byteLength": 48
    },
    {
      "buffer": 1,
      "byteOffset": 0,
      "byteLength": 144
    },
    {
      "buffer": 2,
      "byteOffset": 0,
      "byteLength": 144
    },
    {
      "buffer": 3,
      "byteOffset": 0,
      "byteLength": 144
    },
    {
      "buffer": 4,
      "byteOffset": 0,
      "byteLength": 144
    }
  ]
}