{
  "scene": 0,
  "scenes": [
    {
      "nodes": [
        0,
        1,
        2,
        3,
        4,
        5,
        6,
        7,
        8,
        9,
        10,
        11,
        12
      ],
      "name": "0"
    },
    {
      "name": "1",
      "nodes": []
    },
    {
      "name": "2",
      "nodes": []
    },
    {
      "name": "3",
      "nodes": []
    },
    {
      "name": "4",
      "nodes": []
    },
    {
      "name": "5",
      "nodes": []
    }
  ],
  "asset": {
    "version": "2.0",
    "generator": "https://github.com/mikedh/trimesh"
  },
  "accessors": [
    {
      "componentType": 5125,
      "type": "SCALAR",
      "bufferView": 0,
      "count": 1887,
      "max": [
        1886
      ],
      "min": [
        0
      ]
    },
    {
      "componentType": 5126,
      "type": "VEC3",
      "byteOffset": 0,
      "bufferView": 1,
      "count": 1887,
      "max": [
        4.306125164031982,
        3.417424440383911,
        6.845312118530273
      ],
      "min": [
        -4.306119441986084,
        -2.0,
        -6.496067047119141
      ]
    },
    {
      "componentType": 5126,
      "count": 1887,
      "type": "VEC3",
      "byteOffset": 0,
      "bufferView": 2,
      "max": [
        1.0,
        1.0,
        1.0
      ],
      "min": [
        -1.0,
        -1.0,
        -1.0
      ]
    },
    {
      "componentType": 5125,
      "type": "SCALAR",
      "bufferView": 3,
      "count": 1956,
      "max": [
        1955
      ],
      "min": [
        0
      ]
    },
    {
      "componentType": 5126,
      "type": "VEC3",
      "byteOffset": 0,
      "bufferView": 4,
      "count": 1956,
      "max": [
        4.497308254241943,
        3.4007961750030518,
        6.263767242431641
      ],
      "min": [
        -4.497673511505127,
        -1.8880383968353271,
        -6.4907307624816895
      ]
    },
    {
      "componentType": 5126,
      "count": 1956,
      "type": "VEC3",
      "byteOffset": 0,
      "bufferView": 5,
      "max": [
        1.0,
        1.0,
        1.0
      ],
      "min": [
        -1.0,
        -1.0,
        -1.0
      ]
    },
    {
      "componentType": 5125,
      "type": "SCALAR",
      "bufferView": 6,
      "count": 402,
      "max": [
        401
      ],
      "min": [
        0
      ]
    },
    {
      "componentType": 5126,
      "type": "VEC3",
      "byteOffset": 0,
      "bufferView": 7,
      "count": 402,
      "max": [
        4.038774013519287,
        3.6229512691497803,
        2.7768263816833496
      ],
      "min": [
        -4.039139270782471,
        -0.2628985345363617,
        -6.5059709548950195
      ]
    },
    {
      "componentType": 5126,
      "count": 402,
      "type": "VEC3",
      "byteOffset": 0,
      "bufferView": 8,
      "max": [
        0.9986944794654846,
        0.9999940991401672,
        0.993868887424469
      ],
      "min": [
        -0.9988029599189758,
        -0.9997168779373169,
        -0.9811789393424988
      ]
    },
    {
      "componentType": 5125,
      "type": "SCALAR",
      "bufferView": 9,
      "count": 792,
      "max": [
        791
      ],
      "min": [
        0
      ]
    },
    {
      "componentType": 5126,
      "type": "VEC3",
      "byteOffset": 0,
      "bufferView": 10,
      "count": 792,
      "max": [
        3.7961928844451904,
        0.7912344932556152,
        5.373465061187744
      ],
      "min": [
        -1.791368842124939,
        -0.18202868103981018,
        -5.258454322814941
      ]
    },
    {
      "componentType": 5126,
      "count": 792,
      "type": "VEC3",
      "byteOffset": 0,
      "bufferView": 11,
      "max": [
        0.9988242387771606,
        0.9999940991401672,
        0.7116387486457825
      ],
      "min": [
        -0.9988242387771606,
        -0.9876834154129028,
        -0.6385953426361084
      ]
    },
    {
      "componentType": 5125,
      "type": "SCALAR",
      "bufferView": 12,
      "count": 1416,
      "max": [
        1415
      ],
      "min": [
        0
      ]
    },
    {
      "componentType": 5126,
      "type": "VEC3",
      "byteOffset": 0,
      "bufferView": 13,
      "count": 1416,
      "max": [
        1.4394742250442505,
        1.3006752729415894,
        4.344046115875244
      ],
      "min": [
        -1.4394742250442505,
        -1.8042060136795044,
        -1.333080530166626
      ]
    },
    {
      "componentType": 5126,
      "count": 1416,
      "type": "VEC3",
      "byteOffset": 0,
      "bufferView": 14,
      "max": [
        1.0,
        1.0,
        1.0
      ],
      "min": [
        -1.0,
        -1.0,
        -1.0
      ]
    },
    {
      "componentType": 5125,
      "type": "SCALAR",
      "bufferView": 15,
      "count": 2190,
      "max": [
        2189
      ],
      "min": [
        0
      ]
    },
    {
      "componentType": 5126,
      "type": "VEC3",
      "byteOffset": 0,
      "bufferView": 16,
      "count": 2190,
      "max": [
        4.497308254241943,
        3.6075193881988525,
        6.82185697555542
      ],
      "min": [
        -4.497673511505127,
        -1.8169026374816895,
        -6.370230197906494
      ]
    },
    {
      "componentType": 5126,
      "count": 2190,
      "type": "VEC3",
      "byteOffset": 0,
      "bufferView": 17,
      "max": [
        1.0,
        1.0,
        1.0
      ],
      "min": [
        -1.0,
        -1.0,
        -1.0
      ]
    },
    {
      "componentType": 5125,
      "type": "SCALAR",
      "bufferView": 18,
      "count": 975,
      "max": [
        974
      ],
      "min": [
        0
      ]
    },
    {
      "componentType": 5126,
      "type": "VEC3",
      "byteOffset": 0,
      "bufferView": 19,
      "count": 975,
      "max": [
        3.3731558322906494,
        2.676927089691162,
        5.7302775382995605
      ],
      "min": [
        -3.473145008087158,
        -0.26578474044799805,
        -5.548097610473633
      ]
    },
    {
      "componentType": 5126,
      "count": 975,
      "type": "VEC3",
      "byteOffset": 0,
      "bufferView": 20,
      "max": [
        1.0,
        1.0,
        1.0
      ],
      "min": [
        -1.0,
        -1.0,
        -1.0
      ]
    },
    {
      "componentType": 5125,
      "type": "SCALAR",
      "bufferView": 21,
      "count": 708,
      "max": [
        707
      ],
      "min": [
        0
      ]
    },
    {
      "componentType": 5126,
      "type": "VEC3",
      "byteOffset": 0,
      "bufferView": 22,
      "count": 708,
      "max": [
        0.5339595079421997,
        1.3047816753387451,
        4.299417018890381
      ],
      "min": [
        -0.5369845032691956,
        -0.2283235341310501,
        -6.219174385070801
      ]
    },
    {
      "componentType": 5126,
      "count": 708,
      "type": "VEC3",
      "byteOffset": 0,
      "bufferView": 23,
      "max": [
        1.0,
        1.0,
        0.9860385060310364
      ],
      "min": [
        -1.0,
        -1.0,
        -0.8022235631942749
      ]
    },
    {
      "componentType": 5125,
      "type": "SCALAR",
      "bufferView": 24,
      "count": 3480,
      "max": [
        3479
      ],
      "min": [
        0
      ]
    },
    {
      "componentType": 5126,
      "type": "VEC3",
      "byteOffset": 0,
      "bufferView": 25,
      "count": 3480,
      "max": [
        0.44636425375938416,
        1.5361579656600952,
        7.10891056060791
      ],
      "min": [
        -0.5600086450576782,
        0.14571601152420044,
        -3.7059473991394043
      ]
    },
    {
      "componentType": 5126,
      "count": 3480,
      "type": "VEC3",
      "byteOffset": 0,
      "bufferView": 26,
      "max": [
        1.0,
        1.0,
        1.0
      ],
      "min": [
        -1.0,
        -1.0,
        -1.0
      ]
    },
    {
      "componentType": 5125,
      "type": "SCALAR",
      "bufferView": 27,
      "count": 3762,
      "max": [
        3761
      ],
      "min": [
        0
      ]
    },
    {
      "componentType": 5126,
      "type": "VEC3",
      "byteOffset": 0,
      "bufferView": 28,
      "count": 3762,
      "max": [
        1.7793720960617065,
        2.055044174194336,
        5.650124549865723
      ],
      "min": [
        -1.7793720960617065,
        -0.21632826328277588,
        -4.709604263305664
      ]
    },
    {
      "componentType": 5126,
      "count": 3762,
      "type": "VEC3",
      "byteOffset": 0,
      "bufferView": 29,
      "max": [
        1.0,
        1.0,
        1.0
      ],
      "min": [
        -1.0,
        -1.0,
        -0.9967870712280273
      ]
    },
    {
      "componentType": 5125,
      "type": "SCALAR",
      "bufferView": 30,
      "count": 234,
      "max": [
        233
      ],
      "min": [
        0
      ]
    },
    {
      "componentType": 5126,
      "type": "VEC3",
      "byteOffset": 0,
      "bufferView": 31,
      "count": 234,
      "max": [
        0.31796950101852417,
        1.5361578464508057,
        4.252986907958984
      ],
      "min": [
        -0.31796950101852417,
        0.8943556547164917,
        2.750295877456665
      ]
    },
    {
      "componentType": 5126,
      "count": 234,
      "type": "VEC3",
      "byteOffset": 0,
      "bufferView": 32,
      "max": [
        0.998935878276825,
        0.9601870179176331,
        0.6435609459877014
      ],
      "min": [
        -0.998935878276825,
        -0.8102787137031555,
        -0.5860600471496582
      ]
    },
    {
      "componentType": 5125,
      "type": "SCALAR",
      "bufferView": 33,
      "count": 12,
      "max": [
        11
      ],
      "min": [
        0
      ]
    },
    {
      "componentType": 5126,
      "type": "VEC3",
      "byteOffset": 0,
      "bufferView": 34,
      "count": 12,
      "max": [
        0.05399543046951294,
        0.10748879611492157,
        3.0884742736816406
      ],
      "min": [
        -0.03743380308151245,
        0.0019154108595103025,
        3.0884740352630615
      ]
    },
    {
      "componentType": 5126,
      "count": 12,
      "type": "VEC3",
      "byteOffset": 0,
      "bufferView": 35,
      "max": [
        8.970715880199376e-15,
        2.821299744937278e-07,
        -1.0
      ],
      "min": [
        -6.913952595258852e-15,
        2.821299744937278e-07,
        -1.0
      ]
    },
    {
      "componentType": 5125,
      "type": "SCALAR",
      "bufferView": 36,
      "count": 48,
      "max": [
        47
      ],
      "min": [
        0
      ]
    },
    {
      "componentType": 5126,
      "type": "VEC3",
      "byteOffset": 0,
      "bufferView": 37,
      "count": 48,
      "max": [
        0.527245044708252,
        0.6303997039794922,
        3.596386194229126
      ],
      "min": [
        -0.5290795564651489,
        0.3245971202850342,
        3.178316116333008
      ]
    },
    {
      "componentType": 5126,
      "count": 48,
      "type": "VEC3",
      "byteOffset": 0,
      "bufferView": 38,
      "max": [
        0.9998852014541626,
        0.3178931176662445,
        0.11545444279909134
      ],
      "min": [
        -0.9998852014541626,
        -0.048354990780353546,
        -0.019861342385411263
      ]
    }
  ],
  "meshes": [
    {
      "name": "0_#000000",
      "extras": {},
      "primitives": [
        {
          "attributes": {
            "POSITION": 1,
            "NORMAL": 2
          },
          "indices": 0,
          "mode": 4,
          "material": 0
        }
      ]
    },
    {
      "name": "1_#e2e5e7",
      "extras": {},
      "primitives": [
        {
          "attributes": {
            "POSITION": 4,
            "NORMAL": 5
          },
          "indices": 3,
          "mode": 4,
          "material": 1
        }
      ]
    },
    {
      "name": "2_#ce3023",
      "extras": {},
      "primitives": [
        {
          "attributes": {
            "POSITION": 7,
            "NORMAL": 8
          },
          "indices": 6,
          "mode": 4,
          "material": 2
        }
      ]
    },
    {
      "name": "3_#ffffff",
      "extras": {},
      "primitives": [
        {
          "attributes": {
            "POSITION": 10,
            "NORMAL": 11
          },
          "indices": 9,
          "mode": 4,
          "material": 3
        }
      ]
    },
    {
      "name": "4_#5e5d5e",
      "extras": {},
      "primitives": [
        {
          "attributes": {
            "POSITION": 13,
            "NORMAL": 14
          },
          "indices": 12,
          "mode": 4,
          "material": 4
        }
      ]
    },
    {
      "name": "5_#cbcbcb",
      "extras": {},
      "primitives": [
        {
          "attributes": {
            "POSITION": 16,
            "NORMAL": 17
          },
          "indices": 15,
          "mode": 4,
          "material": 5
        }
      ]
    },
    {
      "name": "6_#080d20",
      "extras": {},
      "primitives": [
        {
          "attributes": {
            "POSITION": 19,
            "NORMAL": 20
          },
          "indices": 18,
          "mode": 4,
          "material": 6
        }
      ]
    },
    {
      "name": "7_#232423",
      "extras": {},
      "primitives": [
        {
          "attributes": {
            "POSITION": 22,
            "NORMAL": 23
          },
          "indices": 21,
          "mode": 4,
          "material": 7
        }
      ]
    },
    {
      "name": "8_#262826",
      "extras": {},
      "primitives": [
        {
          "attributes": {
            "POSITION": 25,
            "NORMAL": 26
          },
          "indices": 24,
          "mode": 4,
          "material": 8
        }
      ]
    },
    {
      "name": "9_#b5b4ba",
      "extras": {},
      "primitives": [
        {
          "attributes": {
            "POSITION": 28,
            "NORMAL": 29
          },
          "indices": 27,
          "mode": 4,
          "material": 9
        }
      ]
    },
    {
      "name": "10_#d1f7ff",
      "extras": {},
      "primitives": [
        {
          "attributes": {
            "POSITION": 31,
            "NORMAL": 32
          },
          "indices": 30,
          "mode": 4,
          "material": 10
        }
      ]
    },
    {
      "name": "11_#73a249",
      "extras": {},
      "primitives": [
        {
          "attributes": {
            "POSITION": 34,
            "NORMAL": 35
          },
          "indices": 33,
          "mode": 4,
          "material": 11
        }
      ]
    },
    {
      "name": "12_#ffca3c",
      "extras": {},
      "primitives": [
        {
          "attributes": {
            "POSITION": 37,
            "NORMAL": 38
          },
          "indices": 36,
          "mode": 4,
          "material": 12
        }
      ]
    }
  ],
  "materials": [
    {
      "name": "#000000",
      "pbrMetallicRoughness": {
        "baseColorFactor": [
          0.0,
          0.0,
          0.0,
          1.0
        ]
      }
    },
    {
      "name": "#e2e5e7",
      "pbrMetallicRoughness": {
        "baseColorFactor": [
          0.8862745098039215,
          0.8980392156862745,
          0.9058823529411765,
          1.0
        ]
      }
    },
    {
      "name": "#ce3023",
      "pbrMetallicRoughness": {
        "baseColorFactor": [
          0.807843137254902,
          0.18823529411764706,
          0.13725490196078433,
          1.0
        ]
      }
    },
    {
      "name": "#ffffff",
      "pbrMetallicRoughness": {
        "baseColorFactor": [
          1.0,
          1.0,
          1.0,
          1.0
        ]
      }
    },
    {
      "name": "#5e5d5e",
      "pbrMetallicRoughness": {
        "baseColorFactor": [
          0.3686274509803922,
          0.36470588235294116,
          0.3686274509803922,
          1.0
        ]
      }
    },
    {
      "name": "#cbcbcb",
      "pbrMetallicRoughness": {
        "baseColorFactor": [
          0.796078431372549,
          0.796078431372549,
          0.796078431372549,
          1.0
        ]
      }
    },
    {
      "name": "#080d20",
      "pbrMetallicRoughness": {
        "baseColorFactor": [
          0.03137254901960784,
          0.050980392156862744,
          0.12549019607843137,
          1.0
        ]
      }
    },
    {
      "name": "#232423",
      "pbrMetallicRoughness": {
        "baseColorFactor": [
          0.13725490196078433,
          0.1411764705882353,
          0.13725490196078433,
          1.0
        ]
      }
    },
    {
      "name": "#262826",
      "pbrMetallicRoughness": {
        "baseColorFactor": [
          0.14901960784313725,
          0.1568627450980392,
          0.14901960784313725,
          1.0
        ]
      }
    },
    {
      "name": "#b5b4ba",
      "pbrMetallicRoughness": {
        "baseColorFactor": [
          0.7098039215686275,
          0.7058823529411765,
          0.7294117647058823,
          1.0
        ]
      }
    },
    {
      "name": "#d1f7ff",
      "pbrMetallicRoughness": {
        "baseColorFactor": [
          0.8196078431372549,
          0.9686274509803922,
          1.0,
          1.0
        ]
      }
    },
    {
      "name": "#73a249",
      "pbrMetallicRoughness": {
        "baseColorFactor": [
          0.45098039215686275,
          0.6352941176470588,
          0.28627450980392155,
          1.0
        ]
      }
    },
    {
      "name": "#ffca3c",
      "pbrMetallicRoughness": {
        "baseColorFactor": [
          1.0,
          0.792156862745098,
          0.23529411764705882,
          1.0
        ]
      }
    }
  ],
  "nodes": [
    {
      "name": "0_0_#000000",
      "mesh": 0
    },
    {
      "name": "0_1_#e2e5e7",
      "mesh": 1
    },
    {
      "name": "0_2_#ce3023",
      "mesh": 2
    },
    {
      "name": "0_3_#ffffff",
      "mesh": 3
    },
    {
      "name": "0_4_#5e5d5e",
      "mesh": 4
    },
    {
      "name": "0_5_#cbcbcb",
      "mesh": 5
    },
    {
      "name": "0_6_#080d20",
      "mesh": 6
    },
    {
      "name": "0_7_#232423",
      "mesh": 7
    },
    {
      "name": "0_8_#262826",
      "mesh": 8
    },
    {
      "name": "0_9_#b5b4ba",
      "mesh": 9
    },
    {
      "name": "0_10_#d1f7ff",
      "mesh": 10
    },
    {
      "name": "0_11_#73a249",
      "mesh": 11
    },
    {
      "name": "0_12_#ffca3c",
      "mesh": 12
    }
  ],
  "buffers": [
    {
      "uri": "a4e_static_buffer_0.bin",
      "byteLength": 7548
    },
    {
      "uri": "a4e_static_buffer_1.bin",
      "byteLength": 22644
    },
    {
      "uri": "a4e_static_buffer_2.bin",
      "byteLength": 22644
    },
    {
      "uri": "a4e_static_buffer_3.bin",
      "byteLength": 7824
    },
    {
      "uri": "a4e_static_buffer_4.bin",
      "byteLength": 23472
    },
    {
      "uri": "a4e_static_buffer_5.bin",
      "byteLength": 23472
    },
    {
      "uri": "a4e_static_buffer_6.bin",
      "byteLength": 1608
    },
    {
      "uri": "a4e_static_buffer_7.bin",
      "byteLength": 4824
    },
    {
      "uri": "a4e_static_buffer_8.bin",
      "byteLength": 4824
    },
    {
      "uri": "a4e_static_buffer_9.bin",
      "byteLength": 3168
    },
    {
      "uri": "a4e_static_buffer_10.bin",
      "byteLength": 9504
    },
    {
      "uri": "a4e_static_buffer_11.bin",
      "byteLength": 9504
    },
    {
      "uri": "a4e_static_buffer_12.bin",
      "byteLength": 5664
    },
    {
      "uri": "a4e_static_buffer_13.bin",
      "byteLength": 16992
    },
    {
      "uri": "a4e_static_buffer_14.bin",
      "byteLength": 16992
    },
    {
      "uri": "a4e_static_buffer_15.bin",
      "byteLength": 8760
    },
    {
      "uri": "a4e_static_buffer_16.bin",
      "byteLength": 26280
    },
    {
      "uri": "a4e_static_buffer_17.bin",
      "byteLength": 26280
    },
    {
      "uri": "a4e_static_buffer_18.bin",
      "byteLength": 3900
    },
    {
      "uri": "a4e_static_buffer_19.bin",
      "byteLength": 11700
    },
    {
      "uri": "a4e_static_buffer_20.bin",
      "byteLength": 11700
    },
    {
      "uri": "a4e_static_buffer_21.bin",
      "byteLength": 2832
    },
    {
      "uri": "a4e_static_buffer_22.bin",
      "byteLength": 8496
    },
    {
      "uri": "a4e_static_buffer_23.bin",
      "byteLength": 8496
    },
    {
      "uri": "a4e_static_buffer_24.bin",
      "byteLength": 13920
    },
    {
      "uri": "a4e_static_buffer_25.bin",
      "byteLength": 41760
    },
    {
      "uri": "a4e_static_buffer_26.bin",
      "byteLength": 41760
    },
    {
      "uri": "a4e_static_buffer_27.bin",
      "byteLength": 15048
    },
    {
      "uri": "a4e_static_buffer_28.bin",
      "byteLength": 45144
    },
    {
      "uri": "a4e_static_buffer_29.bin",
      "byteLength": 45144
    },
    {
      "uri": "a4e_static_buffer_30.bin",
      "byteLength": 936
    },
    {
      "uri": "a4e_static_buffer_31.bin",
      "byteLength": 2808
    },
    {
      "uri": "a4e_static_buffer_32.bin",
      "byteLength": 2808
    },
    {
      "uri": "a4e_static_buffer_33.bin",
      "byteLength": 48
    },
    {
      "uri": "a4e_static_buffer_34.bin",
      "byteLength": 144
    },
    {
      "uri": "a4e_static_buffer_35.bin",
      "byteLength": 144
    },
    {
      "uri": "a4e_static_buffer_36.bin",
      "byteLength": 192
    },
    {
      "uri": "a4e_static_buffer_37.bin",
      "byteLength": 576
    },
    {
      "uri": "a4e_static_buffer_38.bin",
      "byteLength": 576
    }
  ],
  "bufferViews": [
    {
      "buffer": 0,
      "byteOffset": 0,
      "byteLength": 7548
    },
    {
      "buffer": 1,
      "byteOffset": 0,
      "byteLength": 22644
    },
    {
      "buffer": 2,
      "byteOffset": 0,
      "byteLength": 22644
    },
    {
      "buffer": 3,
      "byteOffset": 0,
      "byteLength": 7824
    },
    {
      "buffer": 4,
      "byteOffset": 0,
      "byteLength": 23472
    },
    {
      "buffer": 5,
      "byteOffset": 0,
      "byteLength": 23472
    },
    {
      "buffer": 6,
      "byteOffset": 0,
      "byteLength": 1608
    },
    {
      "buffer": 7,
      "byteOffset": 0,
      "byteLength": 4824
    },
    {
      "buffer": 8,
      "byteOffset": 0,
      "byteLength": 4824
    },
    {
      "buffer": 9,
      "byteOffset": 0,
      "byteLength": 3168
    },
    {
      "buffer": 10,
      "byteOffset": 0,
      "byteLength": 9504
    },
    {
      "buffer": 11,
      "byteOffset": 0,
      "byteLength": 9504
    },
    {
      "buffer": 12,
      "byteOffset": 0,
      "byteLength": 5664
    },
    {
      "buffer": 13,
      "byteOffset": 0,
      "byteLength": 16992
    },
    {
      "buffer": 14,
      "byteOffset": 0,
      "byteLength": 16992
    },
    {
      "buffer": 15,
      "byteOffset": 0,
      "byteLength": 8760
    },
    {
      "buffer": 16,
      "byteOffset": 0,
      "byteLength": 26280
    },
    {
      "buffer": 17,
      "byteOffset": 0,
      "byteLength": 26280
    },
    {
      "buffer": 18,
      "byteOffset": 0,
      "byteLength": 3900
    },
    {
      "buffer": 19,
      "byteOffset": 0,
      "byteLength": 11700
    },
    {
      "buffer": 20,
      "byteOffset": 0,
      "byteLength": 11700
    },
    {
      "buffer": 21,
      "byteOffset": 0,
      "byteLength": 2832
    },
    {
      "buffer": 22,
      "byteOffset": 0,
      "byteLength": 8496
    },
    {
      "buffer": 23,
      "byteOffset": 0,
      "byteLength": 8496
    },
    {
      "buffer": 24,
      "byteOffset": 0,
      "byteLength": 13920
    },
    {
      "buffer": 25,
      "byteOffset": 0,
      "byteLength": 41760
    },
    {
      "buffer": 26,
      "byteOffset": 0,
      "byteLength": 41760
    },
    {
      "buffer": 27,
      "byteOffset": 0,
      "byteLength": 15048
    },
    {
      "buffer": 28,
      "byteOffset": 0,
      "byteLength": 45144
    },
    {
      "buffer": 29,
      "byteOffset": 0,
      "byteLength": 45144
    },
    {
      "buffer": 30,
      "byteOffset": 0,
      "byteLength": 936
    },
    {
      "buffer": 31,
      "byteOffset": 0,
      "byteLength": 2808
    },
    {
      "buffer": 32,
      "byteOffset": 0,
      "byteLength": 2808
    },
    {
      "buffer": 33,
      "byteOffset": 0,
      "byteLength": 48
    },
    {
      "buffer": 34,
      "byteOffset": 0,
      "byteLength": 144
    },
    {
      "buffer": 35,
      "byteOffset": 0,
      "byteLength": 144
    },
    {
      "buffer": 36,
      "byteOffset": 0,
      "byteLength": 192
    },
    {
      "buffer": 37,
      "byteOffset": 0,
      "byteLength": 576
    },
    {
      "buffer": 38,
      "byteOffset": 0,
      "byteLength": 576
    }
  ]
}