{
  "scene": 0,
  "scenes": [
    {
      "nodes": [
        0,
        1,
        2
      ],
      "name": "0"
    },
    {
      "name": "1",
      "nodes": []
    },
    {
      "name": "2",
      "nodes": []
    },
    {
      "name": "3",
      "nodes": []
    },
    {
      "name": "4",
      "nodes": []
    },
    {
      "name": "5",
      "nodes": []
    }
  ],
  "asset": {
    "version": "2.0",
    "generator": "https://github.com/mikedh/trimesh"
  },
  "accessors": [
    {
      "componentType": 5125,
      "type": "SCALAR",
      "bufferView": 0,
      "count": 18,
      "max": [
        17
      ],
      "min": [
        0
      ]
    },
    {
      "componentType": 5126,
      "type": "VEC3",
      "byteOffset": 0,
      "bufferView": 1,
      "count": 18,
      "max": [
        0.9552454948425293,
        0.08142563700675964,
        -0.00371165806427598
      ],
      "min": [
        -1.0626742839813232,
        -0.11125972867012024,
        -0.6517238020896912
      ]
    },
    {
      "componentType": 5126,
      "count": 18,
      "type": "VEC3",
      "byteOffset": 0,
      "bufferView": 2,
      "max": [
        0.09608759731054306,
        -0.9732158184051514,
        -0.15101753175258636
      ],
      "min": [
        -0.015006323345005512,
        -0.9877412915229797,
        -0.20884951949119568
      ]
    },
    {
      "componentType": 5125,
      "type": "SCALAR",
      "bufferView": 3,
      "count": 36,
      "max": [
        35
      ],
      "min": [
        0
      ]
    },
    {
      "componentType": 5126,
      "type": "VEC3",
      "byteOffset": 0,
      "bufferView": 4,
      "count": 36,
      "max": [
        0.9552454948425293,
        0.07965925335884094,
        0.0
      ],
      "min": [
        -1.0626742839813232,
        -0.190932497382164,
        -0.6517238020896912
      ]
    },
    {
      "componentType": 5126,
      "count": 36,
      "type": "VEC3",
      "byteOffset": 0,
      "bufferView": 5,
      "max": [
        0.9584472179412842,
        0.9877412915229797,
        0.4768499732017517
      ],
      "min": [
        -0.9555787444114685,
        0.2312345802783966,
        0.15101753175258636
      ]
    },
    {
      "componentType": 5125,
      "type": "SCALAR",
      "bufferView": 6,
      "count": 153,
      "max": [
        152
      ],
      "min": [
        0
      ]
    },
    {
      "componentType": 5126,
      "type": "VEC3",
      "byteOffset": 0,
      "bufferView": 7,
      "count": 153,
      "max": [
        0.5529056191444397,
        0.06064015254378319,
        -0.12096113711595535
      ],
      "min": [
        -0.39457952976226807,
        -0.030390415340662003,
        -0.5438193678855896
      ]
    },
    {
      "componentType": 5126,
      "count": 153,
      "type": "VEC3",
      "byteOffset": 0,
      "bufferView": 8,
      "max": [
        0.027600064873695374,
        0.984598696231842,
        0.17265892028808594
      ],
      "min": [
        -0.027668409049510956,
        -0.986209511756897,
        -0.17265862226486206
      ]
    }
  ],
  "meshes": [
    {
      "name": "0_#ce3023",
      "extras": {},
      "primitives": [
        {
          "attributes": {
            "POSITION": 1,
            "NORMAL": 2
          },
          "indices": 0,
          "mode": 4,
          "material": 0
        }
      ]
    },
    {
      "name": "1_#e2e5e7",
      "extras": {},
      "primitives": [
        {
          "attributes": {
            "POSITION": 4,
            "NORMAL": 5
          },
          "indices": 3,
          "mode": 4,
          "material": 1
        }
      ]
    },
    {
      "name": "2_#ffffff",
      "extras": {},
      "primitives": [
        {
          "attributes": {
            "POSITION": 7,
            "NORMAL": 8
          },
          "indices": 6,
          "mode": 4,
          "material": 2
        }
      ]
    }
  ],
  "materials": [
    {
      "name": "#ce3023",
      "pbrMetallicRoughness": {
        "baseColorFactor": [
          0.807843137254902,
          0.18823529411764706,
          0.13725490196078433,
          1.0
        ]
      }
    },
    {
      "name": "#e2e5e7",
      "pbrMetallicRoughness": {
        "baseColorFactor": [
          0.8862745098039215,
          0.8980392156862745,
          0.9058823529411765,
          1.0
        ]
      }
    },
    {
      "name": "#ffffff",
      "pbrMetallicRoughness": {
        "baseColorFactor": [
          1.0,
          1.0,
          1.0,
          1.0
        ]
      }
    }
  ],
  "nodes": [
    {
      "name": "0_0_#ce3023",
      "mesh": 0
    },
    {
      "name": "0_1_#e2e5e7",
      "mesh": 1
    },
    {
      "name": "0_2_#ffffff",
      "mesh": 2
    }
  ],
  "buffers": [
    {
      "uri": "a4e_surf_flapLeft_buffer_0.bin",
      "byteLength": 72
    },
    {
      "uri": "a4e_surf_flapLeft_buffer_1.bin",
      "byteLength": 216
    },
    {
      "uri": "a4e_surf_flapLeft_buffer_2.bin",
      "byteLength": 216
    },
    {
      "uri": "a4e_surf_flapLeft_buffer_3.bin",
      "byteLength": 144
    },
    {
      "uri": "a4e_surf_flapLeft_buffer_4.bin",
      "byteLength": 432
    },
    {
      "uri": "a4e_surf_flapLeft_buffer_5.bin",
      "byteLength": 432
    },
    {
      "uri": "a4e_surf_flapLeft_buffer_6.bin",
      "byteLength": 612
    },
    {
      "uri": "a4e_surf_flapLeft_buffer_7.bin",
      "byteLength": 1836
    },
    {
      "uri": "a4e_surf_flapLeft_buffer_8.bin",
      "byteLength": 1836
    }
  ],
  "bufferViews": [
    {
      "buffer": 0,
      "byteOffset": 0,
      "byteLength": 72
    },
    {
      "buffer": 1,
      "byteOffset": 0,
      "byteLength": 216
    },
    {
      "buffer": 2,
      "byteOffset": 0,
      "byteLength": 216
    },
    {
      "buffer": 3,
      "byteOffset": 0,
      "byteLength": 144
    },
    {
      "buffer": 4,
      "byteOffset": 0,
      "byteLength": 432
    },
    {
      "buffer": 5,
      "byteOffset": 0,
      "byteLength": 432
    },
    {
      "buffer": 6,
      "byteOffset": 0,
      "byteLength": 612
    },
    {
      "buffer": 7,
      "byteOffset": 0,
      "byteLength": 1836
    },
    {
      "buffer": 8,
      "byteOffset": 0,
      "byteLength": 1836
    }
  ]
}