{
  "scene": 0,
  "scenes": [
    {
      "nodes": [
        0,
        1,
        2
      ],
      "name": "0"
    },
    {
      "name": "1",
      "nodes": []
    },
    {
      "name": "2",
      "nodes": []
    },
    {
      "name": "3",
      "nodes": []
    },
    {
      "name": "4",
      "nodes": []
    },
    {
      "name": "5",
      "nodes": []
    }
  ],
  "asset": {
    "version": "2.0",
    "generator": "https://github.com/mikedh/trimesh"
  },
  "accessors": [
    {
      "componentType": 5125,
      "type": "SCALAR",
      "bufferView": 0,
      "count": 6,
      "max": [
        5
      ],
      "min": [
        0
      ]
    },
    {
      "componentType": 5126,
      "type": "VEC3",
      "byteOffset": 0,
      "bufferView": 1,
      "count": 6,
      "max": [
        1.303031086921692,
        0.025943350046873093,
        1.4274795055389404
      ],
      "min": [
        -1.0740829706192017,
        -0.10328689217567444,
        -0.9103074669837952
      ]
    },
    {
      "componentType": 5126,
      "count": 6,
      "type": "VEC3",
      "byteOffset": 0,
      "bufferView": 2,
      "max": [
        0.13560061156749725,
        0.9890872240066528,
        0.1918593794107437
      ],
      "min": [
        0.09049199521541595,
        0.9720094799995422,
        0.11626534163951874
      ]
    },
    {
      "componentType": 5125,
      "type": "SCALAR",
      "bufferView": 3,
      "count": 12,
      "max": [
        11
      ],
      "min": [
        0
      ]
    },
    {
      "componentType": 5126,
      "type": "VEC3",
      "byteOffset": 0,
      "bufferView": 4,
      "count": 12,
      "max": [
        1.303031086921692,
        0.025943350046873093,
        1.4274795055389404
      ],
      "min": [
        -1.0740829706192017,
        -0.23251624405384064,
        -0.9103074669837952
      ]
    },
    {
      "componentType": 5126,
      "count": 12,
      "type": "VEC3",
      "byteOffset": 0,
      "bufferView": 5,
      "max": [
        0.7460117936134338,
        -0.030927104875445366,
        -9.625196071283426e-07
      ],
      "min": [
        -0.9986945986747742,
        -0.6263485550880432,
        -0.7958598732948303
      ]
    },
    {
      "componentType": 5126,
      "type": "VEC3",
      "byteOffset": 0,
      "bufferView": 6,
      "count": 6,
      "max": [
        1.303031086921692,
        -0.023487916216254234,
        1.4274795055389404
      ],
      "min": [
        -1.0674738883972168,
        -0.23251624405384064,
        -0.8208702802658081
      ]
    },
    {
      "componentType": 5126,
      "count": 6,
      "type": "VEC3",
      "byteOffset": 0,
      "bufferView": 7,
      "max": [
        0.20160742104053497,
        -0.9602725505828857,
        0.1929534673690796
      ],
      "min": [
        0.17889907956123352,
        -0.971784234046936,
        0.15372240543365479
      ]
    }
  ],
  "meshes": [
    {
      "name": "0_#cbcbcb",
      "extras": {},
      "primitives": [
        {
          "attributes": {
            "POSITION": 1,
            "NORMAL": 2
          },
          "indices": 0,
          "mode": 4,
          "material": 0
        }
      ]
    },
    {
      "name": "1_#ce3023",
      "extras": {},
      "primitives": [
        {
          "attributes": {
            "POSITION": 4,
            "NORMAL": 5
          },
          "indices": 3,
          "mode": 4,
          "material": 1
        }
      ]
    },
    {
      "name": "2_#e2e5e7",
      "extras": {},
      "primitives": [
        {
          "attributes": {
            "POSITION": 6,
            "NORMAL": 7
          },
          "indices": 0,
          "mode": 4,
          "material": 2
        }
      ]
    }
  ],
  "materials": [
    {
      "name": "#cbcbcb",
      "pbrMetallicRoughness": {
        "baseColorFactor": [
          0.796078431372549,
          0.796078431372549,
          0.796078431372549,
          1.0
        ]
      }
    },
    {
      "name": "#ce3023",
      "pbrMetallicRoughness": {
        "baseColorFactor": [
          0.807843137254902,
          0.18823529411764706,
          0.13725490196078433,
          1.0
        ]
      }
    },
    {
      "name": "#e2e5e7",
      "pbrMetallicRoughness": {
        "baseColorFactor": [
          0.8862745098039215,
          0.8980392156862745,
          0.9058823529411765,
          1.0
        ]
      }
    }
  ],
  "nodes": [
    {
      "name": "0_0_#cbcbcb",
      "mesh": 0
    },
    {
      "name": "0_1_#ce3023",
      "mesh": 1
    },
    {
      "name": "0_2_#e2e5e7",
      "mesh": 2
    }
  ],
  "buffers": [
    {
      "uri": "a4e_surf_slatLeft_buffer_0.bin",
      "byteLength": 24
    },
    {
      "uri": "a4e_surf_slatLeft_buffer_1.bin",
      "byteLength": 72
    },
    {
      "uri": "a4e_surf_slatLeft_buffer_2.bin",
      "byteLength": 72
    },
    {
      "uri": "a4e_surf_slatLeft_buffer_3.bin",
      "byteLength": 48
    },
    {
      "uri": "a4e_surf_slatLeft_buffer_4.bin",
      "byteLength": 144
    },
    {
      "uri": "a4e_surf_slatLeft_buffer_5.bin",
      "byteLength": 144
    },
    {
      "uri": "a4e_surf_slatLeft_buffer_6.bin",
      "byteLength": 72
    },
    {
      "uri": "a4e_surf_slatLeft_buffer_7.bin",
      "byteLength": 72
    }
  ],
  "bufferViews": [
    {
      "buffer": 0,
      "byteOffset": 0,
      "byteLength": 24
    },
    {
      "buffer": 1,
      "byteOffset": 0,
      "byteLength": 72
    },
    {
      "buffer": 2,
      "byteOffset": 0,
      "byteLength": 72
    },
    {
      "buffer": 3,
      "byteOffset": 0,
      "byteLength": 48
    },
    {
      "buffer": 4,
      "byteOffset": 0,
      "byteLength": 144
    },
    {
      "buffer": 5,
      "byteOffset": 0,
      "byteLength": 144
    },
    {
      "buffer": 6,
      "byteOffset": 0,
      "byteLength": 72
    },
    {
      "buffer": 7,
      "byteOffset": 0,
      "byteLength": 72
    }
  ]
}