{
  "scene": 0,
  "scenes": [
    {
      "nodes": [
        0,
        1,
        2
      ],
      "name": "0"
    },
    {
      "name": "1",
      "nodes": []
    },
    {
      "name": "2",
      "nodes": []
    },
    {
      "name": "3",
      "nodes": []
    },
    {
      "name": "4",
      "nodes": []
    },
    {
      "name": "5",
      "nodes": []
    }
  ],
  "asset": {
    "version": "2.0",
    "generator": "https://github.com/mikedh/trimesh"
  },
  "accessors": [
    {
      "componentType": 5125,
      "type": "SCALAR",
      "bufferView": 0,
      "count": 6,
      "max": [
        5
      ],
      "min": [
        0
      ]
    },
    {
      "componentType": 5126,
      "type": "VEC3",
      "byteOffset": 0,
      "bufferView": 1,
      "count": 6,
      "max": [
        1.0740911960601807,
        0.030403155833482742,
        1.4274789094924927
      ],
      "min": [
        -1.3030225038528442,
        -0.1032865047454834,
        -0.9103102684020996
      ]
    },
    {
      "componentType": 5126,
      "count": 6,
      "type": "VEC3",
      "byteOffset": 0,
      "bufferView": 2,
      "max": [
        -0.10572578758001328,
        0.9842380285263062,
        0.1918601244688034
      ],
      "min": [
        -0.13559921085834503,
        0.972009539604187,
        0.14176595211029053
      ]
    },
    {
      "componentType": 5125,
      "type": "SCALAR",
      "bufferView": 3,
      "count": 12,
      "max": [
        11
      ],
      "min": [
        0
      ]
    },
    {
      "componentType": 5126,
      "type": "VEC3",
      "byteOffset": 0,
      "bufferView": 4,
      "count": 12,
      "max": [
        1.0740911960601807,
        0.030403155833482742,
        1.4274789094924927
      ],
      "min": [
        -1.3030225038528442,
        -0.2325151413679123,
        -0.9103102684020996
      ]
    },
    {
      "componentType": 5126,
      "count": 12,
      "type": "VEC3",
      "byteOffset": 0,
      "bufferView": 5,
      "max": [
        0.9986944198608398,
        -0.03092367947101593,
        -3.1028380931275024e-07
      ],
      "min": [
        -0.7509693503379822,
        -0.59089595079422,
        -0.7959219813346863
      ]
    },
    {
      "componentType": 5126,
      "type": "VEC3",
      "byteOffset": 0,
      "bufferView": 6,
      "count": 6,
      "max": [
        1.0674813985824585,
        -0.023481857031583786,
        1.4274789094924927
      ],
      "min": [
        -1.3030225038528442,
        -0.2325151413679123,
        -0.8208731412887573
      ]
    },
    {
      "componentType": 5126,
      "count": 6,
      "type": "VEC3",
      "byteOffset": 0,
      "bufferView": 7,
      "max": [
        -0.17890028655529022,
        -0.960272490978241,
        0.1929522305727005
      ],
      "min": [
        -0.20160894095897675,
        -0.971784234046936,
        0.1537206918001175
      ]
    }
  ],
  "meshes": [
    {
      "name": "0_#cbcbcb",
      "extras": {},
      "primitives": [
        {
          "attributes": {
            "POSITION": 1,
            "NORMAL": 2
          },
          "indices": 0,
          "mode": 4,
          "material": 0
        }
      ]
    },
    {
      "name": "1_#ce3023",
      "extras": {},
      "primitives": [
        {
          "attributes": {
            "POSITION": 4,
            "NORMAL": 5
          },
          "indices": 3,
          "mode": 4,
          "material": 1
        }
      ]
    },
    {
      "name": "2_#e2e5e7",
      "extras": {},
      "primitives": [
        {
          "attributes": {
            "POSITION": 6,
            "NORMAL": 7
          },
          "indices": 0,
          "mode": 4,
          "material": 2
        }
      ]
    }
  ],
  "materials": [
    {
      "name": "#cbcbcb",
      "pbrMetallicRoughness": {
        "baseColorFactor": [
          0.796078431372549,
          0.796078431372549,
          0.796078431372549,
          1.0
        ]
      }
    },
    {
      "name": "#ce3023",
      "pbrMetallicRoughness": {
        "baseColorFactor": [
          0.807843137254902,
          0.18823529411764706,
          0.13725490196078433,
          1.0
        ]
      }
    },
    {
      "name": "#e2e5e7",
      "pbrMetallicRoughness": {
        "baseColorFactor": [
          0.8862745098039215,
          0.8980392156862745,
          0.9058823529411765,
          1.0
        ]
      }
    }
  ],
  "nodes": [
    {
      "name": "0_0_#cbcbcb",
      "mesh": 0
    },
    {
      "name": "0_1_#ce3023",
      "mesh": 1
    },
    {
      "name": "0_2_#e2e5e7",
      "mesh": 2
    }
  ],
  "buffers": [
    {
      "uri": "a4e_surf_slatRight_buffer_0.bin",
      "byteLength": 24
    },
    {
      "uri": "a4e_surf_slatRight_buffer_1.bin",
      "byteLength": 72
    },
    {
      "uri": "a4e_surf_slatRight_buffer_2.bin",
      "byteLength": 72
    },
    {
      "uri": "a4e_surf_slatRight_buffer_3.bin",
      "byteLength": 48
    },
    {
      "uri": "a4e_surf_slatRight_buffer_4.bin",
      "byteLength": 144
    },
    {
      "uri": "a4e_surf_slatRight_buffer_5.bin",
      "byteLength": 144
    },
    {
      "uri": "a4e_surf_slatRight_buffer_6.bin",
      "byteLength": 72
    },
    {
      "uri": "a4e_surf_slatRight_buffer_7.bin",
      "byteLength": 72
    }
  ],
  "bufferViews": [
    {
      "buffer": 0,
      "byteOffset": 0,
      "byteLength": 24
    },
    {
      "buffer": 1,
      "byteOffset": 0,
      "byteLength": 72
    },
    {
      "buffer": 2,
      "byteOffset": 0,
      "byteLength": 72
    },
    {
      "buffer": 3,
      "byteOffset": 0,
      "byteLength": 48
    },
    {
      "buffer": 4,
      "byteOffset": 0,
      "byteLength": 144
    },
    {
      "buffer": 5,
      "byteOffset": 0,
      "byteLength": 144
    },
    {
      "buffer": 6,
      "byteOffset": 0,
      "byteLength": 72
    },
    {
      "buffer": 7,
      "byteOffset": 0,
      "byteLength": 72
    }
  ]
}