{
  "scene": 0,
  "scenes": [
    {
      "nodes": [
        0,
        1
      ],
      "name": "0"
    },
    {
      "name": "1",
      "nodes": []
    },
    {
      "name": "2",
      "nodes": []
    },
    {
      "name": "3",
      "nodes": []
    },
    {
      "name": "4",
      "nodes": []
    },
    {
      "name": "5",
      "nodes": []
    }
  ],
  "asset": {
    "version": "2.0",
    "generator": "https://github.com/mikedh/trimesh"
  },
  "accessors": [
    {
      "componentType": 5125,
      "type": "SCALAR",
      "bufferView": 0,
      "count": 60,
      "max": [
        59
      ],
      "min": [
        0
      ]
    },
    {
      "componentType": 5126,
      "type": "VEC3",
      "byteOffset": 0,
      "bufferView": 1,
      "count": 60,
      "max": [
        1.5804357528686523,
        0.01912049576640129,
        2.1855380535125732
      ],
      "min": [
        -1.705828309059143,
        -0.17077332735061646,
        -0.878244936466217
      ]
    },
    {
      "componentType": 5126,
      "count": 60,
      "type": "VEC3",
      "byteOffset": 0,
      "bufferView": 2,
      "max": [
        1.0,
        0.9918680191040039,
        0.7682353854179382
      ],
      "min": [
        -1.0,
        -0.0013312920928001404,
        -0.7993574142456055
      ]
    },
    {
      "componentType": 5125,
      "type": "SCALAR",
      "bufferView": 3,
      "count": 12,
      "max": [
        11
      ],
      "min": [
        0
      ]
    },
    {
      "componentType": 5126,
      "type": "VEC3",
      "byteOffset": 0,
      "bufferView": 4,
      "count": 12,
      "max": [
        1.5804357528686523,
        -0.09394915401935577,
        2.1855380535125732
      ],
      "min": [
        -1.705828309059143,
        -0.17077332735061646,
        -0.8781991600990295
      ]
    },
    {
      "componentType": 5126,
      "count": 12,
      "type": "VEC3",
      "byteOffset": 0,
      "bufferView": 5,
      "max": [
        0.11364510655403137,
        -0.9852997064590454,
        0.12755116820335388
      ],
      "min": [
        -0.0327448733150959,
        -0.9990314245223999,
        -0.029392708092927933
      ]
    }
  ],
  "meshes": [
    {
      "name": "0_#989898",
      "extras": {},
      "primitives": [
        {
          "attributes": {
            "POSITION": 1,
            "NORMAL": 2
          },
          "indices": 0,
          "mode": 4,
          "material": 0
        }
      ]
    },
    {
      "name": "1_#b5b5b5",
      "extras": {},
      "primitives": [
        {
          "attributes": {
            "POSITION": 4,
            "NORMAL": 5
          },
          "indices": 3,
          "mode": 4,
          "material": 1
        }
      ]
    }
  ],
  "materials": [
    {
      "name": "#989898",
      "pbrMetallicRoughness": {
        "baseColorFactor": [
          0.596078431372549,
          0.596078431372549,
          0.596078431372549,
          1.0
        ]
      }
    },
    {
      "name": "#b5b5b5",
      "pbrMetallicRoughness": {
        "baseColorFactor": [
          0.7098039215686275,
          0.7098039215686275,
          0.7098039215686275,
          1.0
        ]
      }
    }
  ],
  "nodes": [
    {
      "name": "0_0_#989898",
      "mesh": 0
    },
    {
      "name": "0_1_#b5b5b5",
      "mesh": 1
    }
  ],
  "buffers": [
    {
      "uri": "f16_surf_slatLeft_buffer_0.bin",
      "byteLength": 240
    },
    {
      "uri": "f16_surf_slatLeft_buffer_1.bin",
      "byteLength": 720
    },
    {
      "uri": "f16_surf_slatLeft_buffer_2.bin",
      "byteLength": 720
    },
    {
      "uri": "f16_surf_slatLeft_buffer_3.bin",
      "byteLength": 48
    },
    {
      "uri": "f16_surf_slatLeft_buffer_4.bin",
      "byteLength": 144
    },
    {
      "uri": "f16_surf_slatLeft_buffer_5.bin",
      "byteLength": 144
    }
  ],
  "bufferViews": [
    {
      "buffer": 0,
      "byteOffset": 0,
      "byteLength": 240
    },
    {
      "buffer": 1,
      "byteOffset": 0,
      "byteLength": 720
    },
    {
      "buffer": 2,
      "byteOffset": 0,
      "byteLength": 720
    },
    {
      "buffer": 3,
      "byteOffset": 0,
      "byteLength": 48
    },
    {
      "buffer": 4,
      "byteOffset": 0,
      "byteLength": 144
    },
    {
      "buffer": 5,
      "byteOffset": 0,
      "byteLength": 144
    }
  ]
}