{
  "scene": 0,
  "scenes": [
    {
      "nodes": [
        0,
        1
      ],
      "name": "0"
    },
    {
      "name": "1",
      "nodes": []
    },
    {
      "name": "2",
      "nodes": []
    },
    {
      "name": "3",
      "nodes": []
    },
    {
      "name": "4",
      "nodes": []
    },
    {
      "name": "5",
      "nodes": []
    }
  ],
  "asset": {
    "version": "2.0",
    "generator": "https://github.com/mikedh/trimesh"
  },
  "accessors": [
    {
      "componentType": 5125,
      "type": "SCALAR",
      "bufferView": 0,
      "count": 42,
      "max": [
        41
      ],
      "min": [
        0
      ]
    },
    {
      "componentType": 5126,
      "type": "VEC3",
      "byteOffset": 0,
      "bufferView": 1,
      "count": 42,
      "max": [
        1.3711273670196533,
        0.11325440555810928,
        0.28094175457954407
      ],
      "min": [
        -1.371129035949707,
        -0.1132541075348854,
        -0.6652805209159851
      ]
    },
    {
      "componentType": 5126,
      "count": 42,
      "type": "VEC3",
      "byteOffset": 0,
      "bufferView": 2,
      "max": [
        1.0,
        0.9894128441810608,
        0.9869056344032288
      ],
      "min": [
        -1.0,
        -0.8826320767402649,
        -0.35816437005996704
      ]
    },
    {
      "componentType": 5125,
      "type": "SCALAR",
      "bufferView": 3,
      "count": 6,
      "max": [
        5
      ],
      "min": [
        0
      ]
    },
    {
      "componentType": 5126,
      "type": "VEC3",
      "byteOffset": 0,
      "bufferView": 4,
      "count": 6,
      "max": [
        1.3711273670196533,
        -0.04743529111146927,
        0.23100705444812775
      ],
      "min": [
        -1.371128797531128,
        -0.1132541075348854,
        -0.6652805209159851
      ]
    },
    {
      "componentType": 5126,
      "count": 6,
      "type": "VEC3",
      "byteOffset": 0,
      "bufferView": 5,
      "max": [
        0.0023066967260092497,
        -0.9976820349693298,
        -0.06621608883142471
      ],
      "min": [
        0.0017119934782385826,
        -0.9978026151657104,
        -0.06802676618099213
      ]
    }
  ],
  "meshes": [
    {
      "name": "0_#989898",
      "extras": {},
      "primitives": [
        {
          "attributes": {
            "POSITION": 1,
            "NORMAL": 2
          },
          "indices": 0,
          "mode": 4,
          "material": 0
        }
      ]
    },
    {
      "name": "1_#b5b5b5",
      "extras": {},
      "primitives": [
        {
          "attributes": {
            "POSITION": 4,
            "NORMAL": 5
          },
          "indices": 3,
          "mode": 4,
          "material": 1
        }
      ]
    }
  ],
  "materials": [
    {
      "name": "#989898",
      "pbrMetallicRoughness": {
        "baseColorFactor": [
          0.596078431372549,
          0.596078431372549,
          0.596078431372549,
          1.0
        ]
      }
    },
    {
      "name": "#b5b5b5",
      "pbrMetallicRoughness": {
        "baseColorFactor": [
          0.7098039215686275,
          0.7098039215686275,
          0.7098039215686275,
          1.0
        ]
      }
    }
  ],
  "nodes": [
    {
      "name": "0_0_#989898",
      "mesh": 0
    },
    {
      "name": "0_1_#b5b5b5",
      "mesh": 1
    }
  ],
  "buffers": [
    {
      "uri": "f16_surf_aileronLeft_buffer_0.bin",
      "byteLength": 168
    },
    {
      "uri": "f16_surf_aileronLeft_buffer_1.bin",
      "byteLength": 504
    },
    {
      "uri": "f16_surf_aileronLeft_buffer_2.bin",
      "byteLength": 504
    },
    {
      "uri": "f16_surf_aileronLeft_buffer_3.bin",
      "byteLength": 24
    },
    {
      "uri": "f16_surf_aileronLeft_buffer_4.bin",
      "byteLength": 72
    },
    {
      "uri": "f16_surf_aileronLeft_buffer_5.bin",
      "byteLength": 72
    }
  ],
  "bufferViews": [
    {
      "buffer": 0,
      "byteOffset": 0,
      "byteLength": 168
    },
    {
      "buffer": 1,
      "byteOffset": 0,
      "byteLength": 504
    },
    {
      "buffer": 2,
      "byteOffset": 0,
      "byteLength": 504
    },
    {
      "buffer": 3,
      "byteOffset": 0,
      "byteLength": 24
    },
    {
      "buffer": 4,
      "byteOffset": 0,
      "byteLength": 72
    },
    {
      "buffer": 5,
      "byteOffset": 0,
      "byteLength": 72
    }
  ]
}