{
  "scene": 0,
  "scenes": [
    {
      "nodes": [
        0
      ],
      "name": "0"
    },
    {
      "name": "1",
      "nodes": []
    },
    {
      "name": "2",
      "nodes": []
    },
    {
      "name": "3",
      "nodes": []
    },
    {
      "name": "4",
      "nodes": []
    },
    {
      "name": "5",
      "nodes": []
    }
  ],
  "asset": {
    "version": "2.0",
    "generator": "https://github.com/mikedh/trimesh"
  },
  "accessors": [
    {
      "componentType": 5125,
      "type": "SCALAR",
      "bufferView": 0,
      "count": 24,
      "max": [
        23
      ],
      "min": [
        0
      ]
    },
    {
      "componentType": 5126,
      "type": "VEC3",
      "byteOffset": 0,
      "bufferView": 1,
      "count": 24,
      "max": [
        0.898392379283905,
        0.05887221544981003,
        0.25003793835639954
      ],
      "min": [
        -0.8984010219573975,
        -0.0463235005736351,
        -0.7464271187782288
      ]
    },
    {
      "componentType": 5126,
      "count": 24,
      "type": "VEC3",
      "byteOffset": 0,
      "bufferView": 2,
      "max": [
        0.0,
        1.0,
        0.0
      ],
      "min": [
        0.0,
        1.0,
        0.0
      ]
    }
  ],
  "meshes": [
    {
      "name": "0_#bacdd8",
      "extras": {},
      "primitives": [
        {
          "attributes": {
            "POSITION": 1,
            "NORMAL": 2
          },
          "indices": 0,
          "mode": 4,
          "material": 0
        }
      ]
    }
  ],
  "materials": [
    {
      "name": "#bacdd8",
      "pbrMetallicRoughness": {
        "baseColorFactor": [
          0.7294117647058823,
          0.803921568627451,
          0.8470588235294118,
          1.0
        ]
      }
    }
  ],
  "nodes": [
    {
      "name": "0_0_#bacdd8",
      "mesh": 0
    }
  ],
  "buffers": [
    {
      "uri": "su33_surf_aileronRight_buffer_0.bin",
      "byteLength": 96
    },
    {
      "uri": "su33_surf_aileronRight_buffer_1.bin",
      "byteLength": 288
    },
    {
      "uri": "su33_surf_aileronRight_buffer_2.bin",
      "byteLength": 288
    }
  ],
  "bufferViews": [
    {
      "buffer": 0,
      "byteOffset": 0,
      "byteLength": 96
    },
    {
      "buffer": 1,
      "byteOffset": 0,
      "byteLength": 288
    },
    {
      "buffer": 2,
      "byteOffset": 0,
      "byteLength": 288
    }
  ]
}