{
  "scene": 0,
  "scenes": [
    {
      "nodes": [
        0
      ],
      "name": "0"
    },
    {
      "name": "1",
      "nodes": []
    },
    {
      "name": "2",
      "nodes": []
    },
    {
      "name": "3",
      "nodes": []
    },
    {
      "name": "4",
      "nodes": []
    },
    {
      "name": "5",
      "nodes": []
    }
  ],
  "asset": {
    "version": "2.0",
    "generator": "https://github.com/mikedh/trimesh"
  },
  "accessors": [
    {
      "componentType": 5125,
      "type": "SCALAR",
      "bufferView": 0,
      "count": 135540,
      "max": [
        135539
      ],
      "min": [
        0
      ]
    },
    {
      "componentType": 5126,
      "type": "VEC3",
      "byteOffset": 0,
      "bufferView": 1,
      "count": 135540,
      "max": [
        6.986012935638428,
        0.0,
        10.54768180847168
      ],
      "min": [
        -6.986013889312744,
        0.0,
        -10.309088706970215
      ]
    },
    {
      "componentType": 5126,
      "count": 135540,
      "type": "VEC3",
      "byteOffset": 0,
      "bufferView": 2,
      "max": [
        0.0,
        1.0,
        0.0
      ],
      "min": [
        0.0,
        1.0,
        0.0
      ]
    }
  ],
  "meshes": [
    {
      "name": "0_SCENERY_TREE_SHADOW",
      "extras": {},
      "primitives": [
        {
          "attributes": {
            "POSITION": 1,
            "NORMAL": 2
          },
          "indices": 0,
          "mode": 4,
          "material": 0
        }
      ]
    }
  ],
  "materials": [
    {
      "name": "SCENERY_TREE_SHADOW",
      "pbrMetallicRoughness": {
        "baseColorFactor": [
          1.0,
          1.0,
          1.0,
          1.0
        ]
      }
    }
  ],
  "nodes": [
    {
      "name": "0_0_SCENERY_TREE_SHADOW",
      "mesh": 0
    }
  ],
  "buffers": [
    {
      "uri": "su33_shadow_buffer_0.bin",
      "byteLength": 542160
    },
    {
      "uri": "su33_shadow_buffer_1.bin",
      "byteLength": 1626480
    },
    {
      "uri": "su33_shadow_buffer_2.bin",
      "byteLength": 1626480
    }
  ],
  "bufferViews": [
    {
      "buffer": 0,
      "byteOffset": 0,
      "byteLength": 542160
    },
    {
      "buffer": 1,
      "byteOffset": 0,
      "byteLength": 1626480
    },
    {
      "buffer": 2,
      "byteOffset": 0,
      "byteLength": 1626480
    }
  ]
}