{
  "scene": 0,
  "scenes": [
    {
      "nodes": [
        0,
        1,
        2,
        3
      ],
      "name": "0"
    },
    {
      "name": "1",
      "nodes": []
    },
    {
      "name": "2",
      "nodes": []
    },
    {
      "name": "3",
      "nodes": []
    },
    {
      "name": "4",
      "nodes": []
    },
    {
      "name": "5",
      "nodes": []
    }
  ],
  "asset": {
    "version": "2.0",
    "generator": "https://github.com/mikedh/trimesh"
  },
  "accessors": [
    {
      "componentType": 5125,
      "type": "SCALAR",
      "bufferView": 0,
      "count": 6,
      "max": [
        5
      ],
      "min": [
        0
      ]
    },
    {
      "componentType": 5126,
      "type": "VEC3",
      "byteOffset": 0,
      "bufferView": 1,
      "count": 6,
      "max": [
        0.42437201738357544,
        0.21088136732578278,
        -0.006973281968384981
      ],
      "min": [
        -0.41631656885147095,
        -0.27897530794143677,
        -2.7408547401428223
      ]
    },
    {
      "componentType": 5126,
      "count": 6,
      "type": "VEC3",
      "byteOffset": 0,
      "bufferView": 2,
      "max": [
        0.0,
        1.0,
        0.0
      ],
      "min": [
        0.0,
        1.0,
        0.0
      ]
    },
    {
      "componentType": 5125,
      "type": "SCALAR",
      "bufferView": 3,
      "count": 57,
      "max": [
        56
      ],
      "min": [
        0
      ]
    },
    {
      "componentType": 5126,
      "type": "VEC3",
      "byteOffset": 0,
      "bufferView": 4,
      "count": 57,
      "max": [
        0.4196872413158417,
        0.2836395800113678,
        0.0
      ],
      "min": [
        -0.41991129517555237,
        -0.14484553039073944,
        -1.8235983848571777
      ]
    },
    {
      "componentType": 5126,
      "count": 57,
      "type": "VEC3",
      "byteOffset": 0,
      "bufferView": 5,
      "max": [
        0.0,
        1.0,
        0.0
      ],
      "min": [
        0.0,
        1.0,
        0.0
      ]
    },
    {
      "componentType": 5125,
      "type": "SCALAR",
      "bufferView": 6,
      "count": 75,
      "max": [
        74
      ],
      "min": [
        0
      ]
    },
    {
      "componentType": 5126,
      "type": "VEC3",
      "byteOffset": 0,
      "bufferView": 7,
      "count": 75,
      "max": [
        0.42437201738357544,
        0.1915498524904251,
        -0.43654921650886536
      ],
      "min": [
        -0.4217773675918579,
        -0.27897530794143677,
        -2.7478280067443848
      ]
    },
    {
      "componentType": 5126,
      "count": 75,
      "type": "VEC3",
      "byteOffset": 0,
      "bufferView": 8,
      "max": [
        0.0,
        1.0,
        0.0
      ],
      "min": [
        0.0,
        1.0,
        0.0
      ]
    },
    {
      "componentType": 5125,
      "type": "SCALAR",
      "bufferView": 9,
      "count": 24,
      "max": [
        23
      ],
      "min": [
        0
      ]
    },
    {
      "componentType": 5126,
      "type": "VEC3",
      "byteOffset": 0,
      "bufferView": 10,
      "count": 24,
      "max": [
        0.42437201738357544,
        0.23412825167179108,
        0.0
      ],
      "min": [
        -0.42177677154541016,
        -0.27897530794143677,
        -2.7408547401428223
      ]
    },
    {
      "componentType": 5126,
      "count": 24,
      "type": "VEC3",
      "byteOffset": 0,
      "bufferView": 11,
      "max": [
        0.0,
        1.0,
        0.0
      ],
      "min": [
        0.0,
        1.0,
        0.0
      ]
    }
  ],
  "meshes": [
    {
      "name": "0_#3396bb",
      "extras": {},
      "primitives": [
        {
          "attributes": {
            "POSITION": 1,
            "NORMAL": 2
          },
          "indices": 0,
          "mode": 4,
          "material": 0
        }
      ]
    },
    {
      "name": "1_#73cdec",
      "extras": {},
      "primitives": [
        {
          "attributes": {
            "POSITION": 4,
            "NORMAL": 5
          },
          "indices": 3,
          "mode": 4,
          "material": 1
        }
      ]
    },
    {
      "name": "2_#bacdd8",
      "extras": {},
      "primitives": [
        {
          "attributes": {
            "POSITION": 7,
            "NORMAL": 8
          },
          "indices": 6,
          "mode": 4,
          "material": 2
        }
      ]
    },
    {
      "name": "3_#f4463f",
      "extras": {},
      "primitives": [
        {
          "attributes": {
            "POSITION": 10,
            "NORMAL": 11
          },
          "indices": 9,
          "mode": 4,
          "material": 3
        }
      ]
    }
  ],
  "materials": [
    {
      "name": "#3396bb",
      "pbrMetallicRoughness": {
        "baseColorFactor": [
          0.2,
          0.5882352941176471,
          0.7333333333333333,
          1.0
        ]
      }
    },
    {
      "name": "#73cdec",
      "pbrMetallicRoughness": {
        "baseColorFactor": [
          0.45098039215686275,
          0.803921568627451,
          0.9254901960784314,
          1.0
        ]
      }
    },
    {
      "name": "#bacdd8",
      "pbrMetallicRoughness": {
        "baseColorFactor": [
          0.7294117647058823,
          0.803921568627451,
          0.8470588235294118,
          1.0
        ]
      }
    },
    {
      "name": "#f4463f",
      "pbrMetallicRoughness": {
        "baseColorFactor": [
          0.9568627450980393,
          0.27450980392156865,
          0.24705882352941178,
          1.0
        ]
      }
    }
  ],
  "nodes": [
    {
      "name": "0_0_#3396bb",
      "mesh": 0
    },
    {
      "name": "0_1_#73cdec",
      "mesh": 1
    },
    {
      "name": "0_2_#bacdd8",
      "mesh": 2
    },
    {
      "name": "0_3_#f4463f",
      "mesh": 3
    }
  ],
  "buffers": [
    {
      "uri": "su33_surf_speedbrake_buffer_0.bin",
      "byteLength": 24
    },
    {
      "uri": "su33_surf_speedbrake_buffer_1.bin",
      "byteLength": 72
    },
    {
      "uri": "su33_surf_speedbrake_buffer_2.bin",
      "byteLength": 72
    },
    {
      "uri": "su33_surf_speedbrake_buffer_3.bin",
      "byteLength": 228
    },
    {
      "uri": "su33_surf_speedbrake_buffer_4.bin",
      "byteLength": 684
    },
    {
      "uri": "su33_surf_speedbrake_buffer_5.bin",
      "byteLength": 684
    },
    {
      "uri": "su33_surf_speedbrake_buffer_6.bin",
      "byteLength": 300
    },
    {
      "uri": "su33_surf_speedbrake_buffer_7.bin",
      "byteLength": 900
    },
    {
      "uri": "su33_surf_speedbrake_buffer_8.bin",
      "byteLength": 900
    },
    {
      "uri": "su33_surf_speedbrake_buffer_9.bin",
      "byteLength": 96
    },
    {
      "uri": "su33_surf_speedbrake_buffer_10.bin",
      "byteLength": 288
    },
    {
      "uri": "su33_surf_speedbrake_buffer_11.bin",
      "byteLength": 288
    }
  ],
  "bufferViews": [
    {
      "buffer": 0,
      "byteOffset": 0,
      "byteLength": 24
    },
    {
      "buffer": 1,
      "byteOffset": 0,
      "byteLength": 72
    },
    {
      "buffer": 2,
      "byteOffset": 0,
      "byteLength": 72
    },
    {
      "buffer": 3,
      "byteOffset": 0,
      "byteLength": 228
    },
    {
      "buffer": 4,
      "byteOffset": 0,
      "byteLength": 684
    },
    {
      "buffer": 5,
      "byteOffset": 0,
      "byteLength": 684
    },
    {
      "buffer": 6,
      "byteOffset": 0,
      "byteLength": 300
    },
    {
      "buffer": 7,
      "byteOffset": 0,
      "byteLength": 900
    },
    {
      "buffer": 8,
      "byteOffset": 0,
      "byteLength": 900
    },
    {
      "buffer": 9,
      "byteOffset": 0,
      "byteLength": 96
    },
    {
      "buffer": 10,
      "byteOffset": 0,
      "byteLength": 288
    },
    {
      "buffer": 11,
      "byteOffset": 0,
      "byteLength": 288
    }
  ]
}