{
  "scene": 0,
  "scenes": [
    {
      "nodes": [
        0,
        1,
        2,
        3,
        4,
        5,
        6,
        7,
        8,
        9,
        10,
        11,
        12,
        13,
        14,
        15,
        16,
        17,
        18,
        19,
        20,
        21,
        22,
        23,
        24,
        25,
        26,
        27,
        28
      ],
      "name": "0"
    },
    {
      "name": "1",
      "nodes": []
    },
    {
      "name": "2",
      "nodes": []
    },
    {
      "name": "3",
      "nodes": []
    },
    {
      "name": "4",
      "nodes": []
    },
    {
      "name": "5",
      "nodes": []
    }
  ],
  "asset": {
    "version": "2.0",
    "generator": "https://github.com/mikedh/trimesh"
  },
  "accessors": [
    {
      "componentType": 5125,
      "type": "SCALAR",
      "bufferView": 0,
      "count": 5721,
      "max": [
        5720
      ],
      "min": [
        0
      ]
    },
    {
      "componentType": 5126,
      "type": "VEC3",
      "byteOffset": 0,
      "bufferView": 1,
      "count": 5721,
      "max": [
        6.986012935638428,
        1.8993068933486938,
        7.055981636047363
      ],
      "min": [
        -6.986013889312744,
        -1.124964952468872,
        -9.476885795593262
      ]
    },
    {
      "componentType": 5126,
      "count": 5721,
      "type": "VEC3",
      "byteOffset": 0,
      "bufferView": 2,
      "max": [
        0.0,
        1.0,
        0.0
      ],
      "min": [
        0.0,
        1.0,
        0.0
      ]
    },
    {
      "componentType": 5125,
      "type": "SCALAR",
      "bufferView": 3,
      "count": 26694,
      "max": [
        26693
      ],
      "min": [
        0
      ]
    },
    {
      "componentType": 5126,
      "type": "VEC3",
      "byteOffset": 0,
      "bufferView": 4,
      "count": 26694,
      "max": [
        5.767584323883057,
        3.466459035873413,
        10.54768180847168
      ],
      "min": [
        -5.767493724822998,
        -0.6739335060119629,
        -10.309088706970215
      ]
    },
    {
      "componentType": 5126,
      "count": 26694,
      "type": "VEC3",
      "byteOffset": 0,
      "bufferView": 5,
      "max": [
        0.0,
        1.0,
        0.0
      ],
      "min": [
        0.0,
        1.0,
        0.0
      ]
    },
    {
      "componentType": 5125,
      "type": "SCALAR",
      "bufferView": 6,
      "count": 2040,
      "max": [
        2039
      ],
      "min": [
        0
      ]
    },
    {
      "componentType": 5126,
      "type": "VEC3",
      "byteOffset": 0,
      "bufferView": 7,
      "count": 2040,
      "max": [
        6.897140979766846,
        3.3086485862731934,
        7.186217308044434
      ],
      "min": [
        -6.897141933441162,
        -0.26661932468414307,
        -9.476885795593262
      ]
    },
    {
      "componentType": 5126,
      "count": 2040,
      "type": "VEC3",
      "byteOffset": 0,
      "bufferView": 8,
      "max": [
        0.0,
        1.0,
        0.0
      ],
      "min": [
        0.0,
        1.0,
        0.0
      ]
    },
    {
      "componentType": 5125,
      "type": "SCALAR",
      "bufferView": 9,
      "count": 1191,
      "max": [
        1190
      ],
      "min": [
        0
      ]
    },
    {
      "componentType": 5126,
      "type": "VEC3",
      "byteOffset": 0,
      "bufferView": 10,
      "count": 1191,
      "max": [
        6.897140979766846,
        2.8099007606506348,
        4.5272908210754395
      ],
      "min": [
        -5.597174167633057,
        -0.32400840520858765,
        -9.908183097839355
      ]
    },
    {
      "componentType": 5126,
      "count": 1191,
      "type": "VEC3",
      "byteOffset": 0,
      "bufferView": 11,
      "max": [
        0.0,
        1.0,
        0.0
      ],
      "min": [
        0.0,
        1.0,
        0.0
      ]
    },
    {
      "componentType": 5125,
      "type": "SCALAR",
      "bufferView": 12,
      "count": 870,
      "max": [
        869
      ],
      "min": [
        0
      ]
    },
    {
      "componentType": 5126,
      "type": "VEC3",
      "byteOffset": 0,
      "bufferView": 13,
      "count": 870,
      "max": [
        1.7471615076065063,
        1.6999236345291138,
        6.2771406173706055
      ],
      "min": [
        -3.9862570762634277,
        -0.779793918132782,
        -7.006368637084961
      ]
    },
    {
      "componentType": 5126,
      "count": 870,
      "type": "VEC3",
      "byteOffset": 0,
      "bufferView": 14,
      "max": [
        0.0,
        1.0,
        0.0
      ],
      "min": [
        0.0,
        1.0,
        0.0
      ]
    },
    {
      "componentType": 5125,
      "type": "SCALAR",
      "bufferView": 15,
      "count": 714,
      "max": [
        713
      ],
      "min": [
        0
      ]
    },
    {
      "componentType": 5126,
      "type": "VEC3",
      "byteOffset": 0,
      "bufferView": 16,
      "count": 714,
      "max": [
        5.697380065917969,
        2.5386767387390137,
        5.608808517456055
      ],
      "min": [
        -5.69728946685791,
        0.3056911528110504,
        -7.649332523345947
      ]
    },
    {
      "componentType": 5126,
      "count": 714,
      "type": "VEC3",
      "byteOffset": 0,
      "bufferView": 17,
      "max": [
        0.0,
        1.0,
        0.0
      ],
      "min": [
        0.0,
        1.0,
        0.0
      ]
    },
    {
      "componentType": 5125,
      "type": "SCALAR",
      "bufferView": 18,
      "count": 528,
      "max": [
        527
      ],
      "min": [
        0
      ]
    },
    {
      "componentType": 5126,
      "type": "VEC3",
      "byteOffset": 0,
      "bufferView": 19,
      "count": 528,
      "max": [
        1.7471615076065063,
        1.693027377128601,
        6.316173553466797
      ],
      "min": [
        -1.7471615076065063,
        -0.7628867030143738,
        -8.014348030090332
      ]
    },
    {
      "componentType": 5126,
      "count": 528,
      "type": "VEC3",
      "byteOffset": 0,
      "bufferView": 20,
      "max": [
        0.0,
        1.0,
        0.0
      ],
      "min": [
        0.0,
        1.0,
        0.0
      ]
    },
    {
      "componentType": 5125,
      "type": "SCALAR",
      "bufferView": 21,
      "count": 23262,
      "max": [
        23261
      ],
      "min": [
        0
      ]
    },
    {
      "componentType": 5126,
      "type": "VEC3",
      "byteOffset": 0,
      "bufferView": 22,
      "count": 23262,
      "max": [
        3.406996726989746,
        1.6999236345291138,
        5.720959663391113
      ],
      "min": [
        -3.406996726989746,
        -0.8045061230659485,
        -9.938109397888184
      ]
    },
    {
      "componentType": 5126,
      "count": 23262,
      "type": "VEC3",
      "byteOffset": 0,
      "bufferView": 23,
      "max": [
        0.0,
        1.0,
        0.0
      ],
      "min": [
        0.0,
        1.0,
        0.0
      ]
    },
    {
      "componentType": 5125,
      "type": "SCALAR",
      "bufferView": 24,
      "count": 348,
      "max": [
        347
      ],
      "min": [
        0
      ]
    },
    {
      "componentType": 5126,
      "type": "VEC3",
      "byteOffset": 0,
      "bufferView": 25,
      "count": 348,
      "max": [
        2.0862600803375244,
        2.310333251953125,
        3.921856164932251
      ],
      "min": [
        -2.0862598419189453,
        -0.6724649667739868,
        -7.664788246154785
      ]
    },
    {
      "componentType": 5126,
      "count": 348,
      "type": "VEC3",
      "byteOffset": 0,
      "bufferView": 26,
      "max": [
        0.0,
        1.0,
        0.0
      ],
      "min": [
        0.0,
        1.0,
        0.0
      ]
    },
    {
      "componentType": 5125,
      "type": "SCALAR",
      "bufferView": 27,
      "count": 1380,
      "max": [
        1379
      ],
      "min": [
        0
      ]
    },
    {
      "componentType": 5126,
      "type": "VEC3",
      "byteOffset": 0,
      "bufferView": 28,
      "count": 1380,
      "max": [
        1.6265809535980225,
        1.3583258390426636,
        5.320950984954834
      ],
      "min": [
        -1.6265809535980225,
        -0.7254422307014465,
        -9.037749290466309
      ]
    },
    {
      "componentType": 5126,
      "count": 1380,
      "type": "VEC3",
      "byteOffset": 0,
      "bufferView": 29,
      "max": [
        0.0,
        1.0,
        0.0
      ],
      "min": [
        0.0,
        1.0,
        0.0
      ]
    },
    {
      "componentType": 5125,
      "type": "SCALAR",
      "bufferView": 30,
      "count": 15609,
      "max": [
        15608
      ],
      "min": [
        0
      ]
    },
    {
      "componentType": 5126,
      "type": "VEC3",
      "byteOffset": 0,
      "bufferView": 31,
      "count": 15609,
      "max": [
        2.104337453842163,
        1.4158265590667725,
        5.326035499572754
      ],
      "min": [
        -2.1043379306793213,
        0.5528696775436401,
        -6.250974178314209
      ]
    },
    {
      "componentType": 5126,
      "count": 15609,
      "type": "VEC3",
      "byteOffset": 0,
      "bufferView": 32,
      "max": [
        0.0,
        1.0,
        0.0
      ],
      "min": [
        0.0,
        1.0,
        0.0
      ]
    },
    {
      "componentType": 5125,
      "type": "SCALAR",
      "bufferView": 33,
      "count": 6996,
      "max": [
        6995
      ],
      "min": [
        0
      ]
    },
    {
      "componentType": 5126,
      "type": "VEC3",
      "byteOffset": 0,
      "bufferView": 34,
      "count": 6996,
      "max": [
        2.1030428409576416,
        1.3978806734085083,
        5.473185062408447
      ],
      "min": [
        -2.1030428409576416,
        0.6285500526428223,
        -6.144920349121094
      ]
    },
    {
      "componentType": 5126,
      "count": 6996,
      "type": "VEC3",
      "byteOffset": 0,
      "bufferView": 35,
      "max": [
        0.0,
        1.0,
        0.0
      ],
      "min": [
        0.0,
        1.0,
        0.0
      ]
    },
    {
      "componentType": 5125,
      "type": "SCALAR",
      "bufferView": 36,
      "count": 513,
      "max": [
        512
      ],
      "min": [
        0
      ]
    },
    {
      "componentType": 5126,
      "type": "VEC3",
      "byteOffset": 0,
      "bufferView": 37,
      "count": 513,
      "max": [
        2.174128293991089,
        1.1866496801376343,
        7.177669525146484
      ],
      "min": [
        -2.174128293991089,
        -0.7720767259597778,
        -9.037749290466309
      ]
    },
    {
      "componentType": 5126,
      "count": 513,
      "type": "VEC3",
      "byteOffset": 0,
      "bufferView": 38,
      "max": [
        0.0,
        1.0,
        0.0
      ],
      "min": [
        0.0,
        1.0,
        0.0
      ]
    },
    {
      "componentType": 5125,
      "type": "SCALAR",
      "bufferView": 39,
      "count": 645,
      "max": [
        644
      ],
      "min": [
        0
      ]
    },
    {
      "componentType": 5126,
      "type": "VEC3",
      "byteOffset": 0,
      "bufferView": 40,
      "count": 645,
      "max": [
        1.725252628326416,
        1.3657015562057495,
        6.408679962158203
      ],
      "min": [
        -1.725252628326416,
        -0.7628867030143738,
        -9.774218559265137
      ]
    },
    {
      "componentType": 5126,
      "count": 645,
      "type": "VEC3",
      "byteOffset": 0,
      "bufferView": 41,
      "max": [
        0.0,
        1.0,
        0.0
      ],
      "min": [
        0.0,
        1.0,
        0.0
      ]
    },
    {
      "componentType": 5125,
      "type": "SCALAR",
      "bufferView": 42,
      "count": 420,
      "max": [
        419
      ],
      "min": [
        0
      ]
    },
    {
      "componentType": 5126,
      "type": "VEC3",
      "byteOffset": 0,
      "bufferView": 43,
      "count": 420,
      "max": [
        1.669440507888794,
        0.7729432582855225,
        2.2417447566986084
      ],
      "min": [
        -1.669440507888794,
        -0.7765502333641052,
        -9.871048927307129
      ]
    },
    {
      "componentType": 5126,
      "count": 420,
      "type": "VEC3",
      "byteOffset": 0,
      "bufferView": 44,
      "max": [
        0.0,
        1.0,
        0.0
      ],
      "min": [
        0.0,
        1.0,
        0.0
      ]
    },
    {
      "componentType": 5125,
      "type": "SCALAR",
      "bufferView": 45,
      "count": 483,
      "max": [
        482
      ],
      "min": [
        0
      ]
    },
    {
      "componentType": 5126,
      "type": "VEC3",
      "byteOffset": 0,
      "bufferView": 46,
      "count": 483,
      "max": [
        0.386551171541214,
        1.8085628747940063,
        6.450392723083496
      ],
      "min": [
        -0.386551171541214,
        0.9933391809463501,
        3.4565303325653076
      ]
    },
    {
      "componentType": 5126,
      "count": 483,
      "type": "VEC3",
      "byteOffset": 0,
      "bufferView": 47,
      "max": [
        0.0,
        1.0,
        0.0
      ],
      "min": [
        0.0,
        1.0,
        0.0
      ]
    },
    {
      "componentType": 5125,
      "type": "SCALAR",
      "bufferView": 48,
      "count": 1251,
      "max": [
        1250
      ],
      "min": [
        0
      ]
    },
    {
      "componentType": 5126,
      "type": "VEC3",
      "byteOffset": 0,
      "bufferView": 49,
      "count": 1251,
      "max": [
        0.5136582851409912,
        1.7760416269302368,
        6.306308746337891
      ],
      "min": [
        -0.5136582851409912,
        0.5897160172462463,
        3.404250144958496
      ]
    },
    {
      "componentType": 5126,
      "count": 1251,
      "type": "VEC3",
      "byteOffset": 0,
      "bufferView": 50,
      "max": [
        0.0,
        1.0,
        0.0
      ],
      "min": [
        0.0,
        1.0,
        0.0
      ]
    },
    {
      "componentType": 5125,
      "type": "SCALAR",
      "bufferView": 51,
      "count": 25767,
      "max": [
        25766
      ],
      "min": [
        0
      ]
    },
    {
      "componentType": 5126,
      "type": "VEC3",
      "byteOffset": 0,
      "bufferView": 52,
      "count": 25767,
      "max": [
        2.102652072906494,
        1.6082837581634521,
        5.790915012359619
      ],
      "min": [
        -2.102651834487915,
        0.7614253759384155,
        -5.986976146697998
      ]
    },
    {
      "componentType": 5126,
      "count": 25767,
      "type": "VEC3",
      "byteOffset": 0,
      "bufferView": 53,
      "max": [
        0.0,
        1.0,
        0.0
      ],
      "min": [
        0.0,
        1.0,
        0.0
      ]
    },
    {
      "componentType": 5125,
      "type": "SCALAR",
      "bufferView": 54,
      "count": 6,
      "max": [
        5
      ],
      "min": [
        0
      ]
    },
    {
      "componentType": 5126,
      "type": "VEC3",
      "byteOffset": 0,
      "bufferView": 55,
      "count": 6,
      "max": [
        -0.20848792791366577,
        1.0980684757232666,
        5.304714679718018
      ],
      "min": [
        -0.21409288048744202,
        1.0031414031982422,
        5.278244972229004
      ]
    },
    {
      "componentType": 5126,
      "count": 6,
      "type": "VEC3",
      "byteOffset": 0,
      "bufferView": 56,
      "max": [
        0.0,
        1.0,
        0.0
      ],
      "min": [
        0.0,
        1.0,
        0.0
      ]
    },
    {
      "componentType": 5125,
      "type": "SCALAR",
      "bufferView": 57,
      "count": 3801,
      "max": [
        3800
      ],
      "min": [
        0
      ]
    },
    {
      "componentType": 5126,
      "type": "VEC3",
      "byteOffset": 0,
      "bufferView": 58,
      "count": 3801,
      "max": [
        0.5097984075546265,
        1.347109317779541,
        6.186891555786133
      ],
      "min": [
        -0.505084753036499,
        0.6290990114212036,
        4.161388874053955
      ]
    },
    {
      "componentType": 5126,
      "count": 3801,
      "type": "VEC3",
      "byteOffset": 0,
      "bufferView": 59,
      "max": [
        0.0,
        1.0,
        0.0
      ],
      "min": [
        0.0,
        1.0,
        0.0
      ]
    },
    {
      "componentType": 5125,
      "type": "SCALAR",
      "bufferView": 60,
      "count": 216,
      "max": [
        215
      ],
      "min": [
        0
      ]
    },
    {
      "componentType": 5126,
      "type": "VEC3",
      "byteOffset": 0,
      "bufferView": 61,
      "count": 216,
      "max": [
        0.5208454728126526,
        1.177654504776001,
        5.330760955810547
      ],
      "min": [
        -0.5208454728126526,
        0.632980227470398,
        4.159379005432129
      ]
    },
    {
      "componentType": 5126,
      "count": 216,
      "type": "VEC3",
      "byteOffset": 0,
      "bufferView": 62,
      "max": [
        0.0,
        1.0,
        0.0
      ],
      "min": [
        0.0,
        1.0,
        0.0
      ]
    },
    {
      "componentType": 5125,
      "type": "SCALAR",
      "bufferView": 63,
      "count": 30,
      "max": [
        29
      ],
      "min": [
        0
      ]
    },
    {
      "componentType": 5126,
      "type": "VEC3",
      "byteOffset": 0,
      "bufferView": 64,
      "count": 30,
      "max": [
        -0.27321550250053406,
        0.9635302424430847,
        5.265130043029785
      ],
      "min": [
        -0.3279607594013214,
        0.918513834476471,
        5.252586364746094
      ]
    },
    {
      "componentType": 5126,
      "count": 30,
      "type": "VEC3",
      "byteOffset": 0,
      "bufferView": 65,
      "max": [
        0.0,
        1.0,
        0.0
      ],
      "min": [
        0.0,
        1.0,
        0.0
      ]
    },
    {
      "componentType": 5125,
      "type": "SCALAR",
      "bufferView": 66,
      "count": 5559,
      "max": [
        5558
      ],
      "min": [
        0
      ]
    },
    {
      "componentType": 5126,
      "type": "VEC3",
      "byteOffset": 0,
      "bufferView": 67,
      "count": 5559,
      "max": [
        2.103527069091797,
        1.3881686925888062,
        5.296875953674316
      ],
      "min": [
        -2.103527069091797,
        -0.8058145046234131,
        -6.017632961273193
      ]
    },
    {
      "componentType": 5126,
      "count": 5559,
      "type": "VEC3",
      "byteOffset": 0,
      "bufferView": 68,
      "max": [
        0.0,
        1.0,
        0.0
      ],
      "min": [
        0.0,
        1.0,
        0.0
      ]
    },
    {
      "componentType": 5125,
      "type": "SCALAR",
      "bufferView": 69,
      "count": 2202,
      "max": [
        2201
      ],
      "min": [
        0
      ]
    },
    {
      "componentType": 5126,
      "type": "VEC3",
      "byteOffset": 0,
      "bufferView": 70,
      "count": 2202,
      "max": [
        0.46978890895843506,
        1.3684109449386597,
        5.32135009765625
      ],
      "min": [
        -0.4974178373813629,
        0.849382221698761,
        4.310856342315674
      ]
    },
    {
      "componentType": 5126,
      "count": 2202,
      "type": "VEC3",
      "byteOffset": 0,
      "bufferView": 71,
      "max": [
        0.0,
        1.0,
        0.0
      ],
      "min": [
        0.0,
        1.0,
        0.0
      ]
    },
    {
      "componentType": 5126,
      "type": "VEC3",
      "byteOffset": 0,
      "bufferView": 72,
      "count": 420,
      "max": [
        2.101208209991455,
        1.0484517812728882,
        5.291639804840088
      ],
      "min": [
        -2.101207971572876,
        0.5257477164268494,
        -5.804035186767578
      ]
    },
    {
      "componentType": 5125,
      "type": "SCALAR",
      "bufferView": 73,
      "count": 2166,
      "max": [
        2165
      ],
      "min": [
        0
      ]
    },
    {
      "componentType": 5126,
      "type": "VEC3",
      "byteOffset": 0,
      "bufferView": 74,
      "count": 2166,
      "max": [
        1.3461711406707764,
        1.298091173171997,
        5.32019567489624
      ],
      "min": [
        -1.346171259880066,
        -0.579961359500885,
        0.0558478944003582
      ]
    },
    {
      "componentType": 5126,
      "count": 2166,
      "type": "VEC3",
      "byteOffset": 0,
      "bufferView": 75,
      "max": [
        0.0,
        1.0,
        0.0
      ],
      "min": [
        0.0,
        1.0,
        0.0
      ]
    },
    {
      "componentType": 5125,
      "type": "SCALAR",
      "bufferView": 76,
      "count": 912,
      "max": [
        911
      ],
      "min": [
        0
      ]
    },
    {
      "componentType": 5126,
      "type": "VEC3",
      "byteOffset": 0,
      "bufferView": 77,
      "count": 912,
      "max": [
        1.3613712787628174,
        1.2484139204025269,
        5.3069024085998535
      ],
      "min": [
        -1.3596522808074951,
        -0.6434462666511536,
        -0.04918549209833145
      ]
    },
    {
      "componentType": 5126,
      "count": 912,
      "type": "VEC3",
      "byteOffset": 0,
      "bufferView": 78,
      "max": [
        0.0,
        1.0,
        0.0
      ],
      "min": [
        0.0,
        1.0,
        0.0
      ]
    },
    {
      "componentType": 5125,
      "type": "SCALAR",
      "bufferView": 79,
      "count": 1248,
      "max": [
        1247
      ],
      "min": [
        0
      ]
    },
    {
      "componentType": 5126,
      "type": "VEC3",
      "byteOffset": 0,
      "bufferView": 80,
      "count": 1248,
      "max": [
        -0.1802135407924652,
        1.2746660709381104,
        5.286390781402588
      ],
      "min": [
        -0.29742127656936646,
        1.1573305130004883,
        5.2796196937561035
      ]
    },
    {
      "componentType": 5126,
      "count": 1248,
      "type": "VEC3",
      "byteOffset": 0,
      "bufferView": 81,
      "max": [
        0.0,
        1.0,
        0.0
      ],
      "min": [
        0.0,
        1.0,
        0.0
      ]
    },
    {
      "componentType": 5126,
      "type": "VEC3",
      "byteOffset": 0,
      "bufferView": 82,
      "count": 6,
      "max": [
        0.24454310536384583,
        -0.04507589712738991,
        -8.19111156463623
      ],
      "min": [
        -0.24454310536384583,
        -0.11632198840379715,
        -8.191112518310547
      ]
    }
  ],
  "meshes": [
    {
      "name": "0_#bacdd8",
      "extras": {},
      "primitives": [
        {
          "attributes": {
            "POSITION": 1,
            "NORMAL": 2
          },
          "indices": 0,
          "mode": 4,
          "material": 0
        }
      ]
    },
    {
      "name": "1_#eaebea",
      "extras": {},
      "primitives": [
        {
          "attributes": {
            "POSITION": 4,
            "NORMAL": 5
          },
          "indices": 3,
          "mode": 4,
          "material": 1
        }
      ]
    },
    {
      "name": "2_#3396bb",
      "extras": {},
      "primitives": [
        {
          "attributes": {
            "POSITION": 7,
            "NORMAL": 8
          },
          "indices": 6,
          "mode": 4,
          "material": 2
        }
      ]
    },
    {
      "name": "3_#73cdec",
      "extras": {},
      "primitives": [
        {
          "attributes": {
            "POSITION": 10,
            "NORMAL": 11
          },
          "indices": 9,
          "mode": 4,
          "material": 3
        }
      ]
    },
    {
      "name": "4_#969899",
      "extras": {},
      "primitives": [
        {
          "attributes": {
            "POSITION": 13,
            "NORMAL": 14
          },
          "indices": 12,
          "mode": 4,
          "material": 4
        }
      ]
    },
    {
      "name": "5_#f4463f",
      "extras": {},
      "primitives": [
        {
          "attributes": {
            "POSITION": 16,
            "NORMAL": 17
          },
          "indices": 15,
          "mode": 4,
          "material": 5
        }
      ]
    },
    {
      "name": "6_#b2b2b2",
      "extras": {},
      "primitives": [
        {
          "attributes": {
            "POSITION": 19,
            "NORMAL": 20
          },
          "indices": 18,
          "mode": 4,
          "material": 6
        }
      ]
    },
    {
      "name": "7_#c6c7c6",
      "extras": {},
      "primitives": [
        {
          "attributes": {
            "POSITION": 22,
            "NORMAL": 23
          },
          "indices": 21,
          "mode": 4,
          "material": 7
        }
      ]
    },
    {
      "name": "8_#2e61b0",
      "extras": {},
      "primitives": [
        {
          "attributes": {
            "POSITION": 25,
            "NORMAL": 26
          },
          "indices": 24,
          "mode": 4,
          "material": 8
        }
      ]
    },
    {
      "name": "9_#000000",
      "extras": {},
      "primitives": [
        {
          "attributes": {
            "POSITION": 28,
            "NORMAL": 29
          },
          "indices": 27,
          "mode": 4,
          "material": 9
        }
      ]
    },
    {
      "name": "10_#121212",
      "extras": {},
      "primitives": [
        {
          "attributes": {
            "POSITION": 31,
            "NORMAL": 32
          },
          "indices": 30,
          "mode": 4,
          "material": 10
        }
      ]
    },
    {
      "name": "11_#2b2b29",
      "extras": {},
      "primitives": [
        {
          "attributes": {
            "POSITION": 34,
            "NORMAL": 35
          },
          "indices": 33,
          "mode": 4,
          "material": 11
        }
      ]
    },
    {
      "name": "12_#1e1e1d",
      "extras": {},
      "primitives": [
        {
          "attributes": {
            "POSITION": 37,
            "NORMAL": 38
          },
          "indices": 36,
          "mode": 4,
          "material": 12
        }
      ]
    },
    {
      "name": "13_#282828",
      "extras": {},
      "primitives": [
        {
          "attributes": {
            "POSITION": 40,
            "NORMAL": 41
          },
          "indices": 39,
          "mode": 4,
          "material": 13
        }
      ]
    },
    {
      "name": "14_#3e3e3c",
      "extras": {},
      "primitives": [
        {
          "attributes": {
            "POSITION": 43,
            "NORMAL": 44
          },
          "indices": 42,
          "mode": 4,
          "material": 14
        }
      ]
    },
    {
      "name": "15_#d1f7ff",
      "extras": {},
      "primitives": [
        {
          "attributes": {
            "POSITION": 46,
            "NORMAL": 47
          },
          "indices": 45,
          "mode": 4,
          "material": 15
        }
      ]
    },
    {
      "name": "16_#567f90",
      "extras": {},
      "primitives": [
        {
          "attributes": {
            "POSITION": 49,
            "NORMAL": 50
          },
          "indices": 48,
          "mode": 4,
          "material": 16
        }
      ]
    },
    {
      "name": "17_#1d1d1d",
      "extras": {},
      "primitives": [
        {
          "attributes": {
            "POSITION": 52,
            "NORMAL": 53
          },
          "indices": 51,
          "mode": 4,
          "material": 17
        }
      ]
    },
    {
      "name": "18_#238526",
      "extras": {},
      "primitives": [
        {
          "attributes": {
            "POSITION": 55,
            "NORMAL": 56
          },
          "indices": 54,
          "mode": 4,
          "material": 18
        }
      ]
    },
    {
      "name": "19_#4a6f7b",
      "extras": {},
      "primitives": [
        {
          "attributes": {
            "POSITION": 58,
            "NORMAL": 59
          },
          "indices": 57,
          "mode": 4,
          "material": 19
        }
      ]
    },
    {
      "name": "20_#4f7886",
      "extras": {},
      "primitives": [
        {
          "attributes": {
            "POSITION": 61,
            "NORMAL": 62
          },
          "indices": 60,
          "mode": 4,
          "material": 20
        }
      ]
    },
    {
      "name": "21_#4fa84a",
      "extras": {},
      "primitives": [
        {
          "attributes": {
            "POSITION": 64,
            "NORMAL": 65
          },
          "indices": 63,
          "mode": 4,
          "material": 21
        }
      ]
    },
    {
      "name": "22_#999a99",
      "extras": {},
      "primitives": [
        {
          "attributes": {
            "POSITION": 67,
            "NORMAL": 68
          },
          "indices": 66,
          "mode": 4,
          "material": 22
        }
      ]
    },
    {
      "name": "23_#d32d26",
      "extras": {},
      "primitives": [
        {
          "attributes": {
            "POSITION": 70,
            "NORMAL": 71
          },
          "indices": 69,
          "mode": 4,
          "material": 23
        }
      ]
    },
    {
      "name": "24_#dba652",
      "extras": {},
      "primitives": [
        {
          "attributes": {
            "POSITION": 72,
            "NORMAL": 44
          },
          "indices": 42,
          "mode": 4,
          "material": 24
        }
      ]
    },
    {
      "name": "25_#dbdb34",
      "extras": {},
      "primitives": [
        {
          "attributes": {
            "POSITION": 74,
            "NORMAL": 75
          },
          "indices": 73,
          "mode": 4,
          "material": 25
        }
      ]
    },
    {
      "name": "26_#ff0102",
      "extras": {},
      "primitives": [
        {
          "attributes": {
            "POSITION": 77,
            "NORMAL": 78
          },
          "indices": 76,
          "mode": 4,
          "material": 26
        }
      ]
    },
    {
      "name": "27_#2fd430",
      "extras": {},
      "primitives": [
        {
          "attributes": {
            "POSITION": 80,
            "NORMAL": 81
          },
          "indices": 79,
          "mode": 4,
          "material": 27
        }
      ]
    },
    {
      "name": "28_#6d9ba2",
      "extras": {},
      "primitives": [
        {
          "attributes": {
            "POSITION": 82,
            "NORMAL": 56
          },
          "indices": 54,
          "mode": 4,
          "material": 28
        }
      ]
    }
  ],
  "materials": [
    {
      "name": "#bacdd8",
      "pbrMetallicRoughness": {
        "baseColorFactor": [
          0.7294117647058823,
          0.803921568627451,
          0.8470588235294118,
          1.0
        ]
      }
    },
    {
      "name": "#eaebea",
      "pbrMetallicRoughness": {
        "baseColorFactor": [
          0.9176470588235294,
          0.9215686274509803,
          0.9176470588235294,
          1.0
        ]
      }
    },
    {
      "name": "#3396bb",
      "pbrMetallicRoughness": {
        "baseColorFactor": [
          0.2,
          0.5882352941176471,
          0.7333333333333333,
          1.0
        ]
      }
    },
    {
      "name": "#73cdec",
      "pbrMetallicRoughness": {
        "baseColorFactor": [
          0.45098039215686275,
          0.803921568627451,
          0.9254901960784314,
          1.0
        ]
      }
    },
    {
      "name": "#969899",
      "pbrMetallicRoughness": {
        "baseColorFactor": [
          0.5882352941176471,
          0.596078431372549,
          0.6,
          1.0
        ]
      }
    },
    {
      "name": "#f4463f",
      "pbrMetallicRoughness": {
        "baseColorFactor": [
          0.9568627450980393,
          0.27450980392156865,
          0.24705882352941178,
          1.0
        ]
      }
    },
    {
      "name": "#b2b2b2",
      "pbrMetallicRoughness": {
        "baseColorFactor": [
          0.6980392156862745,
          0.6980392156862745,
          0.6980392156862745,
          1.0
        ]
      }
    },
    {
      "name": "#c6c7c6",
      "pbrMetallicRoughness": {
        "baseColorFactor": [
          0.7764705882352941,
          0.7803921568627451,
          0.7764705882352941,
          1.0
        ]
      }
    },
    {
      "name": "#2e61b0",
      "pbrMetallicRoughness": {
        "baseColorFactor": [
          0.1803921568627451,
          0.3803921568627451,
          0.6901960784313725,
          1.0
        ]
      }
    },
    {
      "name": "#000000",
      "pbrMetallicRoughness": {
        "baseColorFactor": [
          0.0,
          0.0,
          0.0,
          1.0
        ]
      }
    },
    {
      "name": "#121212",
      "pbrMetallicRoughness": {
        "baseColorFactor": [
          0.07058823529411765,
          0.07058823529411765,
          0.07058823529411765,
          1.0
        ]
      }
    },
    {
      "name": "#2b2b29",
      "pbrMetallicRoughness": {
        "baseColorFactor": [
          0.16862745098039217,
          0.16862745098039217,
          0.1607843137254902,
          1.0
        ]
      }
    },
    {
      "name": "#1e1e1d",
      "pbrMetallicRoughness": {
        "baseColorFactor": [
          0.11764705882352941,
          0.11764705882352941,
          0.11372549019607843,
          1.0
        ]
      }
    },
    {
      "name": "#282828",
      "pbrMetallicRoughness": {
        "baseColorFactor": [
          0.1568627450980392,
          0.1568627450980392,
          0.1568627450980392,
          1.0
        ]
      }
    },
    {
      "name": "#3e3e3c",
      "pbrMetallicRoughness": {
        "baseColorFactor": [
          0.24313725490196078,
          0.24313725490196078,
          0.23529411764705882,
          1.0
        ]
      }
    },
    {
      "name": "#d1f7ff",
      "pbrMetallicRoughness": {
        "baseColorFactor": [
          0.8196078431372549,
          0.9686274509803922,
          1.0,
          1.0
        ]
      }
    },
    {
      "name": "#567f90",
      "pbrMetallicRoughness": {
        "baseColorFactor": [
          0.33725490196078434,
          0.4980392156862745,
          0.5647058823529412,
          1.0
        ]
      }
    },
    {
      "name": "#1d1d1d",
      "pbrMetallicRoughness": {
        "baseColorFactor": [
          0.11372549019607843,
          0.11372549019607843,
          0.11372549019607843,
          1.0
        ]
      }
    },
    {
      "name": "#238526",
      "pbrMetallicRoughness": {
        "baseColorFactor": [
          0.13725490196078433,
          0.5215686274509804,
          0.14901960784313725,
          1.0
        ]
      }
    },
    {
      "name": "#4a6f7b",
      "pbrMetallicRoughness": {
        "baseColorFactor": [
          0.2901960784313726,
          0.43529411764705883,
          0.4823529411764706,
          1.0
        ]
      }
    },
    {
      "name": "#4f7886",
      "pbrMetallicRoughness": {
        "baseColorFactor": [
          0.30980392156862746,
          0.47058823529411764,
          0.5254901960784314,
          1.0
        ]
      }
    },
    {
      "name": "#4fa84a",
      "pbrMetallicRoughness": {
        "baseColorFactor": [
          0.30980392156862746,
          0.6588235294117647,
          0.2901960784313726,
          1.0
        ]
      }
    },
    {
      "name": "#999a99",
      "pbrMetallicRoughness": {
        "baseColorFactor": [
          0.6,
          0.6039215686274509,
          0.6,
          1.0
        ]
      }
    },
    {
      "name": "#d32d26",
      "pbrMetallicRoughness": {
        "baseColorFactor": [
          0.8274509803921568,
          0.17647058823529413,
          0.14901960784313725,
          1.0
        ]
      }
    },
    {
      "name": "#dba652",
      "pbrMetallicRoughness": {
        "baseColorFactor": [
          0.8588235294117647,
          0.6509803921568628,
          0.3215686274509804,
          1.0
        ]
      }
    },
    {
      "name": "#dbdb34",
      "pbrMetallicRoughness": {
        "baseColorFactor": [
          0.8588235294117647,
          0.8588235294117647,
          0.20392156862745098,
          1.0
        ]
      }
    },
    {
      "name": "#ff0102",
      "pbrMetallicRoughness": {
        "baseColorFactor": [
          1.0,
          0.00392156862745098,
          0.00784313725490196,
          1.0
        ]
      }
    },
    {
      "name": "#2fd430",
      "pbrMetallicRoughness": {
        "baseColorFactor": [
          0.1843137254901961,
          0.8313725490196079,
          0.18823529411764706,
          1.0
        ]
      }
    },
    {
      "name": "#6d9ba2",
      "pbrMetallicRoughness": {
        "baseColorFactor": [
          0.42745098039215684,
          0.6078431372549019,
          0.6352941176470588,
          1.0
        ]
      }
    }
  ],
  "nodes": [
    {
      "name": "0_0_#bacdd8",
      "mesh": 0
    },
    {
      "name": "0_1_#eaebea",
      "mesh": 1
    },
    {
      "name": "0_2_#3396bb",
      "mesh": 2
    },
    {
      "name": "0_3_#73cdec",
      "mesh": 3
    },
    {
      "name": "0_4_#969899",
      "mesh": 4
    },
    {
      "name": "0_5_#f4463f",
      "mesh": 5
    },
    {
      "name": "0_6_#b2b2b2",
      "mesh": 6
    },
    {
      "name": "0_7_#c6c7c6",
      "mesh": 7
    },
    {
      "name": "0_8_#2e61b0",
      "mesh": 8
    },
    {
      "name": "0_9_#000000",
      "mesh": 9
    },
    {
      "name": "0_10_#121212",
      "mesh": 10
    },
    {
      "name": "0_11_#2b2b29",
      "mesh": 11
    },
    {
      "name": "0_12_#1e1e1d",
      "mesh": 12
    },
    {
      "name": "0_13_#282828",
      "mesh": 13
    },
    {
      "name": "0_14_#3e3e3c",
      "mesh": 14
    },
    {
      "name": "0_15_#d1f7ff",
      "mesh": 15
    },
    {
      "name": "0_16_#567f90",
      "mesh": 16
    },
    {
      "name": "0_17_#1d1d1d",
      "mesh": 17
    },
    {
      "name": "0_18_#238526",
      "mesh": 18
    },
    {
      "name": "0_19_#4a6f7b",
      "mesh": 19
    },
    {
      "name": "0_20_#4f7886",
      "mesh": 20
    },
    {
      "name": "0_21_#4fa84a",
      "mesh": 21
    },
    {
      "name": "0_22_#999a99",
      "mesh": 22
    },
    {
      "name": "0_23_#d32d26",
      "mesh": 23
    },
    {
      "name": "0_24_#dba652",
      "mesh": 24
    },
    {
      "name": "0_25_#dbdb34",
      "mesh": 25
    },
    {
      "name": "0_26_#ff0102",
      "mesh": 26
    },
    {
      "name": "0_27_#2fd430",
      "mesh": 27
    },
    {
      "name": "0_28_#6d9ba2",
      "mesh": 28
    }
  ],
  "buffers": [
    {
      "uri": "su33_body_buffer_0.bin",
      "byteLength": 22884
    },
    {
      "uri": "su33_body_buffer_1.bin",
      "byteLength": 68652
    },
    {
      "uri": "su33_body_buffer_2.bin",
      "byteLength": 68652
    },
    {
      "uri": "su33_body_buffer_3.bin",
      "byteLength": 106776
    },
    {
      "uri": "su33_body_buffer_4.bin",
      "byteLength": 320328
    },
    {
      "uri": "su33_body_buffer_5.bin",
      "byteLength": 320328
    },
    {
      "uri": "su33_body_buffer_6.bin",
      "byteLength": 8160
    },
    {
      "uri": "su33_body_buffer_7.bin",
      "byteLength": 24480
    },
    {
      "uri": "su33_body_buffer_8.bin",
      "byteLength": 24480
    },
    {
      "uri": "su33_body_buffer_9.bin",
      "byteLength": 4764
    },
    {
      "uri": "su33_body_buffer_10.bin",
      "byteLength": 14292
    },
    {
      "uri": "su33_body_buffer_11.bin",
      "byteLength": 14292
    },
    {
      "uri": "su33_body_buffer_12.bin",
      "byteLength": 3480
    },
    {
      "uri": "su33_body_buffer_13.bin",
      "byteLength": 10440
    },
    {
      "uri": "su33_body_buffer_14.bin",
      "byteLength": 10440
    },
    {
      "uri": "su33_body_buffer_15.bin",
      "byteLength": 2856
    },
    {
      "uri": "su33_body_buffer_16.bin",
      "byteLength": 8568
    },
    {
      "uri": "su33_body_buffer_17.bin",
      "byteLength": 8568
    },
    {
      "uri": "su33_body_buffer_18.bin",
      "byteLength": 2112
    },
    {
      "uri": "su33_body_buffer_19.bin",
      "byteLength": 6336
    },
    {
      "uri": "su33_body_buffer_20.bin",
      "byteLength": 6336
    },
    {
      "uri": "su33_body_buffer_21.bin",
      "byteLength": 93048
    },
    {
      "uri": "su33_body_buffer_22.bin",
      "byteLength": 279144
    },
    {
      "uri": "su33_body_buffer_23.bin",
      "byteLength": 279144
    },
    {
      "uri": "su33_body_buffer_24.bin",
      "byteLength": 1392
    },
    {
      "uri": "su33_body_buffer_25.bin",
      "byteLength": 4176
    },
    {
      "uri": "su33_body_buffer_26.bin",
      "byteLength": 4176
    },
    {
      "uri": "su33_body_buffer_27.bin",
      "byteLength": 5520
    },
    {
      "uri": "su33_body_buffer_28.bin",
      "byteLength": 16560
    },
    {
      "uri": "su33_body_buffer_29.bin",
      "byteLength": 16560
    },
    {
      "uri": "su33_body_buffer_30.bin",
      "byteLength": 62436
    },
    {
      "uri": "su33_body_buffer_31.bin",
      "byteLength": 187308
    },
    {
      "uri": "su33_body_buffer_32.bin",
      "byteLength": 187308
    },
    {
      "uri": "su33_body_buffer_33.bin",
      "byteLength": 27984
    },
    {
      "uri": "su33_body_buffer_34.bin",
      "byteLength": 83952
    },
    {
      "uri": "su33_body_buffer_35.bin",
      "byteLength": 83952
    },
    {
      "uri": "su33_body_buffer_36.bin",
      "byteLength": 2052
    },
    {
      "uri": "su33_body_buffer_37.bin",
      "byteLength": 6156
    },
    {
      "uri": "su33_body_buffer_38.bin",
      "byteLength": 6156
    },
    {
      "uri": "su33_body_buffer_39.bin",
      "byteLength": 2580
    },
    {
      "uri": "su33_body_buffer_40.bin",
      "byteLength": 7740
    },
    {
      "uri": "su33_body_buffer_41.bin",
      "byteLength": 7740
    },
    {
      "uri": "su33_body_buffer_42.bin",
      "byteLength": 1680
    },
    {
      "uri": "su33_body_buffer_43.bin",
      "byteLength": 5040
    },
    {
      "uri": "su33_body_buffer_44.bin",
      "byteLength": 5040
    },
    {
      "uri": "su33_body_buffer_45.bin",
      "byteLength": 1932
    },
    {
      "uri": "su33_body_buffer_46.bin",
      "byteLength": 5796
    },
    {
      "uri": "su33_body_buffer_47.bin",
      "byteLength": 5796
    },
    {
      "uri": "su33_body_buffer_48.bin",
      "byteLength": 5004
    },
    {
      "uri": "su33_body_buffer_49.bin",
      "byteLength": 15012
    },
    {
      "uri": "su33_body_buffer_50.bin",
      "byteLength": 15012
    },
    {
      "uri": "su33_body_buffer_51.bin",
      "byteLength": 103068
    },
    {
      "uri": "su33_body_buffer_52.bin",
      "byteLength": 309204
    },
    {
      "uri": "su33_body_buffer_53.bin",
      "byteLength": 309204
    },
    {
      "uri": "su33_body_buffer_54.bin",
      "byteLength": 24
    },
    {
      "uri": "su33_body_buffer_55.bin",
      "byteLength": 72
    },
    {
      "uri": "su33_body_buffer_56.bin",
      "byteLength": 72
    },
    {
      "uri": "su33_body_buffer_57.bin",
      "byteLength": 15204
    },
    {
      "uri": "su33_body_buffer_58.bin",
      "byteLength": 45612
    },
    {
      "uri": "su33_body_buffer_59.bin",
      "byteLength": 45612
    },
    {
      "uri": "su33_body_buffer_60.bin",
      "byteLength": 864
    },
    {
      "uri": "su33_body_buffer_61.bin",
      "byteLength": 2592
    },
    {
      "uri": "su33_body_buffer_62.bin",
      "byteLength": 2592
    },
    {
      "uri": "su33_body_buffer_63.bin",
      "byteLength": 120
    },
    {
      "uri": "su33_body_buffer_64.bin",
      "byteLength": 360
    },
    {
      "uri": "su33_body_buffer_65.bin",
      "byteLength": 360
    },
    {
      "uri": "su33_body_buffer_66.bin",
      "byteLength": 22236
    },
    {
      "uri": "su33_body_buffer_67.bin",
      "byteLength": 66708
    },
    {
      "uri": "su33_body_buffer_68.bin",
      "byteLength": 66708
    },
    {
      "uri": "su33_body_buffer_69.bin",
      "byteLength": 8808
    },
    {
      "uri": "su33_body_buffer_70.bin",
      "byteLength": 26424
    },
    {
      "uri": "su33_body_buffer_71.bin",
      "byteLength": 26424
    },
    {
      "uri": "su33_body_buffer_72.bin",
      "byteLength": 5040
    },
    {
      "uri": "su33_body_buffer_73.bin",
      "byteLength": 8664
    },
    {
      "uri": "su33_body_buffer_74.bin",
      "byteLength": 25992
    },
    {
      "uri": "su33_body_buffer_75.bin",
      "byteLength": 25992
    },
    {
      "uri": "su33_body_buffer_76.bin",
      "byteLength": 3648
    },
    {
      "uri": "su33_body_buffer_77.bin",
      "byteLength": 10944
    },
    {
      "uri": "su33_body_buffer_78.bin",
      "byteLength": 10944
    },
    {
      "uri": "su33_body_buffer_79.bin",
      "byteLength": 4992
    },
    {
      "uri": "su33_body_buffer_80.bin",
      "byteLength": 14976
    },
    {
      "uri": "su33_body_buffer_81.bin",
      "byteLength": 14976
    },
    {
      "uri": "su33_body_buffer_82.bin",
      "byteLength": 72
    }
  ],
  "bufferViews": [
    {
      "buffer": 0,
      "byteOffset": 0,
      "byteLength": 22884
    },
    {
      "buffer": 1,
      "byteOffset": 0,
      "byteLength": 68652
    },
    {
      "buffer": 2,
      "byteOffset": 0,
      "byteLength": 68652
    },
    {
      "buffer": 3,
      "byteOffset": 0,
      "byteLength": 106776
    },
    {
      "buffer": 4,
      "byteOffset": 0,
      "byteLength": 320328
    },
    {
      "buffer": 5,
      "byteOffset": 0,
      "byteLength": 320328
    },
    {
      "buffer": 6,
      "byteOffset": 0,
      "byteLength": 8160
    },
    {
      "buffer": 7,
      "byteOffset": 0,
      "byteLength": 24480
    },
    {
      "buffer": 8,
      "byteOffset": 0,
      "byteLength": 24480
    },
    {
      "buffer": 9,
      "byteOffset": 0,
      "byteLength": 4764
    },
    {
      "buffer": 10,
      "byteOffset": 0,
      "byteLength": 14292
    },
    {
      "buffer": 11,
      "byteOffset": 0,
      "byteLength": 14292
    },
    {
      "buffer": 12,
      "byteOffset": 0,
      "byteLength": 3480
    },
    {
      "buffer": 13,
      "byteOffset": 0,
      "byteLength": 10440
    },
    {
      "buffer": 14,
      "byteOffset": 0,
      "byteLength": 10440
    },
    {
      "buffer": 15,
      "byteOffset": 0,
      "byteLength": 2856
    },
    {
      "buffer": 16,
      "byteOffset": 0,
      "byteLength": 8568
    },
    {
      "buffer": 17,
      "byteOffset": 0,
      "byteLength": 8568
    },
    {
      "buffer": 18,
      "byteOffset": 0,
      "byteLength": 2112
    },
    {
      "buffer": 19,
      "byteOffset": 0,
      "byteLength": 6336
    },
    {
      "buffer": 20,
      "byteOffset": 0,
      "byteLength": 6336
    },
    {
      "buffer": 21,
      "byteOffset": 0,
      "byteLength": 93048
    },
    {
      "buffer": 22,
      "byteOffset": 0,
      "byteLength": 279144
    },
    {
      "buffer": 23,
      "byteOffset": 0,
      "byteLength": 279144
    },
    {
      "buffer": 24,
      "byteOffset": 0,
      "byteLength": 1392
    },
    {
      "buffer": 25,
      "byteOffset": 0,
      "byteLength": 4176
    },
    {
      "buffer": 26,
      "byteOffset": 0,
      "byteLength": 4176
    },
    {
      "buffer": 27,
      "byteOffset": 0,
      "byteLength": 5520
    },
    {
      "buffer": 28,
      "byteOffset": 0,
      "byteLength": 16560
    },
    {
      "buffer": 29,
      "byteOffset": 0,
      "byteLength": 16560
    },
    {
      "buffer": 30,
      "byteOffset": 0,
      "byteLength": 62436
    },
    {
      "buffer": 31,
      "byteOffset": 0,
      "byteLength": 187308
    },
    {
      "buffer": 32,
      "byteOffset": 0,
      "byteLength": 187308
    },
    {
      "buffer": 33,
      "byteOffset": 0,
      "byteLength": 27984
    },
    {
      "buffer": 34,
      "byteOffset": 0,
      "byteLength": 83952
    },
    {
      "buffer": 35,
      "byteOffset": 0,
      "byteLength": 83952
    },
    {
      "buffer": 36,
      "byteOffset": 0,
      "byteLength": 2052
    },
    {
      "buffer": 37,
      "byteOffset": 0,
      "byteLength": 6156
    },
    {
      "buffer": 38,
      "byteOffset": 0,
      "byteLength": 6156
    },
    {
      "buffer": 39,
      "byteOffset": 0,
      "byteLength": 2580
    },
    {
      "buffer": 40,
      "byteOffset": 0,
      "byteLength": 7740
    },
    {
      "buffer": 41,
      "byteOffset": 0,
      "byteLength": 7740
    },
    {
      "buffer": 42,
      "byteOffset": 0,
      "byteLength": 1680
    },
    {
      "buffer": 43,
      "byteOffset": 0,
      "byteLength": 5040
    },
    {
      "buffer": 44,
      "byteOffset": 0,
      "byteLength": 5040
    },
    {
      "buffer": 45,
      "byteOffset": 0,
      "byteLength": 1932
    },
    {
      "buffer": 46,
      "byteOffset": 0,
      "byteLength": 5796
    },
    {
      "buffer": 47,
      "byteOffset": 0,
      "byteLength": 5796
    },
    {
      "buffer": 48,
      "byteOffset": 0,
      "byteLength": 5004
    },
    {
      "buffer": 49,
      "byteOffset": 0,
      "byteLength": 15012
    },
    {
      "buffer": 50,
      "byteOffset": 0,
      "byteLength": 15012
    },
    {
      "buffer": 51,
      "byteOffset": 0,
      "byteLength": 103068
    },
    {
      "buffer": 52,
      "byteOffset": 0,
      "byteLength": 309204
    },
    {
      "buffer": 53,
      "byteOffset": 0,
      "byteLength": 309204
    },
    {
      "buffer": 54,
      "byteOffset": 0,
      "byteLength": 24
    },
    {
      "buffer": 55,
      "byteOffset": 0,
      "byteLength": 72
    },
    {
      "buffer": 56,
      "byteOffset": 0,
      "byteLength": 72
    },
    {
      "buffer": 57,
      "byteOffset": 0,
      "byteLength": 15204
    },
    {
      "buffer": 58,
      "byteOffset": 0,
      "byteLength": 45612
    },
    {
      "buffer": 59,
      "byteOffset": 0,
      "byteLength": 45612
    },
    {
      "buffer": 60,
      "byteOffset": 0,
      "byteLength": 864
    },
    {
      "buffer": 61,
      "byteOffset": 0,
      "byteLength": 2592
    },
    {
      "buffer": 62,
      "byteOffset": 0,
      "byteLength": 2592
    },
    {
      "buffer": 63,
      "byteOffset": 0,
      "byteLength": 120
    },
    {
      "buffer": 64,
      "byteOffset": 0,
      "byteLength": 360
    },
    {
      "buffer": 65,
      "byteOffset": 0,
      "byteLength": 360
    },
    {
      "buffer": 66,
      "byteOffset": 0,
      "byteLength": 22236
    },
    {
      "buffer": 67,
      "byteOffset": 0,
      "byteLength": 66708
    },
    {
      "buffer": 68,
      "byteOffset": 0,
      "byteLength": 66708
    },
    {
      "buffer": 69,
      "byteOffset": 0,
      "byteLength": 8808
    },
    {
      "buffer": 70,
      "byteOffset": 0,
      "byteLength": 26424
    },
    {
      "buffer": 71,
      "byteOffset": 0,
      "byteLength": 26424
    },
    {
      "buffer": 72,
      "byteOffset": 0,
      "byteLength": 5040
    },
    {
      "buffer": 73,
      "byteOffset": 0,
      "byteLength": 8664
    },
    {
      "buffer": 74,
      "byteOffset": 0,
      "byteLength": 25992
    },
    {
      "buffer": 75,
      "byteOffset": 0,
      "byteLength": 25992
    },
    {
      "buffer": 76,
      "byteOffset": 0,
      "byteLength": 3648
    },
    {
      "buffer": 77,
      "byteOffset": 0,
      "byteLength": 10944
    },
    {
      "buffer": 78,
      "byteOffset": 0,
      "byteLength": 10944
    },
    {
      "buffer": 79,
      "byteOffset": 0,
      "byteLength": 4992
    },
    {
      "buffer": 80,
      "byteOffset": 0,
      "byteLength": 14976
    },
    {
      "buffer": 81,
      "byteOffset": 0,
      "byteLength": 14976
    },
    {
      "buffer": 82,
      "byteOffset": 0,
      "byteLength": 72
    }
  ]
}