{
  "scene": 0,
  "scenes": [
    {
      "nodes": [
        0,
        1,
        2
      ],
      "name": "0"
    },
    {
      "name": "1",
      "nodes": []
    },
    {
      "name": "2",
      "nodes": []
    },
    {
      "name": "3",
      "nodes": []
    },
    {
      "name": "4",
      "nodes": []
    },
    {
      "name": "5",
      "nodes": []
    }
  ],
  "asset": {
    "version": "2.0",
    "generator": "https://github.com/mikedh/trimesh"
  },
  "accessors": [
    {
      "componentType": 5125,
      "type": "SCALAR",
      "bufferView": 0,
      "count": 18,
      "max": [
        17
      ],
      "min": [
        0
      ]
    },
    {
      "componentType": 5126,
      "type": "VEC3",
      "byteOffset": 0,
      "bufferView": 1,
      "count": 18,
      "max": [
        0.8365616798400879,
        0.009264257736504078,
        0.0894082561135292
      ],
      "min": [
        -0.34163200855255127,
        -0.08392368257045746,
        -0.8125115036964417
      ]
    },
    {
      "componentType": 5126,
      "count": 18,
      "type": "VEC3",
      "byteOffset": 0,
      "bufferView": 2,
      "max": [
        0.0,
        1.0,
        0.0
      ],
      "min": [
        0.0,
        1.0,
        0.0
      ]
    },
    {
      "componentType": 5125,
      "type": "SCALAR",
      "bufferView": 3,
      "count": 24,
      "max": [
        23
      ],
      "min": [
        0
      ]
    },
    {
      "componentType": 5126,
      "type": "VEC3",
      "byteOffset": 0,
      "bufferView": 4,
      "count": 24,
      "max": [
        0.8365486860275269,
        0.02412399649620056,
        0.23282043635845184
      ],
      "min": [
        -0.8365289568901062,
        -0.09175810217857361,
        -0.9022706151008606
      ]
    },
    {
      "componentType": 5126,
      "count": 24,
      "type": "VEC3",
      "byteOffset": 0,
      "bufferView": 5,
      "max": [
        0.0,
        1.0,
        0.0
      ],
      "min": [
        0.0,
        1.0,
        0.0
      ]
    },
    {
      "componentType": 5125,
      "type": "SCALAR",
      "bufferView": 6,
      "count": 42,
      "max": [
        41
      ],
      "min": [
        0
      ]
    },
    {
      "componentType": 5126,
      "type": "VEC3",
      "byteOffset": 0,
      "bufferView": 7,
      "count": 42,
      "max": [
        0.8365616798400879,
        0.02412399649620056,
        0.23282235860824585
      ],
      "min": [
        -0.8365289568901062,
        -0.10260052978992462,
        -0.9022706151008606
      ]
    },
    {
      "componentType": 5126,
      "count": 42,
      "type": "VEC3",
      "byteOffset": 0,
      "bufferView": 8,
      "max": [
        0.0,
        1.0,
        0.0
      ],
      "min": [
        0.0,
        1.0,
        0.0
      ]
    }
  ],
  "meshes": [
    {
      "name": "0_#3396bb",
      "extras": {},
      "primitives": [
        {
          "attributes": {
            "POSITION": 1,
            "NORMAL": 2
          },
          "indices": 0,
          "mode": 4,
          "material": 0
        }
      ]
    },
    {
      "name": "1_#73cdec",
      "extras": {},
      "primitives": [
        {
          "attributes": {
            "POSITION": 4,
            "NORMAL": 5
          },
          "indices": 3,
          "mode": 4,
          "material": 1
        }
      ]
    },
    {
      "name": "2_#bacdd8",
      "extras": {},
      "primitives": [
        {
          "attributes": {
            "POSITION": 7,
            "NORMAL": 8
          },
          "indices": 6,
          "mode": 4,
          "material": 2
        }
      ]
    }
  ],
  "materials": [
    {
      "name": "#3396bb",
      "pbrMetallicRoughness": {
        "baseColorFactor": [
          0.2,
          0.5882352941176471,
          0.7333333333333333,
          1.0
        ]
      }
    },
    {
      "name": "#73cdec",
      "pbrMetallicRoughness": {
        "baseColorFactor": [
          0.45098039215686275,
          0.803921568627451,
          0.9254901960784314,
          1.0
        ]
      }
    },
    {
      "name": "#bacdd8",
      "pbrMetallicRoughness": {
        "baseColorFactor": [
          0.7294117647058823,
          0.803921568627451,
          0.8470588235294118,
          1.0
        ]
      }
    }
  ],
  "nodes": [
    {
      "name": "0_0_#3396bb",
      "mesh": 0
    },
    {
      "name": "0_1_#73cdec",
      "mesh": 1
    },
    {
      "name": "0_2_#bacdd8",
      "mesh": 2
    }
  ],
  "buffers": [
    {
      "uri": "su33_surf_flapRight_buffer_0.bin",
      "byteLength": 72
    },
    {
      "uri": "su33_surf_flapRight_buffer_1.bin",
      "byteLength": 216
    },
    {
      "uri": "su33_surf_flapRight_buffer_2.bin",
      "byteLength": 216
    },
    {
      "uri": "su33_surf_flapRight_buffer_3.bin",
      "byteLength": 96
    },
    {
      "uri": "su33_surf_flapRight_buffer_4.bin",
      "byteLength": 288
    },
    {
      "uri": "su33_surf_flapRight_buffer_5.bin",
      "byteLength": 288
    },
    {
      "uri": "su33_surf_flapRight_buffer_6.bin",
      "byteLength": 168
    },
    {
      "uri": "su33_surf_flapRight_buffer_7.bin",
      "byteLength": 504
    },
    {
      "uri": "su33_surf_flapRight_buffer_8.bin",
      "byteLength": 504
    }
  ],
  "bufferViews": [
    {
      "buffer": 0,
      "byteOffset": 0,
      "byteLength": 72
    },
    {
      "buffer": 1,
      "byteOffset": 0,
      "byteLength": 216
    },
    {
      "buffer": 2,
      "byteOffset": 0,
      "byteLength": 216
    },
    {
      "buffer": 3,
      "byteOffset": 0,
      "byteLength": 96
    },
    {
      "buffer": 4,
      "byteOffset": 0,
      "byteLength": 288
    },
    {
      "buffer": 5,
      "byteOffset": 0,
      "byteLength": 288
    },
    {
      "buffer": 6,
      "byteOffset": 0,
      "byteLength": 168
    },
    {
      "buffer": 7,
      "byteOffset": 0,
      "byteLength": 504
    },
    {
      "buffer": 8,
      "byteOffset": 0,
      "byteLength": 504
    }
  ]
}