{
  "scene": 0,
  "scenes": [
    {
      "nodes": [
        0,
        1,
        2
      ],
      "name": "0"
    },
    {
      "name": "1",
      "nodes": []
    },
    {
      "name": "2",
      "nodes": []
    },
    {
      "name": "3",
      "nodes": []
    },
    {
      "name": "4",
      "nodes": []
    },
    {
      "name": "5",
      "nodes": []
    }
  ],
  "asset": {
    "version": "2.0",
    "generator": "https://github.com/mikedh/trimesh"
  },
  "accessors": [
    {
      "componentType": 5125,
      "type": "SCALAR",
      "bufferView": 0,
      "count": 21,
      "max": [
        20
      ],
      "min": [
        0
      ]
    },
    {
      "componentType": 5126,
      "type": "VEC3",
      "byteOffset": 0,
      "bufferView": 1,
      "count": 21,
      "max": [
        0.8365296721458435,
        0.024124054238200188,
        0.23281998932361603
      ],
      "min": [
        -0.8365384340286255,
        -0.09175801277160645,
        -0.9022710919380188
      ]
    },
    {
      "componentType": 5126,
      "count": 21,
      "type": "VEC3",
      "byteOffset": 0,
      "bufferView": 2,
      "max": [
        0.0,
        1.0,
        0.0
      ],
      "min": [
        0.0,
        1.0,
        0.0
      ]
    },
    {
      "componentType": 5125,
      "type": "SCALAR",
      "bufferView": 3,
      "count": 9,
      "max": [
        8
      ],
      "min": [
        0
      ]
    },
    {
      "componentType": 5126,
      "type": "VEC3",
      "byteOffset": 0,
      "bufferView": 4,
      "count": 9,
      "max": [
        0.8365293145179749,
        -0.0002451853360980749,
        -0.0023690382950007915
      ],
      "min": [
        0.008512603119015694,
        -0.04815938323736191,
        -0.47072890400886536
      ]
    },
    {
      "componentType": 5126,
      "count": 9,
      "type": "VEC3",
      "byteOffset": 0,
      "bufferView": 5,
      "max": [
        0.0,
        1.0,
        0.0
      ],
      "min": [
        0.0,
        1.0,
        0.0
      ]
    },
    {
      "componentType": 5125,
      "type": "SCALAR",
      "bufferView": 6,
      "count": 36,
      "max": [
        35
      ],
      "min": [
        0
      ]
    },
    {
      "componentType": 5126,
      "type": "VEC3",
      "byteOffset": 0,
      "bufferView": 7,
      "count": 36,
      "max": [
        0.8365296721458435,
        0.024124054238200188,
        0.23282191157341003
      ],
      "min": [
        -0.836561381816864,
        -0.10260044038295746,
        -0.9022710919380188
      ]
    },
    {
      "componentType": 5126,
      "count": 36,
      "type": "VEC3",
      "byteOffset": 0,
      "bufferView": 8,
      "max": [
        0.0,
        1.0,
        0.0
      ],
      "min": [
        0.0,
        1.0,
        0.0
      ]
    }
  ],
  "meshes": [
    {
      "name": "0_#3396bb",
      "extras": {},
      "primitives": [
        {
          "attributes": {
            "POSITION": 1,
            "NORMAL": 2
          },
          "indices": 0,
          "mode": 4,
          "material": 0
        }
      ]
    },
    {
      "name": "1_#73cdec",
      "extras": {},
      "primitives": [
        {
          "attributes": {
            "POSITION": 4,
            "NORMAL": 5
          },
          "indices": 3,
          "mode": 4,
          "material": 1
        }
      ]
    },
    {
      "name": "2_#bacdd8",
      "extras": {},
      "primitives": [
        {
          "attributes": {
            "POSITION": 7,
            "NORMAL": 8
          },
          "indices": 6,
          "mode": 4,
          "material": 2
        }
      ]
    }
  ],
  "materials": [
    {
      "name": "#3396bb",
      "pbrMetallicRoughness": {
        "baseColorFactor": [
          0.2,
          0.5882352941176471,
          0.7333333333333333,
          1.0
        ]
      }
    },
    {
      "name": "#73cdec",
      "pbrMetallicRoughness": {
        "baseColorFactor": [
          0.45098039215686275,
          0.803921568627451,
          0.9254901960784314,
          1.0
        ]
      }
    },
    {
      "name": "#bacdd8",
      "pbrMetallicRoughness": {
        "baseColorFactor": [
          0.7294117647058823,
          0.803921568627451,
          0.8470588235294118,
          1.0
        ]
      }
    }
  ],
  "nodes": [
    {
      "name": "0_0_#3396bb",
      "mesh": 0
    },
    {
      "name": "0_1_#73cdec",
      "mesh": 1
    },
    {
      "name": "0_2_#bacdd8",
      "mesh": 2
    }
  ],
  "buffers": [
    {
      "uri": "su33_surf_flapLeft_buffer_0.bin",
      "byteLength": 84
    },
    {
      "uri": "su33_surf_flapLeft_buffer_1.bin",
      "byteLength": 252
    },
    {
      "uri": "su33_surf_flapLeft_buffer_2.bin",
      "byteLength": 252
    },
    {
      "uri": "su33_surf_flapLeft_buffer_3.bin",
      "byteLength": 36
    },
    {
      "uri": "su33_surf_flapLeft_buffer_4.bin",
      "byteLength": 108
    },
    {
      "uri": "su33_surf_flapLeft_buffer_5.bin",
      "byteLength": 108
    },
    {
      "uri": "su33_surf_flapLeft_buffer_6.bin",
      "byteLength": 144
    },
    {
      "uri": "su33_surf_flapLeft_buffer_7.bin",
      "byteLength": 432
    },
    {
      "uri": "su33_surf_flapLeft_buffer_8.bin",
      "byteLength": 432
    }
  ],
  "bufferViews": [
    {
      "buffer": 0,
      "byteOffset": 0,
      "byteLength": 84
    },
    {
      "buffer": 1,
      "byteOffset": 0,
      "byteLength": 252
    },
    {
      "buffer": 2,
      "byteOffset": 0,
      "byteLength": 252
    },
    {
      "buffer": 3,
      "byteOffset": 0,
      "byteLength": 36
    },
    {
      "buffer": 4,
      "byteOffset": 0,
      "byteLength": 108
    },
    {
      "buffer": 5,
      "byteOffset": 0,
      "byteLength": 108
    },
    {
      "buffer": 6,
      "byteOffset": 0,
      "byteLength": 144
    },
    {
      "buffer": 7,
      "byteOffset": 0,
      "byteLength": 432
    },
    {
      "buffer": 8,
      "byteOffset": 0,
      "byteLength": 432
    }
  ]
}