{
  "scene": 0,
  "scenes": [
    {
      "nodes": [
        0,
        1,
        2
      ],
      "name": "0"
    },
    {
      "name": "1",
      "nodes": []
    },
    {
      "name": "2",
      "nodes": []
    },
    {
      "name": "3",
      "nodes": []
    },
    {
      "name": "4",
      "nodes": []
    },
    {
      "name": "5",
      "nodes": []
    }
  ],
  "asset": {
    "version": "2.0",
    "generator": "https://github.com/mikedh/trimesh"
  },
  "accessors": [
    {
      "componentType": 5125,
      "type": "SCALAR",
      "bufferView": 0,
      "count": 24,
      "max": [
        23
      ],
      "min": [
        0
      ]
    },
    {
      "componentType": 5126,
      "type": "VEC3",
      "byteOffset": 0,
      "bufferView": 1,
      "count": 24,
      "max": [
        0.5717584490776062,
        0.07238269597291946,
        0.0
      ],
      "min": [
        -1.099582314491272,
        -0.07238172739744186,
        -2.100003957748413
      ]
    },
    {
      "componentType": 5126,
      "count": 24,
      "type": "VEC3",
      "byteOffset": 0,
      "bufferView": 2,
      "max": [
        1.0,
        0.0012624416267499328,
        0.9998644590377808
      ],
      "min": [
        -1.0,
        -0.07670216262340546,
        -0.999858558177948
      ]
    },
    {
      "componentType": 5125,
      "type": "SCALAR",
      "bufferView": 3,
      "count": 12,
      "max": [
        11
      ],
      "min": [
        0
      ]
    },
    {
      "componentType": 5126,
      "type": "VEC3",
      "byteOffset": 0,
      "bufferView": 4,
      "count": 12,
      "max": [
        0.5549548268318176,
        0.07094220072031021,
        -1.7336145639419556
      ],
      "min": [
        -1.099582314491272,
        -0.07094021141529083,
        -2.100003957748413
      ]
    },
    {
      "componentType": 5126,
      "count": 12,
      "type": "VEC3",
      "byteOffset": 0,
      "bufferView": 5,
      "max": [
        0.02999687008559704,
        0.9974955916404724,
        -0.06414859741926193
      ],
      "min": [
        -0.002578476443886757,
        -0.9974892735481262,
        -0.20084142684936523
      ]
    },
    {
      "componentType": 5126,
      "type": "VEC3",
      "byteOffset": 0,
      "bufferView": 6,
      "count": 24,
      "max": [
        0.8434675335884094,
        0.07238269597291946,
        0.0
      ],
      "min": [
        -1.0468270778656006,
        -0.07238172739744186,
        -2.104617118835449
      ]
    },
    {
      "componentType": 5126,
      "count": 24,
      "type": "VEC3",
      "byteOffset": 0,
      "bufferView": 7,
      "max": [
        0.11019901931285858,
        0.9986355304718018,
        0.0693606585264206
      ],
      "min": [
        -0.0012820025440305471,
        -0.9986200928688049,
        -0.06283397227525711
      ]
    }
  ],
  "meshes": [
    {
      "name": "0_#000000",
      "extras": {},
      "primitives": [
        {
          "attributes": {
            "POSITION": 1,
            "NORMAL": 2
          },
          "indices": 0,
          "mode": 4,
          "material": 0
        }
      ]
    },
    {
      "name": "1_#e2e5e7",
      "extras": {},
      "primitives": [
        {
          "attributes": {
            "POSITION": 4,
            "NORMAL": 5
          },
          "indices": 3,
          "mode": 4,
          "material": 1
        }
      ]
    },
    {
      "name": "2_#cbcbcb",
      "extras": {},
      "primitives": [
        {
          "attributes": {
            "POSITION": 6,
            "NORMAL": 7
          },
          "indices": 0,
          "mode": 4,
          "material": 2
        }
      ]
    }
  ],
  "materials": [
    {
      "name": "#000000",
      "pbrMetallicRoughness": {
        "baseColorFactor": [
          0.0,
          0.0,
          0.0,
          1.0
        ]
      }
    },
    {
      "name": "#e2e5e7",
      "pbrMetallicRoughness": {
        "baseColorFactor": [
          0.8862745098039215,
          0.8980392156862745,
          0.9058823529411765,
          1.0
        ]
      }
    },
    {
      "name": "#cbcbcb",
      "pbrMetallicRoughness": {
        "baseColorFactor": [
          0.796078431372549,
          0.796078431372549,
          0.796078431372549,
          1.0
        ]
      }
    }
  ],
  "nodes": [
    {
      "name": "0_0_#000000",
      "mesh": 0
    },
    {
      "name": "0_1_#e2e5e7",
      "mesh": 1
    },
    {
      "name": "0_2_#cbcbcb",
      "mesh": 2
    }
  ],
  "buffers": [
    {
      "uri": "a4e_surf_elevatorLeft_buffer_0.bin",
      "byteLength": 96
    },
    {
      "uri": "a4e_surf_elevatorLeft_buffer_1.bin",
      "byteLength": 288
    },
    {
      "uri": "a4e_surf_elevatorLeft_buffer_2.bin",
      "byteLength": 288
    },
    {
      "uri": "a4e_surf_elevatorLeft_buffer_3.bin",
      "byteLength": 48
    },
    {
      "uri": "a4e_surf_elevatorLeft_buffer_4.bin",
      "byteLength": 144
    },
    {
      "uri": "a4e_surf_elevatorLeft_buffer_5.bin",
      "byteLength": 144
    },
    {
      "uri": "a4e_surf_elevatorLeft_buffer_6.bin",
      "byteLength": 288
    },
    {
      "uri": "a4e_surf_elevatorLeft_buffer_7.bin",
      "byteLength": 288
    }
  ],
  "bufferViews": [
    {
      "buffer": 0,
      "byteOffset": 0,
      "byteLength": 96
    },
    {
      "buffer": 1,
      "byteOffset": 0,
      "byteLength": 288
    },
    {
      "buffer": 2,
      "byteOffset": 0,
      "byteLength": 288
    },
    {
      "buffer": 3,
      "byteOffset": 0,
      "byteLength": 48
    },
    {
      "buffer": 4,
      "byteOffset": 0,
      "byteLength": 144
    },
    {
      "buffer": 5,
      "byteOffset": 0,
      "byteLength": 144
    },
    {
      "buffer": 6,
      "byteOffset": 0,
      "byteLength": 288
    },
    {
      "buffer": 7,
      "byteOffset": 0,
      "byteLength": 288
    }
  ]
}